<svg width="140" height="140" viewBox="0 0 140 140" fill="none" xmlns="http://www.w3.org/2000/svg">
<path d="M105.584 55.7892C73.6497 48.7945 99.8281 4.54855 56.0734 8.21552C12.3187 11.8825 -29.1722 112.538 48.5061 136.107C126.184 159.676 166.22 69.0679 105.584 55.7892Z" fill="#86D9C2"/>
<g clip-path="url(#clip0_22987_101438)">
<path d="M77.1356 48.7881L73.8594 43.8166C73.7254 43.6473 73.5577 43.5075 73.367 43.406C73.1763 43.3046 72.9667 43.2437 72.7514 43.2271C72.536 43.2106 72.3196 43.2387 72.1156 43.3098C71.9117 43.3809 71.7246 43.4934 71.5662 43.6402C69.4532 45.6069 64.6147 49.2931 62.8139 50.5147C66.9843 50.8495 73.2827 52.0319 75.9211 51.0172C76.9227 50.6338 77.8113 49.625 77.1356 48.7881ZM122.198 107.383C121.289 108.273 105.95 116.602 65.8322 96.8743C53.6861 90.9005 17.4788 72.575 17.6184 71.5828C17.6184 71.5828 16.9945 72.7853 16.5323 73.9904C16.1986 74.8592 16.0783 75.7196 16.4068 76.4627C18.6527 81.5175 27.5023 84.4722 39.9619 89.6517L41.7383 90.3893L42.9129 90.8769C44.8155 91.6669 50.4319 94.0817 56.9747 96.8953C65.9221 100.741 83.8676 108.353 84.3859 108.559C91.2057 111.258 98.8474 112.785 107.597 112.9C118.672 113.041 122.198 107.383 122.198 107.383Z" fill="#8899A6"/>
<path d="M122.198 107.383C122.198 107.383 123.32 106.452 124.141 104.222C124.961 101.992 124.877 98.492 121.926 95.4752C118.976 92.461 108.972 84.2195 105.472 80.6998C103.767 78.9854 103.635 77.0309 100.415 73.902C100.415 73.902 87.9551 61.3578 85.2141 58.6413C79.352 52.83 80.155 48.7756 76.9292 47.4372C74.7776 46.5442 57.4456 53.1351 50.9051 50.4159C46.3846 48.5385 43.9169 39.5544 41.5579 37.0289C39.6785 35.0162 35.7965 37.2067 33.3542 39.5435C30.9119 41.8802 25.4182 52.5662 24.191 55.5206C22.9639 58.475 21.2678 61.7937 21.7911 64.5839L22.311 67.3721C22.311 67.3721 75.7601 96.6183 90.0688 101.573C114.467 110.021 122.198 107.383 122.198 107.383Z" fill="#00A876"/>
<path d="M78.9038 49.1713C78.4017 48.4029 77.8223 47.8076 76.9287 47.4345C74.777 46.5415 57.4458 53.1352 50.9045 50.4132C46.384 48.5359 43.9156 39.5491 41.5573 37.0263C40.8238 36.2422 39.7812 36.1074 38.6421 36.3638C41.5 39.6241 44.3157 50.8731 49.7875 53.1454C56.3837 55.89 72.11 50.4223 78.9038 49.1713Z" fill="#F9F9F9"/>
<path d="M53.4414 77.3007C53.7381 72.9881 52.7089 63.3626 48.6346 58.5676C44.8175 54.0775 32.4376 45.7824 30.0872 44.2122C27.5546 48.0685 24.4983 54.4463 23.6241 56.5498C22.4701 59.3264 21.03 62.4845 21.6292 65.1393C21.8447 66.0939 22.2293 66.4452 22.2293 66.4452C22.2293 66.4452 53.4294 77.4707 53.4414 77.3007Z" fill="#06583D"/>
<path d="M77.2482 60.5201C76.7229 60.6641 76.1637 60.6194 75.668 60.3936C75.1722 60.1678 74.7714 59.7754 74.5352 59.2845C74.299 58.7937 74.2424 58.2355 74.3753 57.7073C74.5082 57.179 74.8222 56.7141 75.2625 56.3934L79.6398 53.1644C80.1387 52.8327 80.7459 52.7057 81.3359 52.8095C81.9259 52.9132 82.4533 53.24 82.809 53.722C83.1647 54.2039 83.3214 54.8043 83.2467 55.3986C83.172 55.993 82.8715 56.5358 82.4075 56.9147L78.0302 60.1438C77.7951 60.3166 77.53 60.4442 77.2482 60.5201ZM83.0645 67.7701C82.5682 67.9056 82.041 67.8729 81.5653 67.6771C81.0896 67.4812 80.6921 67.1333 80.435 66.6877C80.178 66.2421 80.0758 65.7238 80.1444 65.214C80.2131 64.7041 80.4487 64.2314 80.8144 63.8696L84.884 59.8142C85.326 59.4001 85.9119 59.1744 86.5175 59.1848C87.1231 59.1952 87.7008 59.441 88.1283 59.87C88.5558 60.299 88.7995 60.8777 88.8077 61.4833C88.816 62.0889 88.5881 62.6739 88.1725 63.1145L84.1029 67.1698C83.8156 67.4578 83.4574 67.6649 83.0645 67.7701ZM89.929 73.8449C89.4559 73.9733 88.9543 73.9491 88.4958 73.7756C88.0373 73.6022 87.6452 73.2884 87.3755 72.879C87.1058 72.4697 86.9722 71.9856 86.9938 71.4958C87.0154 71.0061 87.1911 70.5356 87.4958 70.1516L90.7463 66.0339C91.1419 65.5886 91.6927 65.3115 92.286 65.2592C92.8793 65.207 93.47 65.3836 93.9373 65.7528C94.4046 66.122 94.713 66.656 94.7994 67.2453C94.8857 67.8345 94.7435 68.4345 94.4018 68.9223L91.1505 73.0373C90.8422 73.4324 90.4133 73.716 89.929 73.8449ZM96.9961 79.3449C96.5322 79.4677 96.0416 79.4445 95.5913 79.2784C95.1411 79.1123 94.753 78.8114 94.4799 78.4167C94.2069 78.022 94.0622 77.5527 94.0656 77.0728C94.069 76.5929 94.2203 76.1257 94.4989 75.7349L96.9163 72.3609C97.2879 71.8894 97.8269 71.5793 98.4212 71.4951C99.0155 71.4108 99.6195 71.5588 100.107 71.9083C100.596 72.2578 100.93 72.7819 101.042 73.3717C101.153 73.9615 101.033 74.5717 100.706 75.0752L98.2889 78.4492C97.9743 78.888 97.5175 79.2045 96.9961 79.3449ZM21.3218 65.4519C21.3218 65.4519 23.5729 66.6087 25.6672 66.3753C27.7615 66.142 31.9284 67.4296 34.8862 68.6588C37.844 69.8879 49.056 74.329 56.3317 78.5681C63.6073 82.8073 75.8061 92.2725 80.2327 94.776C84.6585 97.2769 91.6858 100.89 97.3477 102.691C103.01 104.493 108.15 105.925 111.396 106.651C115.581 107.589 119.28 107.828 122.198 107.383C121.366 108.227 116.672 111.584 106.783 110.924C97.3307 110.29 90.8277 108.602 85.2329 106.386C79.638 104.169 48.8279 90.8107 43.8087 88.7248C38.7895 86.639 23.8064 80.4878 21.081 78.1727C17.2092 74.8849 16.8703 73.0835 17.2239 72.2353C18.0832 70.1617 19.6193 64.7434 21.3218 65.4519Z" fill="#F9F9F9"/>
<path d="M121.926 95.4755C118.976 92.4613 108.971 84.2198 105.472 80.7001C104.786 80.0095 104.352 79.2777 103.871 78.4516C103.652 78.6082 103.403 78.7324 103.228 78.9375C100.701 81.8921 102.438 88.3086 108.849 93.7859C113.988 98.1775 121.035 100.735 124.385 99.9068C124.067 98.4446 123.327 96.906 121.926 95.4755Z" fill="#06583D"/>
</g>
<defs>
<clipPath id="clip0_22987_101438">
<rect width="100" height="100" fill="white" transform="translate(5 38.8818) rotate(-15)"/>
</clipPath>
</defs>
</svg>
