<svg width="140" height="140" viewBox="0 0 140 140" fill="none" xmlns="http://www.w3.org/2000/svg">
<path d="M105.084 51.7892C73.1497 44.7945 99.3281 0.548547 55.5734 4.21552C11.8187 7.88249 -29.6722 108.538 48.0061 132.107C125.684 155.676 165.72 65.0679 105.084 51.7892Z" fill="#FFA8D5"/>
<path d="M97.4996 56.8751C111.25 33.2814 82.9684 17.9689 47.0309 34.3751C24.9996 44.5314 9.68712 75.7814 40.3121 102.656C62.0309 121.719 116.875 110.938 116.875 89.0626C116.875 64.8439 82.9684 81.5626 97.4996 56.8751ZM105.156 95.3126C100.781 99.0626 93.9059 99.0626 89.5309 95.3126C85.1559 91.5626 85.1559 88.2814 89.5309 84.5314C93.9059 80.7814 100.781 80.7814 105.156 84.5314C109.531 88.2814 109.375 91.5626 105.156 95.3126Z" fill="#F6C799"/>
<path d="M71.875 90.4688C67.0312 86.7187 59.375 86.7187 54.5312 90.4688C49.6875 94.2188 49.6875 100.156 54.5312 103.906C59.375 107.656 67.0312 107.656 71.875 103.906C76.5625 100.156 76.5625 94.0625 71.875 90.4688Z" fill="#2CAECE"/>
<path d="M50.6245 72.4999C45.312 69.9999 38.1245 71.5624 34.3745 76.0936C30.6245 80.6249 31.8745 86.2499 37.187 88.7499C42.4995 91.2499 49.687 89.6874 53.437 85.1561C57.187 80.6249 55.937 74.9999 50.6245 72.4999Z" fill="#FDF516"/>
<path d="M46.5633 52.1874C42.0321 49.6874 35.3133 50.7811 31.8758 54.6874C28.2821 58.5936 29.2196 63.7499 33.7508 66.0936C38.2821 68.5936 45.0008 67.4999 48.4383 63.5936C51.8758 59.6874 51.0946 54.6874 46.5633 52.1874Z" fill="#FF5555"/>
<path d="M64.3751 36.8748C60.0001 34.3748 53.5939 35.3123 50.1564 39.0623C46.7189 42.8123 47.3439 47.656 51.8751 50.156C56.2501 52.656 62.6564 51.7185 66.0939 47.9685C69.5314 44.2185 68.7501 39.2185 64.3751 36.8748Z" fill="#83BF4F"/>
<path d="M89.8436 35.1562C86.4061 32.3437 80.6248 31.7187 76.5623 33.5937C72.6561 35.4687 72.1873 39.375 75.6248 42.1875C79.0623 45 84.8436 45.625 88.9061 43.75C92.8123 41.7187 93.1248 37.9687 89.8436 35.1562Z" fill="#9156B7"/>
<path d="M82.5 85.7814C79.5312 89.0626 64.5312 92.0314 64.5312 92.0314C64.5312 92.0314 70.4688 86.5626 73.125 77.6564C74.375 73.4376 80.4688 73.4376 83.125 75.7814C85.7813 77.9689 85.4688 82.5001 82.5 85.7814Z" fill="#947151"/>
<path d="M111.719 39.2185C113.281 39.0623 116.25 41.7185 116.406 43.1248C116.875 49.8435 88.75 73.906 88.75 73.906L84.0625 69.9998C84.0625 69.9998 104.844 39.6873 111.719 39.2185Z" fill="#666666"/>
<path d="M80 74.5313L84.6875 78.4375L88.75 73.9062L84.0625 70L80 74.5313Z" fill="#CCCCCC"/>
</svg>
