<svg width="324" height="113" viewBox="0 0 324 113" fill="none" xmlns="http://www.w3.org/2000/svg">
<path d="M304 62L324 82H184L206 103V105L9 76V75H136L122 62H304Z" fill="#A49CEF"/>
<path d="M303 54L323 74H183L205 95V97L8 68V67H135L121 54H303Z" fill="#0F073A"/>
<path d="M79.0871 12L79.6608 12.0088C82.5017 12.1008 84.8794 12.8864 86.6718 14.4775C88.6884 16.1584 89.5976 18.6773 89.5976 21.7944V30.0253C89.5976 33.2005 88.7459 35.8381 86.9101 37.7938C85.9432 38.8237 84.783 39.5825 83.453 40.092C83.7566 40.3572 84.0323 40.6589 84.2761 41.0007C85.2796 42.337 86.0933 44.3069 86.7643 46.8069L91.6135 64.5828L92 66H82.5431L82.3337 65.1366L78.1416 47.8001L77.999 47.2464C77.6525 45.9758 77.2117 44.849 76.6814 43.8603L76.6715 43.8428L76.6636 43.8252C76.434 43.3584 76.1689 43.0726 75.8973 42.8991C75.6293 42.7279 75.2837 42.6212 74.8126 42.6212H70.8565V66H62V12H79.0871ZM70.8565 35.5547H76.1279C78.2089 35.5547 79.3298 35.0133 79.8969 34.2584L79.9058 34.2452L79.9169 34.233C80.6255 33.345 81.0696 31.9133 81.0696 29.7616V22.9325C81.0696 21.0102 80.6508 19.8626 80.0584 19.2313L80.0338 19.2048L80.0116 19.1785C79.482 18.5392 78.5567 18.103 76.9499 18.1029H70.8565V35.5547Z" fill="#A49CEF" stroke="#A49CEF" stroke-width="2"/>
<path d="M122 12V19.1779H109.094V34.573H119.548V42.1968H109.094V59.9108H122V67H101V12H122Z" fill="#A49CEF" stroke="#A49CEF" stroke-width="2"/>
<path d="M135.464 46.4447C136.752 46.4448 137.831 47.0035 138.662 47.9585C139.552 48.8634 140 49.9712 140 51.2218C140 52.513 139.563 53.6562 138.659 54.5751L138.66 54.5761C137.812 55.4889 136.729 55.9999 135.464 56C134.196 56 133.113 55.489 132.265 54.5761C131.405 53.6492 131 52.5038 131 51.2218C131 49.9802 131.416 48.8699 132.265 47.9552C133.097 47.002 134.175 46.4447 135.464 46.4447ZM135.464 22C136.752 22.0001 137.831 22.559 138.662 23.5139C139.552 24.419 140 25.5274 140 26.7782C140 28.0695 139.563 29.2128 138.659 30.1316C137.811 31.0443 136.729 31.5552 135.464 31.5553C134.196 31.5553 133.113 31.0454 132.265 30.1326C131.405 29.2057 131 28.0603 131 26.7782C131 25.5363 131.416 24.4253 132.265 23.5107C133.097 22.5574 134.176 22 135.464 22Z" fill="#A49CEF" stroke="#A49CEF" stroke-width="2"/>
<path d="M164.064 12L164.571 12.01C167.087 12.107 169.222 12.934 170.876 14.5586H170.875C172.689 16.2794 173.487 18.8296 173.487 21.9683V28.2136C173.487 29.9649 173.282 31.5637 172.854 32.997L172.85 33.0114C172.424 34.3728 171.819 35.5365 171.005 36.4572C170.601 36.9142 170.155 37.306 169.67 37.6296C170.236 37.9444 170.748 38.3555 171.2 38.8595H171.201C171.206 38.8636 171.209 38.8687 171.213 38.8728C171.216 38.8762 171.22 38.8794 171.223 38.8828H171.222C172.126 39.8534 172.805 41.0664 173.282 42.4861C173.77 43.9387 174 45.6125 174 47.4848V54.9799C174 58.0257 173.579 60.5203 172.631 62.3574L172.632 62.3585C171.746 64.1119 170.459 65.3931 168.76 66.1072L168.74 66.115L168.72 66.1227C167.142 66.719 165.313 67 163.258 67H149V12H164.064ZM157.004 60.8924H162.159C163.053 60.8924 163.752 60.7364 164.292 60.4731C164.667 60.2906 165.075 59.872 165.406 58.9648L165.409 58.9536L165.414 58.9426C165.779 58.0043 165.996 56.5615 165.996 54.534V47.5746C165.996 44.8822 165.446 43.544 164.794 43.003L164.784 42.9941L164.774 42.9864C163.994 42.3079 162.961 41.9295 161.573 41.9294H157.004V60.8924ZM157.004 35.1974H161.427C162.891 35.1973 163.87 34.7202 164.544 33.8598C165.259 32.8881 165.703 31.3306 165.703 29.0165V23.1284C165.703 21.166 165.282 19.9916 164.686 19.3454L164.663 19.321L164.642 19.2954C164.01 18.5258 163.299 18.1975 162.452 18.1975H157.004V35.1974Z" fill="#A49CEF" stroke="#A49CEF" stroke-width="2"/>
<path d="M195 11C197.231 11.0001 199.237 11.3388 200.997 12.0467L200.996 12.0478C202.894 12.7333 204.377 14.027 205.435 15.8683C206.522 17.7628 207 20.4321 207 23.7345V52.4182C207 56.4012 206.528 59.5434 205.471 61.7128L205.465 61.7249C204.418 63.807 202.923 65.269 200.955 65.9686L200.954 65.9676C199.162 66.6628 197.148 67 194.929 67C192.699 67 190.692 66.6612 188.933 65.9534C187.014 65.2405 185.56 63.7393 184.53 61.6242C183.473 59.4564 183 56.3457 183 52.4182V23.7345C183 20.4405 183.474 17.7761 184.556 15.8825L184.76 15.5325C185.797 13.8144 187.197 12.5927 188.965 11.9461L188.975 11.9428C190.765 11.3067 192.779 11 195 11ZM194.929 17.5515C193.96 17.5515 193.173 17.7088 192.539 17.9869C192.06 18.1975 191.59 18.65 191.196 19.5324L191.191 19.5443L191.186 19.5553C190.823 20.3245 190.587 21.6179 190.587 23.5584V54.5301C190.587 56.5178 190.819 57.8783 191.191 58.7182C191.577 59.5287 192.04 59.9702 192.539 60.1893C193.173 60.4674 193.96 60.6245 194.929 60.6246C195.898 60.6246 196.685 60.4674 197.319 60.1893L197.34 60.1805C197.887 59.954 198.361 59.5091 198.737 58.7182C199.109 57.8783 199.342 56.518 199.342 54.5301V23.5584C199.342 21.618 199.106 20.3245 198.743 19.5553L198.737 19.5443L198.733 19.5324C198.348 18.67 197.867 18.2141 197.34 17.9956L197.319 17.9869C196.685 17.7088 195.898 17.5515 194.929 17.5515Z" fill="#A49CEF" stroke="#A49CEF" stroke-width="2"/>
<path d="M228.501 11C230.825 11.0001 232.915 11.3388 234.747 12.0467L234.745 12.0478C236.722 12.7333 238.268 14.027 239.37 15.8683C240.503 17.7628 241 20.4321 241 23.7345V52.4182C241 56.4012 240.509 59.5434 239.408 61.7128L239.401 61.7249C238.311 63.807 236.753 65.269 234.703 65.9686L234.702 65.9676C232.835 66.6628 230.737 67 228.426 67C226.103 67 224.013 66.6612 222.18 65.9534C220.181 65.2405 218.667 63.7393 217.594 61.6242C216.493 59.4564 216 56.3457 216 52.4182V23.7345C216 20.4405 216.494 17.7761 217.621 15.8825L217.833 15.5325C218.914 13.8144 220.373 12.5927 222.214 11.9461L222.224 11.9428C224.089 11.3067 226.187 11 228.501 11ZM228.426 17.5515C227.418 17.5515 226.597 17.7088 225.937 17.9869C225.437 18.1975 224.949 18.65 224.538 19.5324L224.532 19.5443L224.528 19.5553C224.149 20.3245 223.903 21.6179 223.903 23.5584V54.5301C223.903 56.5178 224.145 57.8783 224.532 58.7182C224.934 59.5287 225.418 59.9702 225.937 60.1893C226.597 60.4674 227.418 60.6245 228.426 60.6246C229.436 60.6246 230.256 60.4674 230.916 60.1893L230.939 60.1805C231.508 59.954 232.002 59.5091 232.393 58.7182C232.78 57.8783 233.023 56.518 233.023 54.5301V23.5584C233.023 21.618 232.778 20.3245 232.399 19.5553L232.393 19.5443L232.39 19.5324C231.988 18.67 231.487 18.2141 230.939 17.9956L230.916 17.9869C230.256 17.7088 229.436 17.5515 228.426 17.5515Z" fill="#A49CEF" stroke="#A49CEF" stroke-width="2"/>
<path d="M272 12V19.1779H264.865V67H257.064V19.1779H250V12H272Z" fill="#A49CEF" stroke="#A49CEF" stroke-width="2"/>
<path d="M77.0871 8L77.6608 8.00879C80.5017 8.10071 82.8794 8.88633 84.6718 10.4774C86.6884 12.1583 87.5976 14.6773 87.5976 17.7944V26.0253C87.5976 29.2005 86.7459 31.8381 84.9101 33.7937C83.9432 34.8237 82.783 35.5825 81.453 36.092C81.7566 36.3572 82.0323 36.6588 82.2761 37.0006C83.2796 38.337 84.0933 40.3068 84.7643 42.8069L89.6135 60.5827L90 62H80.5431L80.3337 61.1364L76.1416 43.8001L75.999 43.2464C75.6525 41.9758 75.2117 40.849 74.6814 39.8603L74.6715 39.8428L74.6636 39.8252C74.434 39.3584 74.1689 39.0726 73.8973 38.899C73.6293 38.7278 73.2837 38.6211 72.8126 38.6211H68.8565V62H60V8H77.0871ZM68.8565 31.5547H74.1279C76.2089 31.5546 77.3298 31.0133 77.8969 30.2584L77.9058 30.2451L77.9169 30.233C78.6255 29.345 79.0696 27.9132 79.0696 25.7616V18.9325C79.0696 17.0101 78.6508 15.8626 78.0584 15.2312L78.0338 15.2048L78.0116 15.1785C77.482 14.5391 76.5567 14.103 74.9499 14.1029H68.8565V31.5547Z" fill="#0F073A" stroke="#0F073A" stroke-width="2"/>
<path d="M120 8V15.1779H107.094V30.573H117.548V38.1968H107.094V55.9108H120V63H99V8H120Z" fill="#0F073A" stroke="#0F073A" stroke-width="2"/>
<path d="M133.463 45.1636C134.751 45.1637 135.831 45.7389 136.662 46.722C137.551 47.6537 138 48.7938 138 50.0812C138 51.4105 137.563 52.5874 136.659 53.5332L136.66 53.5344C135.812 54.4739 134.729 54.9999 133.463 55C132.196 55 131.113 54.474 130.265 53.5344C129.405 52.5801 129 51.401 129 50.0812C129 48.8031 129.416 47.6602 130.265 46.7186C131.097 45.7373 132.175 45.1636 133.463 45.1636ZM133.463 20C134.751 20.0001 135.831 20.5755 136.662 21.5584C137.552 22.4902 138 23.6311 138 24.9188C138 26.248 137.563 27.4249 136.659 28.3708C135.811 29.3103 134.729 29.8363 133.463 29.8364C132.196 29.8364 131.113 29.3115 130.265 28.3719C129.405 27.4176 129 26.2385 129 24.9188C129 23.6404 129.416 22.4968 130.265 21.5551C131.097 20.5738 132.175 20 133.463 20Z" fill="#0F073A" stroke="#0F073A" stroke-width="2"/>
<path d="M161.462 8L161.948 8.00998C164.364 8.10698 166.413 8.93406 168.001 10.5586H168C169.742 12.2794 170.508 14.8296 170.508 17.9683V24.2136C170.508 25.9649 170.311 27.5637 169.9 28.997L169.896 29.0114C169.487 30.3728 168.907 31.5365 168.125 32.4573C167.737 32.9142 167.309 33.306 166.843 33.6296C167.387 33.9445 167.878 34.3555 168.312 34.8595H168.313C168.318 34.8636 168.321 34.8687 168.324 34.8728C168.327 34.8762 168.331 34.8794 168.334 34.8828H168.333C169.201 35.8534 169.853 37.0664 170.311 38.4862C170.779 39.9387 171 41.6125 171 43.4848V50.9799C171 54.0257 170.596 56.5203 169.686 58.3574L169.687 58.3585C168.836 60.1119 167.601 61.3931 165.969 62.1072L165.951 62.115L165.931 62.1227C164.416 62.719 162.66 63 160.688 63H147V8H161.462ZM154.684 56.8924H159.633C160.491 56.8924 161.162 56.7364 161.68 56.4731C162.041 56.2906 162.432 55.8721 162.749 54.9648L162.753 54.9537L162.757 54.9426C163.108 54.0043 163.316 52.5615 163.316 50.534V43.5746C163.316 40.8822 162.788 39.544 162.163 39.003L162.153 38.9941L162.143 38.9864C161.395 38.3079 160.402 37.9295 159.07 37.9294H154.684V56.8924ZM154.684 31.1974H158.93C160.335 31.1973 161.275 30.7202 161.922 29.8598C162.609 28.8881 163.035 27.3306 163.035 25.0165V19.1284C163.035 17.1662 162.631 15.9916 162.058 15.3454L162.036 15.321L162.016 15.2954C161.41 14.5259 160.727 14.1975 159.914 14.1975H154.684V31.1974Z" fill="#0F073A" stroke="#0F073A" stroke-width="2"/>
<path d="M192.5 8C194.824 8.00005 196.913 8.34483 198.747 9.06541L198.745 9.06653C200.722 9.76418 202.268 11.0811 203.37 12.9552C204.503 14.8835 205 17.6004 205 20.9619V50.1578C205 54.2118 204.508 57.4101 203.408 59.6184L203.401 59.6306C202.31 61.75 200.754 63.2381 198.703 63.9502L198.702 63.949C196.835 64.6566 194.737 65 192.426 65C190.103 65 188.013 64.6551 186.18 63.9346C184.181 63.2089 182.667 61.6811 181.594 59.5282C180.493 57.3215 180 54.1553 180 50.1578V20.9619C180 17.6089 180.494 14.8971 181.621 12.9697L181.833 12.6135C182.913 10.8646 184.372 9.62115 186.213 8.96299L186.224 8.95965C188.089 8.31218 190.187 8 192.5 8ZM192.426 14.6685C191.417 14.6685 190.597 14.8285 189.937 15.1117C189.437 15.3261 188.948 15.7865 188.538 16.6847L188.532 16.6969L188.528 16.7081C188.149 17.4911 187.903 18.8074 187.903 20.7827V52.3075C187.903 54.3306 188.145 55.7154 188.532 56.5703C188.934 57.3953 189.416 57.8446 189.937 58.0675C190.597 58.3507 191.417 58.5107 192.426 58.5107C193.435 58.5107 194.255 58.3507 194.916 58.0675L194.938 58.0587C195.508 57.8281 196.002 57.3752 196.393 56.5703C196.78 55.7154 197.023 54.3307 197.023 52.3075V20.7827C197.023 18.8077 196.778 17.4911 196.399 16.7081L196.393 16.6969L196.388 16.6847C195.988 15.8069 195.487 15.3429 194.938 15.1206L194.916 15.1117C194.255 14.8285 193.435 14.6685 192.426 14.6685Z" fill="#0F073A" stroke="#0F073A" stroke-width="2"/>
<path d="M226.501 8C228.825 8.00005 230.915 8.34483 232.747 9.06541L232.745 9.06653C234.722 9.76418 236.268 11.0811 237.37 12.9552C238.503 14.8835 239 17.6004 239 20.9619V50.1578C239 54.2118 238.509 57.4101 237.408 59.6184L237.401 59.6306C236.311 61.75 234.753 63.2381 232.703 63.9502L232.702 63.949C230.835 64.6566 228.737 65 226.426 65C224.103 65 222.013 64.6551 220.18 63.9346C218.181 63.2089 216.667 61.6811 215.594 59.5282C214.493 57.3215 214 54.1553 214 50.1578V20.9619C214 17.6089 214.494 14.8971 215.621 12.9697L215.833 12.6135C216.914 10.8646 218.373 9.62115 220.214 8.96299L220.224 8.95965C222.089 8.31218 224.187 8 226.501 8ZM226.426 14.6685C225.418 14.6685 224.597 14.8285 223.937 15.1117C223.437 15.3261 222.949 15.7865 222.538 16.6847L222.532 16.6969L222.528 16.7081C222.149 17.4911 221.903 18.8074 221.903 20.7827V52.3075C221.903 54.3306 222.145 55.7154 222.532 56.5703C222.934 57.3953 223.418 57.8446 223.937 58.0675C224.597 58.3507 225.418 58.5107 226.426 58.5107C227.436 58.5107 228.256 58.3507 228.916 58.0675L228.939 58.0587C229.508 57.8281 230.002 57.3752 230.393 56.5703C230.78 55.7154 231.023 54.3307 231.023 52.3075V20.7827C231.023 18.8077 230.778 17.4911 230.399 16.7081L230.393 16.6969L230.39 16.6847C229.988 15.8069 229.487 15.3429 228.939 15.1206L228.916 15.1117C228.256 14.8285 227.436 14.6685 226.426 14.6685Z" fill="#0F073A" stroke="#0F073A" stroke-width="2"/>
<path d="M270 8V15.1779H262.865V63H255.064V15.1779H248V8H270Z" fill="#0F073A" stroke="#0F073A" stroke-width="2"/>
</svg>
