<svg width="43" height="43" viewBox="0 0 43 43" fill="none" xmlns="http://www.w3.org/2000/svg">
  <mask id="mask0_avatar" style="mask-type:alpha" maskUnits="userSpaceOnUse" x="0" y="0" width="43" height="43">
    <circle cx="21.45" cy="21.45" r="20.95" fill="white" stroke="#DDDDDD" />
  </mask>

  <g mask="url(#mask0_avatar)">
    <path d="M2.06055 34.2676C8.93293 31.3499 14.0115 25.3245 15.7119 18.0371C16.2745 15.6262 15.2166 13.1282 13.0938 11.8545L12.5225 11.5117C10.3505 10.2086 7.63089 10.2363 5.48633 11.584C3.33543 12.9357 2.5126 15.6999 3.54688 18.0293C5.355 22.1006 5.37787 26.7974 3.56836 30.8721L2.06055 34.2676Z" fill="#D9D9D9" stroke="#BBBBBB" />
    <path d="M39.3652 34.2676C32.4928 31.3499 27.4143 25.3245 25.7139 18.0371C25.1513 15.6262 26.2091 13.1282 28.332 11.8545L28.9033 11.5117C31.0752 10.2086 33.7949 10.2363 35.9395 11.584C38.0903 12.9357 38.9132 15.6999 37.8789 18.0293C36.0708 22.1006 36.0479 26.7974 37.8574 30.8721L39.3652 34.2676Z" fill="#D9D9D9" stroke="#BBBBBB" />
    <rect x="7.79199" y="8.9165" width="26.2429" height="29.8753" rx="13.1215" fill="#F2F2F2" stroke="#BBBBBB" />

    <mask id="path-5-inside-1_avatar" fill="white">
      <path d="M20.6113 6.6001C28.301 6.60014 34.5352 12.8342 34.5352 20.5239V21.3257C34.5352 22.2282 34.4472 23.1107 34.2832 23.9653C29.1414 23.114 22.3182 21.3562 19.208 20.1177C19.9864 21.1383 20.3712 22.3411 18.8799 22.8394C14.9745 24.1439 11.1038 22.7077 7.69922 22.0005C7.36262 21.72 7.0243 21.4881 6.6875 21.2935V20.5239C6.6875 12.8342 12.9216 6.6001 20.6113 6.6001Z" />
    </mask>

    <path d="M20.6113 6.6001C28.301 6.60014 34.5352 12.8342 34.5352 20.5239V21.3257C34.5352 22.2282 34.4472 23.1107 34.2832 23.9653C29.1414 23.114 22.3182 21.3562 19.208 20.1177C19.9864 21.1383 20.3712 22.3411 18.8799 22.8394C14.9745 24.1439 11.1038 22.7077 7.69922 22.0005C7.36262 21.72 7.0243 21.4881 6.6875 21.2935V20.5239C6.6875 12.8342 12.9216 6.6001 20.6113 6.6001Z" fill="#E2E2E2" />

    <path d="M20.6113 6.6001L20.6113 5.6001H20.6113V6.6001ZM34.2832 23.9653L34.1199 24.9519L35.0816 25.1111L35.2653 24.1538L34.2832 23.9653ZM19.208 20.1177L19.578 19.1886L16.2228 17.8525L18.4129 20.7241L19.208 20.1177ZM18.8799 22.8394L19.1967 23.7878L19.1968 23.7878L18.8799 22.8394ZM7.69922 22.0005L7.05906 22.7687L7.2511 22.9287L7.49584 22.9796L7.69922 22.0005ZM6.6875 21.2935H5.6875V21.8705L6.18706 22.1592L6.6875 21.2935ZM20.6113 6.6001L20.6113 7.6001C27.7488 7.60013 33.5352 13.3865 33.5352 20.5239H34.5352H35.5352C35.5352 12.2819 28.8533 5.60014 20.6113 5.6001L20.6113 6.6001ZM34.5352 20.5239H33.5352V21.3257H34.5352H35.5352V20.5239H34.5352ZM34.5352 21.3257H33.5352C33.5352 22.1631 33.4536 22.9825 33.3011 23.7769L34.2832 23.9653L35.2653 24.1538C35.4409 23.2389 35.5352 22.2933 35.5352 21.3257H34.5352ZM34.2832 23.9653L34.4465 22.9788C29.3451 22.1342 22.598 20.3913 19.578 19.1886L19.208 20.1177L18.838 21.0467C22.0383 22.3212 28.9377 24.0939 34.1199 24.9519L34.2832 23.9653ZM19.208 20.1177L18.4129 20.7241C18.5768 20.9391 18.7038 21.1429 18.7873 21.3235C18.8731 21.5087 18.8943 21.6287 18.8952 21.6888C18.8955 21.7148 18.8921 21.7229 18.8931 21.7197C18.8946 21.715 18.8969 21.7128 18.8936 21.7169C18.886 21.7262 18.8149 21.8067 18.563 21.8909L18.8799 22.8394L19.1968 23.7878C19.6905 23.6229 20.1305 23.3662 20.4459 22.9779C20.7728 22.5756 20.9015 22.1105 20.895 21.66C20.8831 20.8359 20.4238 20.0628 20.0031 19.5112L19.208 20.1177ZM18.8799 22.8394L18.563 21.8909C16.8157 22.4746 15.0463 22.4569 13.2512 22.1856C11.3875 21.9039 9.73112 21.4012 7.9026 21.0214L7.69922 22.0005L7.49584 22.9796C9.07194 23.307 11.0532 23.876 12.9523 24.1631C14.9201 24.4605 17.0388 24.5087 19.1967 23.7878L18.8799 22.8394ZM7.69922 22.0005L8.33938 21.2322C7.9573 20.9139 7.57198 20.6497 7.18794 20.4277L6.6875 21.2935L6.18706 22.1592C6.47662 22.3266 6.76793 22.5261 7.05906 22.7687L7.69922 22.0005ZM6.6875 21.2935H7.6875V20.5239H6.6875H5.6875V21.2935H6.6875ZM6.6875 20.5239H7.6875C7.6875 13.3865 13.4739 7.6001 20.6113 7.6001V6.6001V5.6001C12.3693 5.6001 5.6875 12.2819 5.6875 20.5239H6.6875Z" fill="#BBBBBB" mask="url(#path-5-inside-1_avatar)" />

    <rect x="16.373" y="24.7622" width="1.8162" height="3.63239" rx="0.908098" fill="#8A8A8A" />
    <rect x="23.6377" y="24.7622" width="1.8162" height="3.63239" rx="0.908098" fill="#8A8A8A" />
    <path d="M18.1895 32.0269C19.5516 33.8431 22.2759 33.8431 23.638 32.0269" stroke="#8A8A8A" stroke-linecap="round" stroke-linejoin="round" />
  </g>
</svg>