<svg width="128" height="39" viewBox="0 0 128 39" fill="none" xmlns="http://www.w3.org/2000/svg">
<path fill-rule="evenodd" clip-rule="evenodd" d="M10.0575 21.3503L11.9916 22.3627C12.3244 22.5369 12.4908 22.624 12.5188 22.822C12.5468 23.02 12.4255 23.2518 12.183 23.7151L7.62464 32.4236C6.70821 34.1744 6.2499 35.05 6.48242 35.2799C6.71508 35.5099 7.39487 34.8536 8.75486 33.5412L18.6815 23.9615C20.8319 21.8862 21.907 20.8486 21.9657 19.7232C22.0243 18.5981 21.0302 18.0777 19.0418 17.037L17.1077 16.0246C16.775 15.8504 16.6085 15.7633 16.5805 15.5653C16.5525 15.3673 16.6738 15.1355 16.9164 14.6722L21.4747 5.96374C22.3912 4.21282 22.8494 3.33736 22.6169 3.10742C22.3843 2.87743 21.7044 3.53369 20.3445 4.84607L10.418 14.4256C8.26744 16.5011 7.19226 17.5387 7.13362 18.664C7.07508 19.7892 8.06921 20.3096 10.0575 21.3503Z" fill="#2A197D"/>
<path d="M118.254 27.5939V14.8259H114.15V10.7939H127.014V14.8259H122.91V27.5939H118.254Z" fill="#2A197D"/>
<path d="M98.7969 24.3299V14.0579L102.061 10.7939H109.933L113.197 14.0579V24.3299L109.933 27.5939H102.061L98.7969 24.3299ZM103.645 14.8259V23.5619H108.349V14.8259H103.645Z" fill="#2A197D"/>
<path d="M82.9648 24.3299V14.0579L86.2288 10.7939H94.1008L97.3648 14.0579V24.3299L94.1008 27.5939H86.2288L82.9648 24.3299ZM87.8128 14.8259V23.5619H92.5168V14.8259H87.8128Z" fill="#2A197D"/>
<path d="M72.447 17.4899H76.671V14.4419H72.447V17.4899ZM72.447 23.9459H77.055V20.5619H72.447V23.9459ZM81.423 13.8659V17.5379L79.911 18.7619L81.903 20.3939V24.5219L78.831 27.5939H67.791V10.7939H78.351L81.423 13.8659Z" fill="#2A197D"/>
<path d="M59.8672 27.5938V23.2738H64.1392V27.5938H59.8672ZM59.8672 18.9538V14.6338H64.1392V18.9538H59.8672Z" fill="#2A197D"/>
<path d="M44.4141 27.5939V10.7939H56.3181V14.6339H49.0701V17.2259H55.1181V20.8739H49.0701V23.7539H56.5581V27.5939H44.4141Z" fill="#2A197D"/>
<path d="M33.7537 19.5299H38.3137V14.4419H33.7537V19.5299ZM42.9697 14.0579V19.7699L40.9297 21.8099L43.8097 27.5939H38.5777L36.6337 23.1779H33.7537V27.5939H29.0977V10.7939H39.7057L42.9697 14.0579Z" fill="#2A197D"/>
</svg>
