<svg width="140" height="140" viewBox="0 0 140 140" fill="none" xmlns="http://www.w3.org/2000/svg">
<path d="M105.084 51.7892C73.1497 44.7945 99.3281 0.548547 55.5734 4.21552C11.8187 7.88249 -29.6722 108.538 48.0061 132.107C125.684 155.676 165.72 65.0679 105.084 51.7892Z" fill="#A49CEF"/>
<path d="M20 47C20 46.4477 20.4477 46 21 46H69C69.5523 46 70 46.4477 70 47V99C70 103.418 66.4183 107 62 107H21C20.4477 107 20 106.552 20 106V47Z" fill="#6051D0"/>
<path d="M27 54C27 53.4477 27.4477 53 28 53H62C62.5523 53 63 53.4477 63 54V92C63 96.4183 59.4183 100 55 100H28C27.4477 100 27 99.5523 27 99V54Z" fill="#452CC0"/>
<path d="M120 47C120 46.4477 119.552 46 119 46H71C70.4477 46 70 46.4477 70 47V99C70 103.418 73.5817 107 78 107H119C119.552 107 120 106.552 120 106V47Z" fill="#6051D0"/>
<path d="M113 54C113 53.4477 112.552 53 112 53H78C77.4477 53 77 53.4477 77 54V92C77 96.4183 80.5817 100 85 100H112C112.552 100 113 99.5523 113 99V54Z" fill="#452CC0"/>
<path d="M26 42.9618C26 42.486 26.3288 42.0781 26.7964 41.9903C29.7717 41.4319 40.45 39.5703 48 40.0909C59.9926 40.9178 67.5281 44.3147 69.4888 45.298C69.8104 45.4594 70 45.7882 70 46.148V99.4571C70 100.182 69.2497 100.677 68.576 100.41C65.3367 99.1259 56.9971 96.1454 48 95.525C40.7569 95.0256 30.6347 96.7187 27.1967 97.3501C26.5751 97.4643 26 96.9873 26 96.3553V42.9618Z" fill="#DCDAF9"/>
<path d="M114 42.9618C114 42.486 113.671 42.0781 113.204 41.9903C110.228 41.4319 99.55 39.5703 92 40.0909C80.0074 40.9178 72.4719 44.3147 70.5112 45.298C70.1896 45.4594 70 45.7882 70 46.148V99.4571C70 100.182 70.7503 100.677 71.424 100.41C74.6633 99.1259 83.0029 96.1454 92 95.525C99.2431 95.0256 109.365 96.7187 112.803 97.3501C113.425 97.4643 114 96.9873 114 96.3553V42.9618Z" fill="#DCDAF9"/>
<path d="M32 35.4351C32 34.9326 32.3721 34.5097 32.8718 34.4567C35.9176 34.1339 46.2766 33.257 53.2316 35.37C64.613 38.8279 69.0275 44.5443 69.8523 45.7454C69.9542 45.8938 70 46.0661 70 46.2461V101.37C70 101.37 62.2922 91.9775 52.5 89.9551C43.8675 88.1723 36.1587 89.1877 33.2404 89.7074C32.6041 89.8207 32 89.3341 32 88.6878V35.4351Z" fill="#F9F7FC"/>
<path d="M108 35.4351C108 34.9326 107.628 34.5097 107.128 34.4567C104.082 34.1339 93.7234 33.257 86.7684 35.37C75.387 38.8279 70.9725 44.5443 70.1477 45.7454C70.0458 45.8938 70 46.0661 70 46.2461V101.37C70 101.37 77.7078 91.9775 87.5 89.9551C96.1325 88.1723 103.841 89.1877 106.76 89.7074C107.396 89.8207 108 89.3341 108 88.6878V35.4351Z" fill="white"/>
<path d="M41.9998 44C47.4998 44.0004 54.9023 45.4156 61.7023 51.0156" stroke="#F7C34B" stroke-width="3" stroke-linecap="round"/>
<path d="M41.9998 54.5C47.4998 54.5004 54.9023 55.9156 61.7023 61.5156" stroke="#F7C34B" stroke-width="3" stroke-linecap="round"/>
<path d="M41.9998 64.5C47.4998 64.5004 54.9023 65.9156 61.7023 71.5156" stroke="#F7C34B" stroke-width="3" stroke-linecap="round"/>
<path d="M41.9998 75C47.4998 75.0004 54.9023 76.4156 61.7023 82.0156" stroke="#F7C34B" stroke-width="3" stroke-linecap="round"/>
</svg>
