<svg viewBox="0 0 54 54" fill="none" xmlns="http://www.w3.org/2000/svg">
<circle cx="27" cy="27" r="21.5" fill="white" stroke="#DDDDDD"/>
<mask id="mask0_20848_40941" style="mask-type:alpha" maskUnits="userSpaceOnUse" x="6" y="6" width="43" height="43">
<circle cx="27.5501" cy="27.5501" r="20.95" fill="white" stroke="#DDDDDD"/>
</mask>
<g mask="url(#mask0_20848_40941)">
<path d="M39.2832 29.9624C39.2833 39.9222 42.1675 60.945 46.083 62.9136L24.6123 62.7261H6.12891C10.2187 60.8226 14.0741 39.9322 14.0742 29.9624V27.2329H39.2256L39.2832 29.9624Z" fill="#E2E2E2"/>
<path d="M39.2832 29.9624L39.7833 29.9624L39.7831 29.9519L39.2832 29.9624ZM46.083 62.9136L46.0786 63.4136L46.3076 62.4669L46.083 62.9136ZM24.6123 62.7261L24.6167 62.2261H24.6123V62.7261ZM6.12891 62.7261L5.91793 62.2728L6.12891 63.2261V62.7261ZM14.0742 29.9624L14.5742 29.9624V29.9624H14.0742ZM14.0742 27.2329V26.7329H13.5742V27.2329H14.0742ZM39.2256 27.2329L39.7255 27.2224L39.7151 26.7329H39.2256V27.2329ZM39.2832 29.9624L38.7832 29.9624C38.7832 34.9773 39.508 42.7529 40.7227 49.523C41.33 52.9079 42.0629 56.0593 42.8955 58.4967C43.3116 59.7145 43.7577 60.7698 44.234 61.5917C44.702 62.3993 45.2363 63.0475 45.8584 63.3603L46.083 62.9136L46.3076 62.4669C45.9509 62.2875 45.5384 61.8481 45.0993 61.0903C44.6684 60.3468 44.2468 59.359 43.8418 58.1734C43.0325 55.8041 42.3101 52.7083 41.707 49.3464C40.5006 42.623 39.7832 34.9074 39.7832 29.9624L39.2832 29.9624ZM46.083 62.9136L46.0874 62.4136L24.6167 62.2261L24.6123 62.7261L24.6079 63.2261L46.0786 63.4136L46.083 62.9136ZM24.6123 62.7261V62.2261H6.12891V62.7261V63.2261H24.6123V62.7261ZM6.12891 62.7261L6.33989 63.1794C6.98099 62.881 7.55209 62.2491 8.06512 61.451C8.58637 60.6402 9.08634 59.596 9.56106 58.3887C10.5111 55.9724 11.3832 52.8428 12.1235 49.4765C13.6038 42.7462 14.5742 34.9937 14.5742 29.9624L14.0742 29.9624L13.5742 29.9624C13.5742 34.9009 12.6168 42.5786 11.1469 49.2617C10.4122 52.6022 9.5535 55.6752 8.63042 58.0228C8.16857 59.1973 7.69635 60.1754 7.22394 60.9103C6.74331 61.658 6.29927 62.0953 5.91793 62.2728L6.12891 62.7261ZM14.0742 29.9624H14.5742V27.2329H14.0742H13.5742V29.9624H14.0742ZM14.0742 27.2329V27.7329H39.2256V27.2329V26.7329H14.0742V27.2329ZM39.2256 27.2329L38.7257 27.2435L38.7833 29.973L39.2832 29.9624L39.7831 29.9519L39.7255 27.2224L39.2256 27.2329Z" fill="#BBBBBB"/>
<rect x="13.8921" y="15.0166" width="26.2429" height="29.8753" rx="13.1215" fill="#F2F2F2" stroke="#BBBBBB"/>
<mask id="path-6-inside-1_20848_40941" fill="white">
<path d="M26.8174 12.7002C34.4484 12.7002 40.6348 18.8865 40.6348 26.5176V27.5322C40.6348 28.1598 40.5918 28.7774 40.5107 29.3828C39.4427 29.3036 38.3896 29.0978 37.3711 28.7549C35.14 28.0037 33.3407 26.6857 32.0381 24.9951C30.2526 26.6146 27.8925 27.9984 25.1006 28.9385C20.9543 30.3344 16.67 30.4783 13.1514 29.585C13.0516 28.9152 13 28.2297 13 27.5322V26.5176C13 18.8866 19.1864 12.7002 26.8174 12.7002Z"/>
</mask>
<path d="M26.8174 12.7002C34.4484 12.7002 40.6348 18.8865 40.6348 26.5176V27.5322C40.6348 28.1598 40.5918 28.7774 40.5107 29.3828C39.4427 29.3036 38.3896 29.0978 37.3711 28.7549C35.14 28.0037 33.3407 26.6857 32.0381 24.9951C30.2526 26.6146 27.8925 27.9984 25.1006 28.9385C20.9543 30.3344 16.67 30.4783 13.1514 29.585C13.0516 28.9152 13 28.2297 13 27.5322V26.5176C13 18.8866 19.1864 12.7002 26.8174 12.7002Z" fill="#E2E2E2"/>
<path d="M26.8174 12.7002V11.7002H26.8174L26.8174 12.7002ZM40.6348 27.5322L41.6348 27.5322V27.5322H40.6348ZM40.5107 29.3828L40.4368 30.3801L41.3768 30.4498L41.5019 29.5155L40.5107 29.3828ZM37.3711 28.7549L37.052 29.7026L37.0521 29.7026L37.3711 28.7549ZM32.0381 24.9951L32.8302 24.3848L32.1689 23.5264L31.3663 24.2544L32.0381 24.9951ZM25.1006 28.9385L25.4197 29.8862L25.4197 29.8862L25.1006 28.9385ZM13.1514 29.585L12.1623 29.7323L12.2603 30.3905L12.9053 30.5542L13.1514 29.585ZM13 27.5322H12V27.5322L13 27.5322ZM26.8174 12.7002V13.7002C33.8961 13.7002 39.6348 19.4388 39.6348 26.5176H40.6348H41.6348C41.6348 18.3342 35.0007 11.7002 26.8174 11.7002V12.7002ZM40.6348 26.5176H39.6348V27.5322H40.6348H41.6348V26.5176H40.6348ZM40.6348 27.5322L39.6348 27.5322C39.6348 28.1141 39.5949 28.6874 39.5196 29.2501L40.5107 29.3828L41.5019 29.5155C41.5886 28.8675 41.6348 28.2055 41.6348 27.5322L40.6348 27.5322ZM40.5107 29.3828L40.5847 28.3855C39.596 28.3123 38.6255 28.122 37.6901 27.8071L37.3711 28.7549L37.0521 29.7026C38.1537 30.0735 39.2895 30.295 40.4368 30.3801L40.5107 29.3828ZM37.3711 28.7549L37.6902 27.8072C35.6456 27.1188 34.0113 25.9176 32.8302 24.3848L32.0381 24.9951L31.246 25.6055C32.6701 27.4538 34.6344 28.8887 37.052 29.7026L37.3711 28.7549ZM32.0381 24.9951L31.3663 24.2544C29.6931 25.772 27.4566 27.09 24.7815 27.9908L25.1006 28.9385L25.4197 29.8862C28.3284 28.9068 30.8121 27.4571 32.7099 25.7358L32.0381 24.9951ZM25.1006 28.9385L24.7815 27.9907C20.8034 29.3301 16.7156 29.4581 13.3974 28.6157L13.1514 29.585L12.9053 30.5542C16.6245 31.4984 21.1052 31.3388 25.4197 29.8862L25.1006 28.9385ZM13.1514 29.585L14.1405 29.4376C14.048 28.8166 14 28.1803 14 27.5322L13 27.5322L12 27.5322C12 28.2791 12.0553 29.0139 12.1623 29.7323L13.1514 29.585ZM13 27.5322H14V26.5176H13H12V27.5322H13ZM13 26.5176H14C14 19.4389 19.7387 13.7002 26.8174 13.7002L26.8174 12.7002L26.8174 11.7002C18.6341 11.7002 12 18.3343 12 26.5176H13Z" fill="#BBBBBB" mask="url(#path-6-inside-1_20848_40941)"/>
<rect x="22.4727" y="30.8618" width="1.8162" height="3.63239" rx="0.908098" fill="#8A8A8A"/>
<rect x="29.7378" y="30.8618" width="1.8162" height="3.63239" rx="0.908098" fill="#8A8A8A"/>
<path d="M24.2891 38.1265C25.6512 39.9427 28.3755 39.9427 29.7377 38.1265" stroke="#8A8A8A" stroke-linecap="round" stroke-linejoin="round"/>
<path d="M20.6567 48.5698L21.5648 57.6508L26.1053 52.6975" stroke="#CCCCCC" stroke-linecap="round" stroke-linejoin="round"/>
<path d="M33.3701 48.5698L32.462 57.6508L27.9215 52.6975" stroke="#CCCCCC" stroke-linecap="round" stroke-linejoin="round"/>
</g>
</svg>
