<svg width="660" height="524" viewBox="0 0 660 524" fill="none" xmlns="http://www.w3.org/2000/svg">
<g clip-path="url(#clip0_22911_64839)">
<path d="M404.465 193.057H387.915V170.847C387.915 166.304 384.231 162.621 379.688 162.621H312.543C308 162.621 304.316 166.304 304.316 170.847V193.057C286.903 192.187 267.101 192.373 265.928 214.897V446.723C265.928 458.783 275.706 468.561 287.765 468.561H404.465C416.525 468.561 426.303 458.783 426.303 446.723V214.895C426.303 202.835 416.525 193.057 404.465 193.057Z" fill="#E6F7F1"/>
<path d="M409.038 446.959H283.194V395.851H409.038V446.959Z" fill="#00A876"/>
<path d="M409.038 386.693H283.194V335.585H409.038V386.693Z" fill="#5FC8A6"/>
<path d="M409.038 326.425H283.194V275.316H409.038V326.425Z" fill="#86D9C2"/>
<path d="M409.038 266.16H283.194V215.052H409.038V266.16Z" fill="#A6E5D1"/>
<path d="M411.063 300.338H393.724C389.485 300.338 386.05 296.903 386.05 292.664V244.05C386.05 239.813 389.485 236.378 393.724 236.378C409.86 235.896 429.62 234.479 430.771 256.086C430.44 272.71 435.523 299.507 411.063 300.338Z" fill="#7566E5"/>
<path d="M408.867 300.338H379.494C375.255 300.338 371.82 296.903 371.82 292.664V244.05C371.82 239.813 375.255 236.378 379.494 236.378H408.867C413.106 236.378 416.541 239.813 416.541 244.05V292.664C416.541 296.903 413.106 300.338 408.867 300.338Z" fill="#38385D"/>
<path d="M396.239 259.791H362.087C357.754 259.752 358.915 254.276 358.784 251.491C358.784 249.667 360.264 248.187 362.087 248.187H396.239V259.791Z" fill="#A49CEF"/>
<path d="M396.239 288.529H362.087C357.753 288.49 358.914 283.014 358.783 280.229C358.783 278.403 360.263 276.925 362.087 276.925H396.239V288.529Z" fill="#A49CEF"/>
<path d="M665.454 450.468C634.591 449.066 583.406 459.237 564.715 426.455L474.8 293.341C465.454 278.292 447.161 275.19 430.771 276.481V260.237C452.739 258.393 475.84 264.809 488.259 284.25L578.174 417.364C592.026 442.571 638.864 432.285 661.7 434.224L665.454 450.468Z" fill="#7566E5"/>
<mask id="mask0_22911_64839" style="mask-type:luminance" maskUnits="userSpaceOnUse" x="430" y="259" width="236" height="192">
<path d="M665.454 450.468C658.904 450.169 651.437 450.394 643.559 450.617C614.325 451.447 579.437 452.278 564.715 426.455L474.8 293.341C465.454 278.292 447.161 275.19 430.771 276.481V260.237C452.739 258.393 475.84 264.809 488.259 284.25L578.174 417.364C588.479 436.113 617.032 435.224 640.381 434.339C648.424 434.032 655.85 433.726 661.7 434.224L665.454 450.468Z" fill="white"/>
</mask>
<g mask="url(#mask0_22911_64839)">
<path d="M438.23 255.945L441.72 286.374L422.091 282.701C422.091 282.701 422.691 255.4 423.262 255.945C423.836 256.49 438.23 255.945 438.23 255.945Z" fill="#1A1A35"/>
</g>
<path d="M559.208 441.446C561.571 445.785 562.504 456.883 570.618 457.714C576.322 457.714 576.558 455.919 576.558 455.919L574.708 441.446H559.208Z" fill="#FFB6A6"/>
<mask id="mask1_22911_64839" style="mask-type:luminance" maskUnits="userSpaceOnUse" x="559" y="441" width="18" height="17">
<path d="M559.208 441.447C561.571 445.786 562.504 456.884 570.618 457.715C576.322 457.715 576.558 455.92 576.558 455.92L574.708 441.447H559.208Z" fill="white"/>
</mask>
<g mask="url(#mask1_22911_64839)">
<path d="M578.861 448.97C578.861 448.97 564.464 446.965 560.636 443.342L560.455 439.86L579.13 440.274L578.861 448.97Z" fill="#FF8370"/>
</g>
<path d="M576.558 455.919C576.558 455.919 564.72 459.016 562.266 448.968L538.311 460.562C535.34 461.987 533.642 465.251 534.085 468.561L574.718 468.537C576.717 468.508 578.227 466.679 577.915 464.665L576.558 455.919Z" fill="#1A1A35"/>
<path d="M569.696 293.76C570.097 331.409 573.922 406.957 577.323 444.446H556.151C547.869 407.651 534.184 332.942 528.706 295.575L569.696 293.76Z" fill="#38385D"/>
<path d="M527.092 441.446C529.458 445.785 530.388 456.883 538.502 457.714C544.206 457.714 544.442 455.919 544.442 455.919L542.592 441.446H527.092Z" fill="#FFB6A6"/>
<mask id="mask2_22911_64839" style="mask-type:luminance" maskUnits="userSpaceOnUse" x="527" y="441" width="18" height="17">
<path d="M527.092 441.447C529.456 445.786 530.388 456.884 538.502 457.715C544.206 457.715 544.442 455.92 544.442 455.92L542.592 441.447H527.092Z" fill="white"/>
</mask>
<g mask="url(#mask2_22911_64839)">
<path d="M546.745 448.97C546.745 448.97 532.348 446.965 528.52 443.342L528.339 439.86L547.015 440.274L546.745 448.97Z" fill="#FF8370"/>
</g>
<path d="M544.442 455.919C544.442 455.919 532.605 459.016 530.15 448.968L506.195 460.562C503.224 461.987 501.526 465.251 501.972 468.561L542.603 468.537C544.602 468.508 546.111 466.679 545.799 464.665L544.442 455.919Z" fill="#38385C"/>
<path d="M513.984 295.028C504.175 380.888 501.11 359.446 522.913 443.655H546.86L537.994 366.051C537.994 366.051 556.193 295.84 554.571 295.028C552.946 294.216 513.984 295.028 513.984 295.028Z" fill="#38385D"/>
<path d="M539.391 360.63L553.015 315.72C553.015 315.72 557.539 362.39 541.99 375.509L539.391 360.63Z" fill="#1A1A35"/>
<path d="M503.887 192.2L500.266 212.906C499.614 216.64 502.438 220.087 506.164 220.098L516.424 220.135L519.57 229.263L533.569 224.851L519.947 189.994L503.887 192.2Z" fill="#FFB6A6"/>
<mask id="mask3_22911_64839" style="mask-type:luminance" maskUnits="userSpaceOnUse" x="500" y="189" width="34" height="41">
<path d="M503.887 192.2L500.266 212.906C499.614 216.64 502.438 220.087 506.164 220.098L516.424 220.135L519.57 229.263L533.569 224.851L519.947 189.994L503.887 192.2Z" fill="white"/>
</mask>
<g mask="url(#mask3_22911_64839)">
<path d="M516.423 220.135C516.423 220.135 518.367 220.347 519.58 216.697C519.58 216.697 523.021 220.973 517.605 223.881L516.423 220.135Z" fill="#FF8370"/>
</g>
<mask id="mask4_22911_64839" style="mask-type:luminance" maskUnits="userSpaceOnUse" x="500" y="189" width="34" height="41">
<path d="M503.887 192.2L500.266 212.906C499.614 216.64 502.438 220.087 506.164 220.098L516.424 220.135L519.57 229.263L533.569 224.851L519.947 189.994L503.887 192.2Z" fill="white"/>
</mask>
<g mask="url(#mask4_22911_64839)">
<path d="M502.129 194.165C502.087 198.818 499.485 202.117 509.342 205.07L507.437 194.522L502.129 194.165Z" fill="#FF8370"/>
</g>
<path d="M555.96 238.168C550.497 225.985 537.255 219.281 524.182 221.998C516.426 223.611 508.43 226.127 505.823 229.878C500.266 237.877 508.54 316.91 508.54 316.91C508.54 316.91 549.378 320.735 573.375 312.403C573.375 312.403 566.94 262.66 555.96 238.168Z" fill="#E65217"/>
<mask id="mask5_22911_64839" style="mask-type:luminance" maskUnits="userSpaceOnUse" x="503" y="221" width="71" height="97">
<path d="M555.96 238.168C550.497 225.985 537.255 219.281 524.182 221.998C516.426 223.611 508.43 226.127 505.823 229.878C500.266 237.877 508.54 316.91 508.54 316.91C508.54 316.91 549.378 320.735 573.375 312.403C573.375 312.403 566.94 262.66 555.96 238.168Z" fill="white"/>
</mask>
<g mask="url(#mask5_22911_64839)">
<path d="M523.265 259.875C523.265 259.875 526.403 293.076 505.847 298.007L502.779 273.345L523.265 259.875Z" fill="#DF4930"/>
</g>
<path d="M506.26 229.192L478.174 261.109L500.344 282.7C500.344 282.7 523.196 260.451 523.264 259.875C525.3 242.732 506.26 229.192 506.26 229.192Z" fill="#E65217"/>
<path d="M506.475 195.506C506.475 195.506 507.012 202.559 508.951 204.873C509.2 205.169 511.728 205.659 511.728 205.659C511.728 205.659 511.605 201.187 512.784 201.187C513.963 201.187 516.45 203.421 516.387 204.603C516.324 205.782 514.959 208.701 514.338 208.764C513.717 208.824 518.933 214.352 520.175 214.415C521.417 214.475 529.018 213.21 529.018 213.21C530.024 202.012 536.951 186.504 518.498 181.005C515.268 180.696 496.577 185.414 493.286 183.488C493.286 183.488 493.459 197.652 506.475 195.506Z" fill="#38385D"/>
<path d="M479.924 262.761L472.573 271.434L423.39 267.758C420.432 264.035 413.41 256.932 417.723 266.938C417.642 267.346 413.23 270.37 412.737 270.289C412.247 270.208 404.649 268.573 404.484 269.555C404.322 270.535 405.467 277.072 406.936 277.889C408.406 278.707 413.882 280.014 414.943 280.014C415.766 280.014 421.082 279.184 423.45 278.806C427.414 279.75 472.827 296.512 475.795 295.32C485.34 296.007 492.579 287.02 498.469 280.821L479.924 262.761Z" fill="#FFB6A6"/>
<mask id="mask6_22911_64839" style="mask-type:luminance" maskUnits="userSpaceOnUse" x="404" y="261" width="95" height="35">
<path d="M479.924 262.763L472.573 271.436L423.39 267.76C420.432 264.034 413.41 256.934 417.723 266.942C417.642 267.348 413.227 270.372 412.737 270.291C412.247 270.209 404.649 268.575 404.484 269.557C404.322 270.537 405.467 277.074 406.936 277.891C408.406 278.709 413.882 280.016 414.943 280.016C415.766 280.016 421.082 279.186 423.45 278.808C427.414 279.751 472.827 296.514 475.795 295.322C485.34 296.009 492.579 287.022 498.469 280.823L479.924 262.763Z" fill="white"/>
</mask>
<g mask="url(#mask6_22911_64839)">
<path d="M476.23 263.814L491.457 291.452L501.356 280.26L481.483 259.627L476.23 263.814Z" fill="#FF8370"/>
</g>
<path d="M152.697 178.862C143.453 170.929 132.971 184.652 126.669 196.196C121.294 205.256 114.153 213.113 105.847 219.595C98.7371 225.142 92.9653 233.397 103.722 242.143C115.826 251.981 138.019 248.68 152.682 244.931C161.725 242.62 160.665 234.765 161.394 225.459C162.735 208.321 169.574 182.176 152.697 178.862Z" fill="#38385C"/>
<path d="M161.394 199.444C157.86 166.184 125.353 187.683 139.561 211.09L136.163 227.811L148.778 230.022L150.441 216.359C156.622 215.259 161.394 208.106 161.394 199.444Z" fill="#FFB6A6"/>
<mask id="mask7_22911_64839" style="mask-type:luminance" maskUnits="userSpaceOnUse" x="135" y="182" width="27" height="49">
<path d="M161.394 199.444C157.86 166.184 125.353 187.683 139.561 211.09L136.163 227.811L148.778 230.022L150.441 216.359C156.622 215.259 161.394 208.106 161.394 199.444Z" fill="white"/>
</mask>
<g mask="url(#mask7_22911_64839)">
<path d="M134.258 200.744C134.258 200.744 143.619 198.334 146.707 195.701L143.589 198.79C143.589 198.79 153.194 196.513 155.316 190.639C155.316 190.639 159.114 195.397 159.468 199.348C160.085 194.516 162.316 184.188 153.088 182.891L135.111 197.312L134.258 200.744Z" fill="#FF8370"/>
</g>
<mask id="mask8_22911_64839" style="mask-type:luminance" maskUnits="userSpaceOnUse" x="135" y="182" width="27" height="49">
<path d="M161.394 199.444C157.86 166.184 125.353 187.683 139.561 211.09L136.163 227.811L148.778 230.022L150.441 216.359C156.622 215.259 161.394 208.106 161.394 199.444Z" fill="white"/>
</mask>
<g mask="url(#mask8_22911_64839)">
<path d="M139.561 211.09C139.561 211.09 142.727 215.382 148.778 216.202C148.778 216.202 141.893 218.154 137.478 215.895L139.561 211.09Z" fill="#FF8370"/>
</g>
<mask id="mask9_22911_64839" style="mask-type:luminance" maskUnits="userSpaceOnUse" x="135" y="182" width="27" height="49">
<path d="M161.394 199.444C157.86 166.184 125.353 187.683 139.561 211.09L136.163 227.811L148.778 230.022L150.441 216.359C156.622 215.259 161.394 208.106 161.394 199.444Z" fill="white"/>
</mask>
<g mask="url(#mask9_22911_64839)">
<path d="M153.419 210.019C153.419 210.019 149.207 209.767 147.71 207.525C147.71 207.525 148.369 211.549 150.839 211.929C153.202 212.29 153.419 210.019 153.419 210.019Z" fill="white"/>
</g>
<path d="M151.015 180.94C151.015 180.94 151.643 198.074 136.163 198.522C136.163 198.522 135.569 178.621 151.015 180.94Z" fill="#38385C"/>
<path d="M150.5 182.535C150.5 182.535 150.907 193.258 146.389 197.312C146.389 197.312 154.586 192.994 153.278 183.494C153.278 183.494 152.884 182.506 150.5 182.535Z" fill="#38385C"/>
<path d="M151.975 182.33C151.975 182.33 158.74 191.419 159.148 197.312C159.148 197.312 159.392 187.861 156.458 182.535L151.975 182.33Z" fill="#38385C"/>
<path d="M153.419 292.297C153.419 292.297 166.043 250.555 165.601 240.151C165.159 229.744 150.291 221.539 150.291 221.539L137.675 219.327C137.675 219.327 112.818 219.725 111.039 235.018C108.507 256.796 105.135 292.297 105.135 292.297H153.419Z" fill="#E65217"/>
<mask id="mask10_22911_64839" style="mask-type:luminance" maskUnits="userSpaceOnUse" x="105" y="219" width="61" height="74">
<path d="M153.419 292.298C153.419 292.298 166.043 250.556 165.601 240.152C165.159 229.745 150.291 221.54 150.291 221.54L137.675 219.328C137.675 219.328 112.818 219.726 111.039 235.019C108.507 256.797 105.135 292.298 105.135 292.298H153.419Z" fill="white"/>
</mask>
<g mask="url(#mask10_22911_64839)">
<path d="M164.269 267.976C164.269 267.976 122.412 283.984 100.676 283.691V295.292H157.19L164.269 267.976Z" fill="#DF4930"/>
</g>
<path d="M113.089 229.315L97.7754 249.746L116.316 261.924C134.492 238.784 143.724 243.162 113.089 229.315Z" fill="#E65217"/>
<path d="M161.519 457.072C161.519 457.072 169.628 460.635 174.306 451.554L195.245 460.84C198.236 462.257 200.017 465.401 199.694 468.694C199.626 468.692 163.159 468.204 163.109 468.202C161.815 468.152 160.305 467.253 159.663 466.08C158.669 464.861 161.402 458.403 161.519 457.072Z" fill="#38385C"/>
<path d="M172.854 441.439L173.576 452.828C173.576 452.828 169.18 460.091 161.519 457.072L158.935 442.563L172.854 441.439Z" fill="#FFB6A6"/>
<mask id="mask11_22911_64839" style="mask-type:luminance" maskUnits="userSpaceOnUse" x="158" y="441" width="16" height="17">
<path d="M172.854 441.438L173.576 452.827C173.576 452.827 169.18 460.09 161.519 457.071L158.935 442.562L172.854 441.438Z" fill="white"/>
</mask>
<g mask="url(#mask11_22911_64839)">
<path d="M175.122 444.756L158.709 449.445C158.709 449.445 156.532 440.003 157.369 439.531C158.207 439.06 173.576 439.531 173.576 439.531L175.122 444.756Z" fill="#FF8370"/>
</g>
<path d="M77.4395 440.821C77.4395 440.821 82.4914 447.599 90.4436 442.089L103.452 459.661C105.268 462.25 105.309 465.732 103.554 468.37L73.7652 451.002C72.7172 450.392 71.8639 448.93 71.839 447.646C71.5361 446.105 76.7001 441.926 77.4395 440.821Z" fill="#38385C"/>
<path d="M93.8268 432.86L89.2688 442.827C89.2688 442.827 83.3274 447.126 77.4395 440.82L81.8793 427.348L93.8268 432.86Z" fill="#FFB6A6"/>
<mask id="mask12_22911_64839" style="mask-type:luminance" maskUnits="userSpaceOnUse" x="77" y="427" width="17" height="18">
<path d="M93.8268 432.861L89.2688 442.828C89.2688 442.828 83.3276 447.127 77.4395 440.821L81.8793 427.349L93.8268 432.861Z" fill="white"/>
</mask>
<g mask="url(#mask12_22911_64839)">
<path d="M93.4903 439.505L77.8804 435.853C77.8804 435.853 80.3626 426.858 81.2638 426.848C82.1651 426.837 94.5829 434.37 94.5829 434.37L93.4903 439.505Z" fill="#FF8370"/>
</g>
<path d="M173.576 357.52C173.082 354.339 152.371 292.298 152.371 292.298C138.529 292.298 120.786 292.298 106.935 292.298C94.9046 313.423 102.576 323.266 104.338 361.138L77.8804 430.647L96.9791 438.213C111.027 411.311 133.032 381.053 136.088 343.802L146.315 365.325L152.965 443.679L176.383 441.439C176.383 441.439 174.071 360.701 173.576 357.52Z" fill="#38385C"/>
<path d="M136.088 343.801L140.361 316.713L146.315 365.324L136.088 343.801Z" fill="#1A1A35"/>
<path d="M165.601 240.151L170.927 267.069L159.811 269.613C159.811 269.613 166.043 244.487 165.601 240.151Z" fill="#DF4930"/>
<path d="M108.658 256.893L116.316 261.923L131.281 244.54C131.281 244.54 120.35 272.055 117.113 272.809C113.875 273.567 107.222 270.981 107.222 270.981L108.658 256.893Z" fill="#DF4930"/>
<path d="M169.555 267.384L172.029 277.764L215.86 274.599L217.966 284.283L167.904 292.978C161.027 294.38 154.667 287.337 156.74 280.641L159.811 269.613L169.555 267.384Z" fill="#FFB6A6"/>
<mask id="mask13_22911_64839" style="mask-type:luminance" maskUnits="userSpaceOnUse" x="156" y="267" width="62" height="27">
<path d="M169.555 267.384L172.029 277.764L215.86 274.599L217.966 284.283L167.904 292.978C161.027 294.38 154.667 287.337 156.74 280.641L159.811 269.613L169.555 267.384Z" fill="white"/>
</mask>
<g mask="url(#mask13_22911_64839)">
<path d="M173.317 270.14C173.317 270.14 159.386 280.151 153.442 280.253L151.492 269.613L171.645 264.847L173.317 270.14Z" fill="#FF8370"/>
</g>
<path d="M-1.18359 411.995C6.85142 408.788 14.3582 404.229 20.8802 398.56L90.5934 337.957C120.083 306.716 234.344 290.584 273.523 277.479L269.509 261.741C225.409 276.177 113.348 291.098 79.9366 325.695C74.8915 329.628 6.04394 391.143 1.76443 392.453L-1.18359 411.995Z" fill="#7566E5"/>
<path d="M277.713 307.598L294.695 311.093C298.845 311.947 302.904 309.277 303.761 305.124L313.565 257.509C314.419 253.359 311.746 249.3 307.596 248.446C291.887 244.72 272.818 239.347 267.335 260.278C264.306 276.627 253.92 301.85 277.713 307.598Z" fill="#7566E5"/>
<path d="M279.863 308.041L308.631 313.965C312.784 314.819 316.842 312.147 317.696 307.994L327.5 260.381C328.354 256.228 325.682 252.17 321.532 251.316L292.762 245.392C288.612 244.538 284.553 247.21 283.699 251.36L273.892 298.976C273.038 303.126 275.711 307.184 279.863 308.041Z" fill="#38385D"/>
<path d="M301.4 271.075C303.784 271.476 308.312 273.36 309.061 269.673C309.31 267.166 312.061 261.381 307.955 260.577C305.574 260.179 301.044 258.295 300.294 261.978C300.045 264.488 297.294 270.273 301.4 271.075Z" fill="#1A1A35"/>
<path d="M295.605 299.225C297.986 299.623 302.516 301.507 303.265 297.823C303.514 295.313 306.265 289.528 302.16 288.726C299.778 288.325 295.248 286.442 294.499 290.128C294.25 292.635 291.499 298.42 295.605 299.225Z" fill="#1A1A35"/>
<path d="M142.454 303.131C142.748 302.544 147.96 303.131 148.18 302.188C148.4 301.247 138.278 298.326 138.278 298.326L110.226 265.98L114.682 260.852L99.6926 251.006C95.9662 256.241 90.1742 262.951 92.7853 269.87C93.609 272.642 95.2926 275.081 97.5927 276.837L130.836 302.188C131.035 305.138 135.407 312.306 137.463 312.82C139.518 313.333 148.767 310.176 148.803 309.291C148.839 308.403 142.16 303.718 142.454 303.131Z" fill="#FFB6A6"/>
<mask id="mask14_22911_64839" style="mask-type:luminance" maskUnits="userSpaceOnUse" x="92" y="251" width="57" height="62">
<path d="M142.454 303.131C142.748 302.544 147.96 303.131 148.18 302.188C148.4 301.247 138.278 298.323 138.278 298.323L110.226 265.98L114.682 260.852L99.6929 251.006C95.966 256.241 90.1742 262.951 92.7853 269.87C93.609 272.642 95.2924 275.081 97.5927 276.837L130.836 302.188C131.035 305.138 135.407 312.306 137.463 312.82C139.518 313.333 148.767 310.176 148.803 309.291C148.839 308.403 142.16 303.718 142.454 303.131Z" fill="white"/>
</mask>
<g mask="url(#mask14_22911_64839)">
<path d="M93.3174 257.428C93.8039 257.496 102.422 263.821 113.265 263.752L116.531 260.414L99.7812 249.505L93.3174 257.428Z" fill="#FF8370"/>
</g>
<path d="M271.335 127.767H207.942C209.273 124.151 212.317 121.798 216.103 121.083C216.554 114.525 221.555 107.836 228.525 107.86C235.884 107.967 240.616 114.819 243.435 120.902C247.166 117.522 253.653 119.218 255.254 123.989C258.351 122.508 261.662 121.041 265.074 121.395C268.487 121.751 271.744 124.361 271.335 127.767Z" fill="white"/>
<path d="M492.204 146.19H430.524C432.418 143.387 435.062 141.836 438.415 141.398C442.833 126.559 465.378 121.979 470.932 138.116C474.207 136.211 479.054 138.323 479.893 142.019C483.982 137.943 491.559 140.298 492.204 146.19Z" fill="white"/>
<path d="M99.8691 156.005H172.47C172.58 151.598 167.487 147.44 163.279 148.758C169.724 130.022 127.787 113.959 123.386 146.342C119.805 144.487 114.758 147.32 114.474 151.344C109.17 145.577 101.516 148.698 99.8691 156.005Z" fill="white"/>
</g>
<defs>
<clipPath id="clip0_22911_64839">
<rect width="660" height="524" fill="white"/>
</clipPath>
</defs>
</svg>
