<svg width="44" height="44" viewBox="0 0 44 44" fill="none" xmlns="http://www.w3.org/2000/svg">
<circle cx="22" cy="22" r="22" fill="white"/>
<mask id="mask0_20848_42621" style="mask-type:alpha" maskUnits="userSpaceOnUse" x="1" y="1" width="43" height="43">
<circle cx="22.5501" cy="22.5501" r="20.95" fill="white" stroke="#DDDDDD"/>
</mask>
<g mask="url(#mask0_20848_42621)">
<path d="M34.2832 24.9624C34.2833 34.9222 37.1676 55.9447 41.083 57.9136L19.6113 57.7261H1.12891C5.21871 55.8224 9.07413 34.9322 9.07422 24.9624V22.2329H34.2256L34.2832 24.9624Z" fill="#E2E2E2"/>
<path d="M34.2832 24.9624L34.7833 24.9624L34.7831 24.9519L34.2832 24.9624ZM41.083 57.9136L41.0786 58.4136L41.3076 57.4669L41.083 57.9136ZM19.6113 57.7261L19.6157 57.2261H19.6113V57.7261ZM1.12891 57.7261L0.917914 57.2728L1.12891 58.2261V57.7261ZM9.07422 24.9624L9.57422 24.9624V24.9624H9.07422ZM9.07422 22.2329V21.7329H8.57422V22.2329H9.07422ZM34.2256 22.2329L34.7255 22.2224L34.7151 21.7329H34.2256V22.2329ZM34.2832 24.9624L33.7832 24.9624C33.7832 29.9772 34.508 37.7528 35.7227 44.5229C36.33 47.9077 37.0629 51.0592 37.8956 53.4966C38.3116 54.7144 38.7577 55.7697 39.2341 56.5916C39.7021 57.3992 40.2363 58.0474 40.8584 58.3603L41.083 57.9136L41.3076 57.4669C40.9509 57.2875 40.5385 56.8481 40.0993 56.0902C39.6684 55.3467 39.2469 54.3588 38.8419 53.1733C38.0325 50.804 37.3102 47.7081 36.707 44.3463C35.5007 37.6229 34.7832 29.9073 34.7832 24.9624L34.2832 24.9624ZM41.083 57.9136L41.0874 57.4136L19.6157 57.2261L19.6113 57.7261L19.607 58.2261L41.0786 58.4136L41.083 57.9136ZM19.6113 57.7261V57.2261H1.12891V57.7261V58.2261H19.6113V57.7261ZM1.12891 57.7261L1.3399 58.1794C1.981 57.881 2.55209 57.2491 3.06512 56.451C3.58636 55.6401 4.08633 54.596 4.56106 53.3886C5.51114 50.9723 6.38316 47.8427 7.12353 44.4764C8.60382 37.7461 9.57417 29.9937 9.57422 24.9624L9.07422 24.9624L8.57422 24.9624C8.57417 29.9009 7.61678 37.5785 6.14688 44.2616C5.41217 47.6021 4.55349 50.6751 3.63041 53.0227C3.16856 54.1973 2.69634 55.1754 2.22393 55.9103C1.7433 56.6579 1.29927 57.0953 0.917914 57.2728L1.12891 57.7261ZM9.07422 24.9624H9.57422V22.2329H9.07422H8.57422V24.9624H9.07422ZM9.07422 22.2329V22.7329H34.2256V22.2329V21.7329H9.07422V22.2329ZM34.2256 22.2329L33.7257 22.2435L33.7833 24.973L34.2832 24.9624L34.7831 24.9519L34.7255 22.2224L34.2256 22.2329Z" fill="#BBBBBB"/>
<rect x="8.89209" y="10.0166" width="26.2429" height="29.8753" rx="13.1215" fill="#F2F2F2" stroke="#BBBBBB"/>
<mask id="path-6-inside-1_20848_42621" fill="white">
<path d="M21.8174 7.7002C29.4484 7.7002 35.6348 13.8865 35.6348 21.5176V22.5322C35.6348 23.1598 35.5918 23.7774 35.5107 24.3828C34.4426 24.3037 33.3888 24.0988 32.3701 23.7559C30.1387 23.0045 28.3387 21.6861 27.0361 19.9951C25.2506 21.6144 22.8914 22.9995 20.0996 23.9395C15.9535 25.3352 11.6698 25.4782 8.15137 24.585C8.05162 23.9152 8 23.2297 8 22.5322V21.5176C8 13.8866 14.1864 7.70024 21.8174 7.7002Z"/>
</mask>
<path d="M21.8174 7.7002C29.4484 7.7002 35.6348 13.8865 35.6348 21.5176V22.5322C35.6348 23.1598 35.5918 23.7774 35.5107 24.3828C34.4426 24.3037 33.3888 24.0988 32.3701 23.7559C30.1387 23.0045 28.3387 21.6861 27.0361 19.9951C25.2506 21.6144 22.8914 22.9995 20.0996 23.9395C15.9535 25.3352 11.6698 25.4782 8.15137 24.585C8.05162 23.9152 8 23.2297 8 22.5322V21.5176C8 13.8866 14.1864 7.70024 21.8174 7.7002Z" fill="#E2E2E2"/>
<path d="M21.8174 7.7002V6.7002H21.8174L21.8174 7.7002ZM35.6348 22.5322L36.6348 22.5322V22.5322H35.6348ZM35.5107 24.3828L35.4368 25.3801L36.3768 25.4497L36.5019 24.5155L35.5107 24.3828ZM32.3701 23.7559L32.051 24.7036L32.0511 24.7036L32.3701 23.7559ZM27.0361 19.9951L27.8283 19.3849L27.167 18.5264L26.3644 19.2544L27.0361 19.9951ZM20.0996 23.9395L20.4187 24.8872L20.4187 24.8872L20.0996 23.9395ZM8.15137 24.585L7.16228 24.7323L7.26031 25.3905L7.9053 25.5542L8.15137 24.585ZM8 22.5322H7V22.5322L8 22.5322ZM21.8174 7.7002V8.7002C28.8961 8.7002 34.6348 14.4388 34.6348 21.5176H35.6348H36.6348C36.6348 13.3342 30.0007 6.7002 21.8174 6.7002V7.7002ZM35.6348 21.5176H34.6348V22.5322H35.6348H36.6348V21.5176H35.6348ZM35.6348 22.5322L34.6348 22.5322C34.6348 23.1141 34.5949 23.6874 34.5196 24.2501L35.5107 24.3828L36.5019 24.5155C36.5886 23.8675 36.6348 23.2055 36.6348 22.5322L35.6348 22.5322ZM35.5107 24.3828L35.5847 23.3855C34.5952 23.3122 33.624 23.1228 32.6892 22.8081L32.3701 23.7559L32.0511 24.7036C33.1535 25.0747 34.2901 25.2951 35.4368 25.3801L35.5107 24.3828ZM32.3701 23.7559L32.6892 22.8081C30.6443 22.1196 29.0094 20.918 27.8283 19.3849L27.0361 19.9951L26.2439 20.6054C27.6681 22.4542 29.6332 23.8895 32.051 24.7036L32.3701 23.7559ZM27.0361 19.9951L26.3644 19.2544C24.6908 20.7721 22.4552 22.0912 19.7805 22.9917L20.0996 23.9395L20.4187 24.8872C23.3277 23.9078 25.8104 22.4568 27.7079 20.7359L27.0361 19.9951ZM20.0996 23.9395L19.7806 22.9917C15.8028 24.3308 11.7155 24.4581 8.39743 23.6157L8.15137 24.585L7.9053 25.5542C11.6242 26.4983 16.1043 26.3396 20.4187 24.8872L20.0996 23.9395ZM8.15137 24.585L9.14046 24.4376C9.04796 23.8166 9 23.1803 9 22.5322L8 22.5322L7 22.5322C7 23.2791 7.05528 24.0139 7.16228 24.7323L8.15137 24.585ZM8 22.5322H9V21.5176H8H7V22.5322H8ZM8 21.5176H9C9 14.4389 14.7387 8.70024 21.8174 8.7002L21.8174 7.7002L21.8174 6.7002C13.6341 6.70025 7 13.3343 7 21.5176H8Z" fill="#BBBBBB" mask="url(#path-6-inside-1_20848_42621)"/>
<rect x="17.4727" y="25.8618" width="1.8162" height="3.63239" rx="0.908098" fill="#8A8A8A"/>
<rect x="24.7378" y="25.8618" width="1.8162" height="3.63239" rx="0.908098" fill="#8A8A8A"/>
<path d="M19.2891 33.1265C20.6512 34.9427 23.3755 34.9427 24.7377 33.1265" stroke="#8A8A8A" stroke-linecap="round" stroke-linejoin="round"/>
<path d="M15.6567 43.5698L16.5648 52.6508L21.1053 47.6975" stroke="#CCCCCC" stroke-linecap="round" stroke-linejoin="round"/>
<path d="M28.3701 43.5698L27.462 52.6508L22.9215 47.6975" stroke="#CCCCCC" stroke-linecap="round" stroke-linejoin="round"/>
</g>
</svg>
