<svg width="140" height="140" viewBox="0 0 140 140" fill="none" xmlns="http://www.w3.org/2000/svg">
<path d="M105.084 51.7892C73.1497 44.7945 99.3281 0.548547 55.5734 4.21552C11.8187 7.88249 -29.6722 108.538 48.0061 132.107C125.684 155.676 165.72 65.0679 105.084 51.7892Z" fill="#8FDDFF"/>
<path d="M103.333 86.1888C103.076 86.4476 102.77 86.6531 102.433 86.7932C102.096 86.9334 101.734 87.0056 101.369 87.0056C101.004 87.0056 100.643 86.9334 100.306 86.7932C99.9687 86.6531 99.6627 86.4476 99.4053 86.1888L95.4776 82.261C95.2187 82.0037 95.0133 81.6977 94.8731 81.3606C94.733 81.0236 94.6608 80.6622 94.6608 80.2971C94.6608 79.9321 94.733 79.5707 94.8731 79.2337C95.0133 78.8966 95.2187 78.5906 95.4776 78.3332L103.333 70.4777C103.591 70.2195 103.897 70.0147 104.234 69.8749C104.571 69.7352 104.932 69.6632 105.297 69.6632C105.662 69.6632 106.023 69.7352 106.36 69.8749C106.697 70.0147 107.003 70.2195 107.261 70.4777L111.189 74.4055C111.448 74.6628 111.653 74.9688 111.793 75.3059C111.933 75.6429 112.005 76.0043 112.005 76.3694C112.005 76.7344 111.933 77.0958 111.793 77.4328C111.653 77.7699 111.448 78.0759 111.189 78.3332L103.333 86.1888ZM61.6665 44.5221C61.4091 44.781 61.1031 44.9864 60.7661 45.1266C60.429 45.2667 60.0676 45.3389 59.7026 45.3389C59.3375 45.3389 58.9761 45.2667 58.6391 45.1266C58.3021 44.9864 57.9961 44.781 57.7387 44.5221L53.8109 40.5944C53.5521 40.337 53.3466 40.031 53.2065 39.694C53.0663 39.3569 52.9941 38.9955 52.9941 38.6305C52.9941 38.2655 53.0663 37.904 53.2065 37.567C53.3466 37.23 53.5521 36.924 53.8109 36.6666L61.6665 28.811C61.9242 28.5528 62.2303 28.348 62.5673 28.2083C62.9043 28.0685 63.2655 27.9966 63.6303 27.9966C63.9952 27.9966 64.3564 28.0685 64.6934 28.2083C65.0304 28.348 65.3365 28.5528 65.5942 28.811L69.522 32.7388C69.7809 32.9962 69.9863 33.3022 70.1264 33.6392C70.2666 33.9763 70.3388 34.3377 70.3388 34.7027C70.3388 35.0677 70.2666 35.4291 70.1264 35.7662C69.9863 36.1032 69.7809 36.4092 69.522 36.6666L61.6665 44.5221Z" fill="#66757F"/>
<path d="M25.5555 81.1112C31.1111 81.1112 56.1111 83.889 56.1111 83.889C56.1111 83.889 58.8888 108.889 58.8888 114.445C58.8888 120 53.3333 120 50.5555 117.222C47.7777 114.445 39.4444 100.556 39.4444 100.556C39.4444 100.556 25.5555 92.2223 22.7777 89.4445C19.9999 86.6667 19.9999 81.1112 25.5555 81.1112ZM31.1111 36.7751C39.4444 36.6667 100.555 39.4445 100.555 39.4445C100.555 39.4445 103.122 100.556 103.228 108.889C103.333 117.222 95.5527 120.006 92.4999 108.892C89.4472 97.7778 78.3333 61.6667 78.3333 61.6667C78.3333 61.6667 39.5694 49.3973 31.0972 47.4945C19.9999 45.0001 22.7749 36.8806 31.1111 36.7751Z" fill="#0EA5E9"/>
<path d="M95.0001 28.3333C100.556 22.7777 114.445 19.9999 117.222 22.7777C120 25.5555 117.222 39.4444 111.667 44.9999C106.111 50.5555 58.889 94.9999 58.889 94.9999C58.889 94.9999 40.8334 107.5 36.6667 103.333C32.5001 99.1666 45.0001 81.1111 45.0001 81.1111C45.0001 81.1111 89.4445 33.8888 95.0001 28.3333Z" fill="#CCD6DD"/>
<path d="M58.8897 81.1113C58.8897 81.1113 60.2786 82.5002 47.7786 95.0002C35.2786 107.5 33.8897 106.111 33.8897 106.111C33.8897 106.111 32.5008 104.722 45.0008 92.2224C57.5008 79.7224 58.8897 81.1113 58.8897 81.1113ZM100.556 31.1113C102.766 31.1113 104.886 31.9892 106.449 33.5521C108.012 35.1149 108.89 37.2345 108.89 39.4446H111.126C111.442 38.5696 111.667 37.6529 111.667 36.6668C111.667 34.4567 110.789 32.3371 109.227 30.7743C107.664 29.2115 105.544 28.3335 103.334 28.3335C102.348 28.3335 101.431 28.5585 100.556 28.8752V31.1113Z" fill="#66757F"/>
</svg>
