<svg width="140" height="140" viewBox="0 0 140 140" fill="none" xmlns="http://www.w3.org/2000/svg">
<path d="M105.084 51.7892C73.1497 44.7945 99.3281 0.548547 55.5734 4.21552C11.8187 7.88249 -29.6722 108.538 48.0061 132.107C125.684 155.676 165.72 65.0679 105.084 51.7892Z" fill="#BBCCE4"/>
<g clip-path="url(#clip0_22764_52071)">
<path d="M69.9997 25.4419C42.526 25.4419 20.2539 41.6895 20.2539 61.7313C20.2539 73.3661 27.7614 83.7191 39.4312 90.3599C42.0414 91.8453 43.336 94.8768 42.5728 97.7797C40.9248 104.035 38.4574 110.724 34.9506 114.228C34.9506 114.228 50.7545 117.943 64.8262 100.449C66.0762 98.8955 67.9748 98.0206 69.9669 98.0206C69.9787 98.0206 69.988 98.0206 69.9997 98.0206C97.4735 98.0206 119.746 81.773 119.746 61.7313C119.746 41.6895 97.4735 25.4419 69.9997 25.4419ZM43.2657 69.3171C39.073 69.3171 35.6739 65.9206 35.6739 61.7313C35.6739 57.5419 39.073 54.1454 43.2657 54.1454C47.4584 54.1454 50.8575 57.5419 50.8575 61.7313C50.8575 65.9206 47.4584 69.3171 43.2657 69.3171ZM69.9997 69.3171C65.807 69.3171 62.4079 65.9206 62.4079 61.7313C62.4079 57.5419 65.807 54.1454 69.9997 54.1454C74.1924 54.1454 77.5915 57.5419 77.5915 61.7313C77.5915 65.9206 74.1924 69.3171 69.9997 69.3171ZM96.7337 69.3171C92.541 69.3171 89.1419 65.9206 89.1419 61.7313C89.1419 57.5419 92.541 54.1454 96.7337 54.1454C100.926 54.1454 104.326 57.5419 104.326 61.7313C104.326 65.9206 100.926 69.3171 96.7337 69.3171Z" fill="#64748B"/>
</g>
<defs>
<clipPath id="clip0_22764_52071">
<rect width="100" height="90" fill="white" transform="translate(20 25)"/>
</clipPath>
</defs>
</svg>
