<svg width="360" height="506" viewBox="0 0 360 506" fill="none" xmlns="http://www.w3.org/2000/svg">
<path d="M168.69 86.2764H149.05V119.945H168.69V86.2764Z" fill="#090814"/>
<path d="M155.691 177.87L125.344 167.626L119.271 185.616L149.619 195.86L155.691 177.87Z" fill="#ED9DA0"/>
<path d="M333.069 247.66C333.069 247.66 337.68 256.115 327.243 312.729C327.243 312.729 334.353 330.154 334.353 436.22C334.098 453.27 329.885 454.527 326.146 453.129C319.49 450.824 300.275 452.358 300.275 452.358C300.275 452.358 297.201 448.738 300.275 445.809C303.349 442.881 301.551 434.165 302.835 427.248C304.118 420.33 294.895 349.074 296.171 341.665L281.829 293.774L253.643 247.66L295.047 241.688L333.069 247.66Z" fill="#090814"/>
<path d="M306.422 68.831V98.0379H267.223L266.201 95.1712C266.201 95.1712 270.044 84.4722 275.171 78.5851C277.715 75.6567 276.531 70.2613 274.687 65.5729C273.47 62.5335 272.002 59.6008 270.298 56.805C270.298 56.805 305.65 34.5156 303.863 48.0967C303.466 50.9969 303.345 53.9283 303.502 56.8513C303.931 64.7193 306.422 68.831 306.422 68.831Z" fill="#ED9DA0"/>
<path d="M309.865 38.4943C309.861 44.8254 307.663 50.9595 303.644 55.8518C299.626 60.744 294.036 64.0918 287.826 65.3249C281.616 66.558 275.17 65.6002 269.588 62.6145C264.005 59.6288 259.63 54.8 257.207 48.9506C254.785 43.1011 254.466 36.5929 256.304 30.5344C258.141 24.4758 262.023 19.2418 267.286 15.7238C272.55 12.2058 278.871 10.6215 285.171 11.2406C291.472 11.8597 297.363 14.6441 301.842 19.1193C306.978 24.2593 309.864 31.2279 309.865 38.4943Z" fill="#ED9DA0"/>
<path d="M271.326 75.9326L259.282 95.1476L252.364 146.851V189.239L253.901 204.35L282.454 206.402L295.15 163.738L304.888 120.066L315.387 111.097L290.545 82.9112C290.545 82.9112 285.75 89.6365 280.331 93.5484C279.527 94.1312 278.555 94.4387 277.562 94.4251C276.569 94.4116 275.607 94.0777 274.818 93.4731C274.03 92.8685 273.458 92.0256 273.188 91.0698C272.917 90.114 272.962 89.0964 273.317 88.1684C274.854 84.1408 276.245 79.6677 275.177 78.5995C273.73 77.2846 271.961 76.3753 270.05 75.9635" fill="#D6D6E3"/>
<path opacity="0.1" d="M312.578 254.833H337.427L334.099 238.692L333.586 231.65L321.549 239.206L312.578 254.833Z" fill="black"/>
<path d="M312.578 253.296H337.427L334.099 237.155L333.586 230.113L321.549 237.668L312.578 253.296Z" fill="#E6E8EC"/>
<path d="M276.454 68.4238C276.454 68.4238 253.904 80.8749 253.135 84.7181C252.366 88.5612 246.986 114.95 246.986 114.95V138.776L269.276 130.606L268 98.0249L275.939 78.5714C275.939 78.5714 277.807 72.1667 276.454 68.4238Z" fill="#6C63FF"/>
<path d="M339.986 241.766C340.24 252.011 337.166 262.108 337.166 262.108C333.323 258.472 330.082 247.697 328.919 242.37C326.983 248.934 311.549 260.724 311.549 260.724V264.306C310.777 274.298 278.5 267.38 278.5 267.38L278.669 256.889V255.897L280.537 138.802C280.537 138.802 283.096 114.462 279.765 107.112C276.434 99.7628 277.459 86.5373 277.459 86.5373C277.459 86.5373 280.534 81.1573 283.862 79.3666C287.19 77.5758 305.806 59.944 306.39 59.3828C306.34 60.1147 306.34 60.8492 306.39 61.5811C306.866 68.0294 311.51 68.4446 311.51 68.4446C315.607 70.0895 329.186 91.1492 329.186 91.1492C335.589 93.9851 338.187 117.403 338.187 117.403L339.624 165.126L338.187 168.447L338.958 211.243C338.958 211.243 339.733 231.52 339.986 241.766Z" fill="#6C63FF"/>
<path opacity="0.1" d="M334.476 474.781C334.476 474.781 324.615 480.799 317.567 482.982C310.519 485.165 294.64 484.642 288.745 482.982C284.802 481.867 286.885 478.055 289.583 475.004C290.722 473.7 291.986 472.511 293.357 471.453C296.308 469.271 299.636 460.432 301.688 458.641C303.741 456.85 301.043 450.571 301.043 450.571C301.043 450.571 305.785 444.937 308.091 444.168C310.397 443.4 321.795 449.933 321.795 449.933L330.126 451.339C329.227 452.492 333.072 462.099 333.839 463.506C334.2 464.175 334.362 466.719 334.431 469.224C334.514 472.029 334.476 474.781 334.476 474.781Z" fill="black"/>
<path d="M334.476 475.549C334.476 475.549 324.615 481.568 317.567 483.751C310.519 485.933 294.64 485.411 288.745 483.751C284.802 482.636 286.885 478.824 289.583 475.773C290.722 474.469 291.986 473.279 293.357 472.222C296.308 470.039 299.636 461.2 301.688 459.41C303.741 457.619 301.043 451.34 301.043 451.34C301.043 451.34 305.785 445.706 308.091 444.937C310.397 444.168 321.795 450.701 321.795 450.701L330.126 452.108C329.227 453.261 333.072 462.868 333.839 464.275C334.2 464.943 334.362 467.487 334.431 469.993C334.514 472.798 334.476 475.549 334.476 475.549Z" fill="#D6D6E3"/>
<path d="M229.823 332.459V400.672C229.827 403.162 224.435 435.235 223.69 435.451C221.899 435.966 217.541 438.602 217.541 438.602C217.541 438.602 242.39 468.5 251.613 461.068C260.836 453.635 256.486 404.192 256.486 404.192C256.486 404.192 257.001 360.643 257.508 359.874C258.015 359.106 258.791 335.279 258.791 335.279L229.823 332.459Z" fill="#090814"/>
<path d="M254.311 23.4068C253.694 21.6196 253.611 19.6914 254.072 17.8578C254.887 13.9073 257.247 10.0333 260.99 8.53438C262.85 7.7628 264.886 7.66601 266.824 7.16659C271.436 5.96784 275.225 2.63184 279.73 1.06414C284.235 -0.503555 289.145 -0.227192 293.665 1.16375C298.15 2.66807 302.362 4.88724 306.139 7.73545C309.897 10.4177 313.486 13.4872 315.939 17.3892C318.391 21.2913 319.586 26.1894 318.306 30.6168C317.476 33.4759 315.711 35.9435 314.386 38.6026C312.081 43.3141 311.16 48.5945 310.774 53.844C310.659 55.4426 304.079 62.7522 302.858 61.3227C301.935 60.2544 302.02 58.679 302.086 57.2719C302.34 52.9448 301.556 57.3182 302.858 52.7912C303.227 51.5153 302.312 50.1166 301.42 49.1325C300.529 48.1484 298.869 47.7493 297.87 48.6099C296.871 49.4706 296.932 51.1694 295.963 52.0841C294.749 53.2373 292.574 52.4145 291.755 50.9541C290.935 49.4937 291.04 47.7184 291.094 46.0441C291.148 44.3698 291.094 42.5369 289.972 41.2631C288.849 39.9893 287.297 39.5951 286.497 38.2884C285.299 36.3363 286.628 33.6772 285.814 31.5399C285.042 29.5878 282.739 28.6886 280.623 28.7882C275.735 29.0344 270.9 32.3388 265.943 30.3636C263.991 29.592 262.6 27.5887 260.693 26.8817C258.039 25.859 255.687 26.7814 254.311 23.4068Z" fill="#090814"/>
<path d="M249.162 466.673L185.499 465.036C181.656 462.915 180.673 460.693 181.049 458.695C181.751 455.005 187.037 452.108 187.037 452.108L203.946 449.802L220.248 436.352C222.854 437.889 223.545 442.5 223.545 442.5C223.545 442.5 244.428 456.589 247.241 457.103C248.655 457.357 249.134 459.755 249.254 462.084C249.327 463.614 249.296 465.147 249.162 466.673Z" fill="#D6D6E3"/>
<path opacity="0.1" d="M226.388 435.581C226.388 435.581 230.999 435.712 235.55 435.581C240.1 435.451 226.388 435.581 226.388 435.581Z" fill="black"/>
<path d="M163.87 464.658L158.103 466.964L149.457 468.885L141.881 466.195L139.852 460.047C139.852 460.047 143.234 449.245 143.359 441.678C143.359 440.976 143.359 440.309 143.313 439.679C143.106 436.792 143.261 433.89 143.774 431.04C144.057 429.34 144.482 427.667 145.042 426.037H157.147L158.462 432.862L159.999 441.025C160.549 442.628 160.879 444.298 160.981 445.99C160.994 446.49 160.922 446.988 160.765 447.463C160.724 447.576 160.699 447.694 160.689 447.814C160.661 449.163 160.785 450.512 161.058 451.834V451.888C161.949 457.056 163.87 464.658 163.87 464.658Z" fill="#ED9DA0"/>
<path d="M199.803 473.112L179.819 470.614C179.819 470.614 180.887 466.702 181.763 461.391C182.094 459.4 182.395 457.21 182.601 454.958C182.872 451.584 183.944 448.325 185.729 445.45C186.327 444.459 187.053 443.552 187.889 442.752L199.802 445.442C199.802 445.442 199.894 447.748 199.932 450.607C199.986 454.885 199.932 460.476 199.225 461.682L199.179 461.774C198.119 463.958 199.803 473.112 199.803 473.112Z" fill="#ED9DA0"/>
<path opacity="0.1" d="M160.72 447.817L160.673 445.135L161.011 445.988C161.025 446.487 160.952 446.986 160.796 447.461C160.755 447.575 160.729 447.695 160.72 447.817Z" fill="black"/>
<path opacity="0.1" d="M163.87 464.658L158.106 466.963L149.459 468.884L141.884 466.194L139.854 460.046C139.854 460.046 143.236 449.244 143.362 441.676C143.631 440.784 143.777 440.27 143.777 440.27L142.239 458.717C142.192 459.297 142.267 459.881 142.458 460.43C142.65 460.98 142.954 461.484 143.351 461.909C143.748 462.335 144.23 462.672 144.765 462.901C145.3 463.129 145.877 463.244 146.459 463.236L157.658 463.075C158.238 463.068 158.811 462.939 159.339 462.698C159.866 462.456 160.338 462.108 160.724 461.674C161.109 461.239 161.4 460.73 161.577 460.177C161.755 459.624 161.815 459.041 161.754 458.463L161.078 451.876C161.949 457.055 163.87 464.658 163.87 464.658Z" fill="black"/>
<path d="M143.771 441.039C142.019 447.136 139.842 453.102 137.253 458.893C134.317 465.196 142.249 472.571 146.161 475.702C147.404 476.699 148.95 477.241 150.542 477.24H155.561C156.65 477.241 157.723 476.989 158.697 476.503C159.671 476.018 160.519 475.312 161.173 474.442C163.309 471.598 166.123 467.117 165.884 463.505C165.5 457.741 160.673 445.904 160.673 445.904L160.727 449.071L161.765 459.255C161.824 459.832 161.764 460.414 161.586 460.966C161.409 461.517 161.119 462.026 160.734 462.46C160.35 462.893 159.879 463.242 159.353 463.484C158.826 463.727 158.255 463.857 157.676 463.866L146.478 464.02C145.896 464.028 145.319 463.915 144.784 463.687C144.249 463.46 143.767 463.123 143.37 462.698C142.972 462.273 142.668 461.77 142.477 461.221C142.285 460.671 142.211 460.088 142.258 459.508L143.771 441.039Z" fill="#090814"/>
<path d="M224.974 305.367C223.244 309.014 219.594 348.024 220.17 357.823C220.746 367.623 219.017 382.995 219.017 382.995C219.017 382.995 212.291 418.347 206.911 428.342C203.634 434.548 201.611 441.338 200.955 448.326C197.112 452.553 185.199 443.521 185.199 443.521C188.273 441.792 188.657 422.193 189.426 420.655C190.195 419.117 190.387 412.393 190.387 412.393L192.5 372.041C192.5 372.041 193.461 360.513 190.579 356.477C187.697 352.442 190.579 340.337 190.579 340.337L189.257 305.75L187.72 285.766C187.72 285.766 184.261 307.095 181.379 314.396C178.497 321.698 178.497 339.952 178.497 339.952C177.921 351.865 170.619 366.466 170.619 366.466C170.619 380.877 160.627 416.233 158.898 418.731C157.169 421.229 158.898 430.452 158.898 430.452C155.055 439.867 141.905 427.954 141.905 427.954C141.905 427.954 144.103 421.421 143.142 419.884C142.181 418.347 141.905 409.123 141.905 409.123C141.905 409.123 145.061 413.159 142.566 391.83C141.083 378.886 142.083 365.778 145.512 353.208C145.512 353.208 148.909 339.757 147.11 326.307C145.312 312.857 145.512 288.262 145.512 288.262V258.03L148.716 252.138C148.716 252.138 221.157 240.802 226.537 247.719C227.363 249.044 227.888 250.535 228.074 252.085C230.639 265.815 226.488 302.177 224.974 305.367Z" fill="#E6E8EC"/>
<path d="M143.733 138.772L140.659 144.536L139.887 145.307C136.428 148.551 122.678 161.363 120.833 161.701C118.72 162.086 107.952 144.946 107.952 144.946L124.155 131.273L124.8 130.728L143.733 138.772Z" fill="#ED9DA0"/>
<path d="M204.606 123.018L178.473 133.394C178.473 133.394 152.725 136.468 160.797 122.25C161.911 120.288 162.771 118.194 163.357 116.016C166.7 103.718 160.797 91.8867 160.797 91.8867C160.797 91.8867 191.156 64.9861 187.311 84.9692C185.398 94.961 189.696 104.43 194.482 111.44C197.385 115.686 200.783 119.571 204.604 123.013L204.606 123.018Z" fill="#ED9DA0"/>
<path opacity="0.1" d="M143.733 138.773L140.659 144.538L139.887 145.309L135.652 141.62L124.034 131.475L124.157 131.252L124.802 130.706L143.733 138.773Z" fill="black"/>
<path d="M233.935 244.97C232.906 252.657 211.131 254.448 204.598 254.701C198.065 254.954 190.894 255.216 177.312 261.618C163.731 268.021 145.478 258.037 145.478 258.037V256.992C145.478 253.994 145.517 245.17 145.478 239.029V233.949C145.478 231.159 145.478 227.231 145.286 223.396C145.214 220.483 144.872 217.583 144.264 214.734C143.042 209.846 144.157 207.048 145.316 204.358L145.477 203.973C146.692 201.161 145.285 196.803 144.263 192.705C143.776 190.379 143.518 188.011 143.492 185.634C143.421 183.275 143.492 181.43 143.492 181.43C145.797 175.796 145.352 170.293 144.453 165.397C143.561 160.494 142.208 156.174 142.723 153C143.032 151.336 143.006 149.627 142.646 147.974C142.41 146.635 141.711 145.421 140.67 144.546L136.413 140.834L124.795 130.703C124.795 130.703 127.139 126.483 129.783 120.419C131.466 116.606 132.947 112.707 134.218 108.737C134.418 108.122 134.602 107.5 134.787 106.877C138.368 94.5795 157.583 101.75 157.583 101.75C157.845 123.786 177.313 126.09 177.313 126.09C189.611 127.373 190.126 116.098 196.206 109.696C202.286 103.294 224.195 119.689 224.195 119.689C224.195 119.689 224.364 125.63 224.08 133.578C223.872 140.673 223.215 147.748 222.112 154.761C221.2 160.141 219.891 165.122 218.044 168.596C217.454 169.729 216.941 170.901 216.507 172.103C215.089 175.958 214.386 180.04 214.431 184.147C214.418 184.899 214.443 185.65 214.508 186.399C214.669 188.994 215.075 191.567 215.722 194.085C215.947 194.987 216.219 195.877 216.536 196.751C216.536 196.751 217.22 198.25 218.32 200.732C219.857 204.198 222.163 209.57 224.606 215.435C225.959 218.732 227.342 222.192 228.611 225.55C230.471 230.454 232.085 235.142 233.053 238.801C233.743 241.558 234.104 243.71 233.935 244.97Z" fill="#D6D6E3"/>
<path d="M224.082 133.578C223.875 140.673 223.217 147.749 222.114 154.761C220.025 155.267 217.891 155.566 215.743 155.652C212.491 155.737 209.271 155.076 206.02 154.992C202.53 154.9 199.056 155.468 195.569 155.676C188.605 156.096 181.642 155.107 174.732 154.138L168.23 153.192C166.438 152.966 164.66 152.643 162.903 152.224C161.435 151.855 160.013 151.34 158.568 150.891C153.381 149.377 148.052 148.396 142.666 147.963C142.431 146.623 141.731 145.41 140.691 144.535L136.433 140.823C134.469 134.858 132.514 128.894 130.568 122.93C130.292 122.1 130.023 121.262 129.797 120.417C131.48 116.603 132.96 112.704 134.232 108.734C135.175 111.788 136.355 114.764 137.76 117.635C138.592 119.439 139.64 121.134 140.881 122.685C143.909 126.29 148.397 128.304 152.856 129.803C164.384 133.646 176.575 134.891 188.657 136.074C192.585 136.536 196.538 136.764 200.493 136.758C203.568 136.681 206.642 136.32 209.716 135.986C214.556 135.52 219.356 134.713 224.082 133.573V133.578Z" fill="#6C63FF"/>
<path d="M216.481 172.123C215.064 175.978 214.36 180.06 214.406 184.167H214.321C211.716 185.251 209.233 186.665 206.52 187.449C203.613 188.157 200.627 188.496 197.635 188.455C193.172 188.583 188.704 188.7 184.231 188.806C170.558 189.136 156.608 189.352 143.495 185.601C143.425 183.242 143.495 181.397 143.495 181.397C145.801 175.763 145.355 170.26 144.456 165.364C145.789 166.017 147.215 167.032 147.823 167.316C150.266 168.463 152.788 169.431 155.37 170.214C162.134 172.248 169.205 172.958 176.291 173.288C187.797 173.834 199.325 173.657 210.809 172.758C212.712 172.674 214.607 172.462 216.481 172.123Z" fill="#6C63FF"/>
<path d="M224.583 215.488C223.407 215.703 222.239 215.941 221.071 216.179C217.848 216.777 214.663 217.562 211.531 218.531C208.688 219.477 205.959 220.722 203.077 221.683C196.305 223.988 189.08 224.58 181.925 224.85C169.68 225.308 157.418 224.822 145.248 223.397C145.176 220.484 144.833 217.585 144.225 214.735C143.003 209.847 144.118 207.049 145.278 204.359C148.521 204.59 152.102 205.596 153.955 205.896C159.842 206.834 165.739 207.949 171.725 208.033C175.338 208.016 178.947 207.811 182.539 207.418L191.409 206.603C194.156 206.403 196.889 206.044 199.594 205.527C202.215 204.974 204.767 204.129 207.357 203.423C210.934 202.454 214.652 201.74 218.256 200.795C219.824 204.251 222.168 209.623 224.583 215.488Z" fill="#6C63FF"/>
<path d="M233.028 238.853C228.694 240.2 224.505 241.977 220.523 244.156C217.449 245.91 214.497 248 211.246 249.475C207.674 250.947 203.945 252.006 200.132 252.632C192.866 254.046 185.562 255.299 178.219 256.39C167.359 257.927 156.153 259.095 145.462 256.99C145.462 253.993 145.501 245.169 145.462 239.028C149.367 238.159 154.686 238.817 157.991 238.957C165.677 239.265 173.263 240.818 180.902 240.341C184.796 240.007 188.662 239.411 192.476 238.558L214.189 234.209C215.375 234.041 216.524 233.672 217.586 233.117C218.543 232.453 219.421 231.679 220.199 230.812C222.567 228.506 225.579 227.024 228.546 225.621C230.289 229.943 231.786 234.361 233.028 238.853Z" fill="#6C63FF"/>
<path opacity="0.1" d="M199.803 473.112L179.819 470.614C179.819 470.614 180.887 466.701 181.763 461.39L181.479 466.002C181.443 466.558 181.628 467.105 181.993 467.526C182.359 467.946 182.876 468.205 183.431 468.246L196.344 469.268C196.624 469.292 196.905 469.261 197.173 469.176C197.441 469.091 197.689 468.953 197.903 468.772C198.117 468.591 198.293 468.369 198.422 468.119C198.55 467.869 198.627 467.596 198.649 467.316V463.681L199.026 461.375C199.08 461.483 199.126 461.606 199.18 461.726C198.119 463.958 199.803 473.112 199.803 473.112Z" fill="black"/>
<path d="M181.84 460.907C181.84 460.907 174.723 475.341 178.989 479.262C182.063 482.144 192.755 481.322 198.25 480.668C199.156 480.562 199.987 480.11 200.57 479.408C201.152 478.705 201.442 477.805 201.378 476.894C201.079 472.513 200.386 465.034 199.072 462.183L198.696 464.489V468.124C198.674 468.404 198.596 468.676 198.468 468.926C198.34 469.175 198.163 469.397 197.949 469.578C197.734 469.758 197.486 469.895 197.219 469.979C196.951 470.064 196.67 470.094 196.39 470.069L183.478 469.054C182.924 469.009 182.409 468.749 182.044 468.33C181.68 467.91 181.493 467.365 181.526 466.81L181.84 460.907Z" fill="#090814"/>
<path d="M266.37 474.557L259.606 477.055L242.797 471.821L245.518 465.426L247.886 459.861L263.357 461.06L264.741 467.255L266.37 474.557Z" fill="#ED9DA0"/>
<path d="M292.74 473.881L284.094 478.2L274.195 475.895L271.988 468.526L270.582 463.914C270.582 463.914 288.744 455.743 285.761 459.202C284.569 460.585 285.462 463.222 286.945 465.881C288.634 468.716 290.573 471.393 292.74 473.881Z" fill="#ED9DA0"/>
<path d="M292.372 303.829L290.435 304.928L265.071 319.201L266.993 398.366C266.993 398.366 267.385 420.302 265.893 432.569C265.691 434.653 265.287 436.712 264.686 438.717C261.804 446.98 266.032 466.579 266.032 466.579L245.55 465.041C245.55 465.041 244.705 458.308 245.473 453.866C246.241 449.425 236.825 381.065 234.904 379.915C232.983 378.765 223.183 326.298 223.152 325.729C223.121 325.16 219.309 301.518 219.309 297.672C219.309 293.825 216.854 269.049 218.187 262.9C218.709 260.494 219.45 257.282 220.147 254.277C221.238 249.612 222.245 245.415 222.245 245.415C222.245 245.415 289.301 249.834 294.877 258.858C295.496 259.936 295.929 261.111 296.161 262.332C298.887 274.738 292.372 303.829 292.372 303.829Z" fill="#D6D6E3"/>
<path opacity="0.1" d="M290.012 287.973L290.834 303.829L290.419 304.928L265.056 319.2L266.978 398.366C266.978 398.366 267.37 420.302 265.879 432.568C264.596 427.818 262.036 421.301 262.175 420.655C262.367 419.694 250.838 392.217 246.034 387.029C241.23 381.842 238.417 369.353 238.417 369.353C238.417 369.353 239.119 343.605 241.807 340.147C244.495 336.688 249.193 293.662 249.193 293.662L290.012 287.973Z" fill="black"/>
<path d="M249.322 292.3C249.322 292.3 246.056 336.687 243.366 340.146C240.676 343.604 239.984 369.352 239.984 369.352C239.984 369.352 242.79 381.842 247.593 387.028C252.396 392.215 263.926 419.694 263.734 420.654C263.541 421.615 269.114 433.265 267.769 434.994C266.424 436.724 267.769 467.401 267.769 467.401H288.713C288.713 467.401 286.983 443.328 288.713 438.717C290.443 434.106 281.411 389.527 276.992 379.343C272.573 369.159 278.53 340.721 278.53 340.721L292.365 303.825L292.749 286.916L249.322 292.3Z" fill="#D6D6E3"/>
<path d="M216.342 175.221L231.968 186.093L234.271 210.832V232.483L232.226 242.598L218.369 241.576L218.868 201.509L216.342 175.221Z" fill="#E6E6E6"/>
<path d="M206.566 105.97C206.566 105.97 228.548 124.493 227.318 147.29C226.089 170.086 249.139 136.791 249.139 136.791L255.287 120.389C255.287 120.389 227.987 107.1 230.931 89.9063C233.875 72.7128 206.566 105.97 206.566 105.97Z" fill="#ED9DA0"/>
<path d="M224.381 130.688C224.381 130.688 217.464 138.058 215.228 138.058C212.992 138.058 217.141 167.495 213.152 173.168C209.163 178.84 215.228 189.721 215.228 189.721L216.849 218.767C216.849 218.767 212.561 250.932 213.152 252.332C213.743 253.731 219.301 252.332 219.301 252.332L221.73 219.943C221.73 219.943 220.958 197.762 221.984 192.635C223.009 187.508 221.292 169.724 223.176 165.55C225.06 161.377 224.806 152.93 224.806 152.93L224.381 130.688Z" fill="#E6E6E6"/>
<path d="M299.097 260.534C299.097 260.534 258.362 264.378 251.698 260.534C245.035 256.691 222.615 254.502 219.302 252.333C215.989 250.165 220.931 230.513 222.879 226.317C224.827 222.121 228.897 202.398 230.927 197.218C232.956 192.038 231.203 195.996 225.315 188.31C219.427 180.623 223.171 159.871 223.171 159.871L224.393 130.703L229.85 136.583L236.329 143.562L246.315 154.23L259.896 158.073L273.216 173.192L286.797 201.522C286.797 201.522 288.111 208.377 290.248 216.402C291.239 220.129 292.415 224.087 293.715 227.765C297.814 239.267 299.097 260.534 299.097 260.534Z" fill="#6C63FF"/>
<path d="M236.579 120.121L230.922 134.393C230.922 134.393 221.63 152.555 226.803 165.552C229.921 173.402 232.419 181.484 234.274 189.724C234.274 189.724 249.899 227.232 249.131 232.481C248.362 237.731 259.123 237.992 265.017 232.481C270.912 226.97 282.088 220.513 290.634 221.827C299.181 223.142 296.014 190.964 296.783 182.438C297.552 173.913 290.634 153.439 290.634 153.439C290.634 153.439 287.56 131.05 285.369 125.592C283.179 120.135 275.83 109.552 270.551 110.743C265.272 111.934 249.13 110.651 249.13 110.651L236.579 120.121Z" fill="#E6E6E6"/>
<path d="M268.668 114.809C267.394 114.966 266.191 115.484 265.2 116.301C264.209 117.118 263.471 118.2 263.073 119.421C261.728 123.31 259.676 130.689 260.867 136.868C262.581 145.715 264.111 154.169 264.111 154.169V169.153C264.111 169.153 264.503 183.564 266.808 187.215C269.114 190.866 257.777 222.394 257.777 222.394L247.396 251.754C247.396 251.754 231.64 287.687 246.051 288.839C260.462 289.991 258.633 255.661 258.633 255.661L275.455 226.32L284.486 207.182C286.199 197.997 286.971 188.662 286.791 179.32C286.591 162.988 285.823 149.229 285.823 149.229C285.823 149.229 281.787 123.788 277.176 119.177C274.11 116.1 271.512 114.525 268.668 114.809Z" fill="#ED9DA0"/>
<path d="M256.563 471.822C256.563 471.822 246.387 465.566 245.41 463.575C244.434 461.585 230.107 475.227 230.107 475.227C230.107 475.227 222.613 481.76 218.87 483.197C215.127 484.634 212.652 490.406 217.779 490.883C222.905 491.36 242.789 491.655 242.789 491.655L259.89 489.449L270.558 487.566L268.541 471.822C268.541 471.822 257.462 473.997 256.563 471.822Z" fill="#D6D6E3"/>
<path d="M281.658 473.974C281.658 473.974 272.642 465.519 268.945 467.52C265.248 469.522 256.562 478.204 256.562 478.204C256.562 478.204 248.361 485.029 246.156 486.566C243.951 488.104 241.353 493.292 246.156 494.152C250.959 495.013 294.769 488.58 294.769 488.58C294.769 488.58 294.224 472.601 292.748 472.362C291.272 472.124 284.87 475.703 281.658 473.974Z" fill="#D6D6E3"/>
<path opacity="0.1" d="M338.196 168.449L338.967 211.245L319.491 236.386L314.932 242.788C314.932 242.788 301.036 271.226 283.227 262.518C280.153 261.035 278.831 259.09 278.668 256.892C278.641 256.562 278.641 256.231 278.668 255.901C279.575 245.21 305.384 229.5 305.384 229.5C305.384 229.5 324.084 196.965 325.368 196.396C326.651 195.828 332.539 178.519 332.539 178.519L335.107 166.104C336.587 165.687 338.095 165.371 339.618 165.158L338.196 168.449Z" fill="black"/>
<path d="M334.352 164.536L331.793 176.952C331.793 176.952 325.901 194.26 324.614 194.829C323.328 195.398 304.631 227.932 304.631 227.932C304.631 227.932 264.664 252.272 282.457 260.982C300.25 269.691 314.169 241.25 314.169 241.25L318.729 234.847L349.726 194.803C349.726 194.803 364.583 179.738 358.181 169.493C351.778 159.248 334.352 164.536 334.352 164.536Z" fill="#ED9DA0"/>
<path d="M341.862 133.869C355.753 160.001 356.535 162.48 357.741 164.759C359.793 168.717 361.584 173.213 357.741 175.189C353.897 177.164 329.564 177.171 329.564 177.171C329.564 177.171 331.355 175.542 325.721 168.671C320.087 161.8 313.677 153.822 313.165 148.972C312.653 144.122 305.741 131.056 306.509 127.451C307.278 123.847 306.263 110.681 306.448 107.291C306.632 103.901 310.091 94.5317 313.165 95.3622C316.24 96.1927 327.264 89.8973 334.432 103.817C341.6 117.736 341.862 133.869 341.862 133.869Z" fill="#6C63FF"/>
<path d="M124.326 54.0891C121.954 57.4156 120.153 61.1135 118.995 65.0314C114.46 79.6345 117.22 95.9751 117.22 95.9751L94.5433 85.6016C94.5433 85.6016 76.0957 69.461 86.4734 61.9676C89.9503 59.5898 92.6671 56.2592 94.2978 52.3755C95.2828 50.069 95.6967 47.5588 95.5043 45.0582C95.5043 45.0582 135.855 38.3329 124.326 54.0891Z" fill="#ED9DA0"/>
<path d="M141.222 37.873C141.229 43.5828 139.386 49.1412 135.968 53.7148C132.549 58.2885 127.741 61.6308 122.263 63.2408C116.785 64.8509 110.932 64.6418 105.583 62.6449C100.234 60.648 95.6758 56.971 92.5927 52.1651C89.5097 47.3592 88.0675 41.6834 88.4824 35.9887C88.8974 30.294 91.1471 24.8872 94.8943 20.579C98.6414 16.2708 103.684 13.2933 109.266 12.093C114.849 10.8927 120.67 11.5342 125.856 13.9213C130.437 16.0296 134.319 19.4056 137.042 23.6501C139.765 27.8947 141.215 32.8302 141.222 37.873Z" fill="#ED9DA0"/>
<path d="M119.334 29.9991C119.737 30.9166 120.028 32.0003 120.947 32.445C121.866 32.8897 122.809 32.5004 123.761 32.5074C125.665 32.5074 127.187 34.0288 128.479 35.419L134.898 42.3197C136.288 43.8138 137.734 45.3492 139.589 46.2246C141.444 47.1 143.821 47.1764 145.391 45.8634C146.962 44.5503 147.295 42.3892 146.912 40.416C146.53 38.4429 145.523 36.7195 144.661 34.9407C143.799 33.1618 143.021 31.2371 143.188 29.2703C143.334 27.4564 144.244 25.7961 145.022 24.1772C146.822 20.3762 147.982 15.8877 146.355 12.0102C145.208 9.29355 142.881 7.28535 140.456 5.58999C138.83 4.45017 136.982 3.35944 135.008 3.40153C132.659 3.44993 130.609 5.0555 128.282 5.38868C126.779 5.53701 125.262 5.34695 123.842 4.83244C120.604 3.80415 117.588 2.05338 114.364 1.07348C111.248 0.0977594 107.963 -0.217119 104.719 0.148989C103.346 0.187629 102.026 0.689716 100.974 1.5736C100.008 2.53245 99.6613 4.03352 99.1331 5.33958C98.3224 7.32587 96.9479 9.03129 95.1791 10.2454C93.2404 11.5655 90.9264 12.2255 88.9252 13.4067C86.924 14.5879 85.0407 16.5681 85.1101 18.9172C85.2343 19.8656 85.4059 20.8071 85.6242 21.7383C85.803 23.8811 85.2116 26.0172 83.9562 27.7629C82.6846 29.7227 80.8784 31.8067 81.4479 34.0723C81.8512 35.6772 83.3172 36.7265 84.408 37.9701C85.721 39.4712 86.527 41.3609 87.7987 42.9033C89.0704 44.4458 91.127 45.6824 93.0243 44.988C94.7618 44.4184 95.7136 42.521 96.0258 40.7219C96.3379 38.9227 96.2067 37.0527 96.6571 35.2809C96.7198 34.9389 96.8846 34.6239 97.1298 34.3774C97.5815 34.0092 98.2416 34.1551 98.8182 34.2371C99.964 34.3405 101.119 34.1898 102.2 33.7959C103.281 33.402 104.261 32.7745 105.072 31.9582C106.587 30.5686 107.344 28.8017 108.393 27.0945C109.185 25.7814 110.533 25.524 112.076 25.531C113.583 25.5182 115.064 25.9307 116.348 26.721C117.631 27.5113 118.666 28.6474 119.334 29.9991Z" fill="#1E1637"/>
<path d="M69.3099 467.787L68.4106 486.872C68.4106 486.872 96.2105 486.487 100.945 488.924C105.68 491.361 134.51 491.23 134.51 491.23C134.51 491.23 147.829 486.234 140.402 481.107C132.975 475.981 119.65 475.473 119.65 475.473C119.65 475.473 108.629 460.355 106.584 459.717C104.539 459.079 100.82 455.49 98.514 460.355C96.2083 465.22 89.8316 470.096 89.8316 470.096L69.3099 467.787Z" fill="#090814"/>
<path d="M132.204 281.786C128.876 295.875 114.011 357.362 114.011 357.362C114.011 357.362 102.682 462.226 102.999 462.156L90.4858 472.397L67.4276 472.651C67.4276 472.651 68.4496 454.975 69.2184 453.436C69.9871 451.897 75.3671 443.705 72.0388 438.325C68.7106 432.945 73.0608 378.882 76.65 371.965C80.2393 365.048 82.9861 333.122 82.9861 333.122C81.2325 337.414 73.6073 356.129 72.8069 360.697C71.7772 367.353 63.3222 377.607 63.3222 378.883C63.3222 396.399 41.8016 437.811 41.8016 437.811C41.8016 437.811 34.1153 463.943 36.1677 468.808C38.22 473.673 34.1153 478.8 31.3025 477.524C28.4898 476.248 5.93878 477.524 5.93878 477.524C5.93878 477.524 5.42393 462.152 5.93878 460.869C6.45363 459.585 22.5866 384.263 30.0189 376.323C37.4513 368.384 52.5236 256.176 52.6541 251.819C52.7537 248.461 52.7004 241.136 52.6541 237.984V236.447L54.5753 224.403L63.2836 201.86L95.0584 209.296L118.885 213.896C118.885 213.896 132.458 227.984 136.301 238.23C136.766 239.514 137.106 240.839 137.315 242.188C139.075 252.926 135.179 269.358 132.204 281.786Z" fill="#E6E6E6"/>
<path d="M21.5261 471.244C21.5261 471.244 5.90037 469.83 4.1019 476.878C2.30343 483.926 0.135991 496.992 0.135991 496.992C0.135991 496.992 -2.30077 504.294 13.4555 504.932C29.2117 505.57 28.9571 502.88 28.9571 502.88C28.9571 502.88 28.6955 490.313 29.4642 488.079C30.233 485.846 30.2358 477.258 30.2358 477.258C30.2358 477.258 27.5746 468.555 21.5261 471.244Z" fill="#090814"/>
<path d="M138.063 250.126C138.063 250.126 86.8588 238.552 85.5121 233.941C84.1653 229.331 54.579 232.788 52.6542 236.439C50.7295 240.09 50.4019 131.142 50.4019 131.142C50.4019 131.142 50.6482 115.962 50.4019 106.547C50.1557 97.1315 39.588 93.4806 44.968 83.4887C50.3479 73.4968 64.3751 61.5837 64.3751 61.5837C64.3751 61.5837 74.1748 62.7369 78.4038 59.0859C78.833 58.7198 92.8533 55.2891 92.8533 55.2891L107.057 69.8087C107.057 69.8087 114.043 84.6425 114.551 88.2563C114.568 88.412 114.568 88.5692 114.551 88.7249L116.987 74.4522C116.987 74.4522 127.209 78.2953 127.209 83.8752C127.209 83.8752 129.515 102.706 131.821 107.317C134.128 111.928 130.669 157.08 130.669 157.08C130.669 157.08 135.281 216.646 136.818 220.874C138.355 225.101 138.063 250.126 138.063 250.126Z" fill="#6C63FF"/>
<path opacity="0.1" d="M106.456 280.886C106.456 280.886 102.867 301.508 96.4642 310.73C90.0615 319.953 80.0703 340.582 80.0703 340.582" fill="black"/>
<path d="M115.145 29.0488H73.918C73.1432 29.0488 72.5151 29.6769 72.5151 30.4517V45.5773C72.5151 46.3521 73.1432 46.9802 73.918 46.9802H115.145C115.92 46.9802 116.548 46.3521 116.548 45.5773V30.4517C116.548 29.6769 115.92 29.0488 115.145 29.0488Z" fill="#3A3768"/>
<path d="M107.955 39.8776C108.982 39.8776 109.815 39.0448 109.815 38.0174C109.815 36.9901 108.982 36.1572 107.955 36.1572C106.928 36.1572 106.095 36.9901 106.095 38.0174C106.095 39.0448 106.928 39.8776 107.955 39.8776Z" fill="#E6E8EC"/>
<path d="M71.8694 98.6671C71.8694 98.6671 56.7514 103.278 51.5019 99.8202C46.2524 96.3622 36.3223 81.3726 36.3223 81.3726C36.3223 81.3726 39.189 60.275 41.7022 59.5062C44.2155 58.7374 42.9318 79.49 42.9318 79.49C42.9318 79.49 46.5211 87.4989 47.8664 87.4989C49.2117 87.4989 58.4349 86.3457 59.5873 84.0401C60.7398 81.7345 62.6617 67.5151 62.6617 67.5151L63.0889 62.8029L71.8848 65.3982L77.8414 80.1626L71.8694 98.6671Z" fill="#6C63FF"/>
<path d="M51.8088 88.3079C45.3297 88.7842 39.9799 83.2506 40.2801 76.7792C40.6182 69.539 41.2411 59.5941 42.0786 58.1485C43.4239 55.8429 56.1072 38.9335 56.1072 38.9335C56.1072 38.9335 96.2641 17.6043 92.0373 34.3236C87.8105 51.043 71.2854 53.1543 71.2854 53.1543L63.7914 49.3111L63.5992 73.5217C63.5992 73.5217 61.9157 87.5777 51.8088 88.3079Z" fill="#ED9DA0"/>
<path d="M170.85 99.1913C184.858 99.1913 196.213 87.8356 196.213 73.8276C196.213 59.8196 184.858 48.4639 170.85 48.4639C156.842 48.4639 145.486 59.8196 145.486 73.8276C145.486 87.8356 156.842 99.1913 170.85 99.1913Z" fill="#ED9DA0"/>
<path d="M141.682 129.805C142.954 133.155 146.728 134.825 150.257 135.462C153.736 136.087 157.301 136.055 160.769 135.368C157.698 132.17 155.71 128.087 155.087 123.697C154.14 116.876 159.677 109.915 158.674 103.104C157.643 96.1099 149.986 89.9724 149.197 82.9482C150.764 83.9597 152.567 82.0364 153.39 80.3614C154.897 77.2817 156.171 74.0929 157.199 70.8219C158.474 66.7592 159.616 62.2083 163.123 59.7961C163.743 59.3682 164.58 59.0245 165.221 59.4208C165.654 59.7648 165.937 60.2627 166.011 60.8104C167.216 65.5338 173.313 69.2465 175.039 73.8114C176.681 78.1434 179.643 81.8694 181.263 86.2183C184.976 96.166 175.178 108.431 174.595 119.034C174.442 123.722 174.615 128.416 175.112 133.08C175.175 133.828 175.295 134.672 175.915 135.092C176.321 135.313 176.783 135.411 177.243 135.372C179.325 135.385 181.394 135.039 183.359 134.35C184.129 134.011 184.948 133.798 185.785 133.719C187.024 133.699 188.152 134.38 189.342 134.736C193.351 135.941 197.524 133.36 200.437 130.354C203.349 127.347 205.816 123.704 209.562 121.845C210.787 121.234 212.391 120.351 212.062 119.019C211.905 118.566 211.63 118.163 211.265 117.852C209.683 116.39 208.227 114.799 206.91 113.095C205.037 110.442 204.062 107.273 203.112 104.17C201.739 99.6739 200.353 95.0669 200.611 90.3743C200.733 88.0483 201.262 85.7617 201.464 83.4301C201.864 78.8063 200.959 74.1825 200.061 69.6316C199.451 66.5305 198.786 63.3187 196.877 60.7935C195.579 59.082 193.796 57.8118 192.339 56.2342C190.165 53.8753 188.805 50.9034 187.044 48.2204C185.282 45.5374 182.893 42.9989 179.758 42.3186C177.86 41.9047 175.885 42.221 173.967 42.5409C172.416 42.7461 170.892 43.1189 169.421 43.6527C168.279 44.1086 167.228 45.2337 166.059 45.4476C163.73 45.8839 161.171 44.97 158.678 45.5585C156.232 46.1111 153.939 47.1992 151.964 48.7444C149.989 50.2896 148.381 52.2535 147.256 54.4947C146.835 55.3938 146.48 56.3224 146.194 57.2731C145.783 58.6058 145.469 59.9715 145.158 61.3329C145.088 61.6135 145.027 61.9109 144.966 62.1971C143.063 71.2456 144.291 77.8327 145.122 87.2438C145.953 96.6549 146.156 109.265 143.538 118.365C142.438 122.158 140.279 126.117 141.682 129.805Z" fill="#090814"/>
<path d="M225.424 109.806C237.859 109.806 247.94 99.7247 247.94 87.2891C247.94 74.8535 237.859 64.7725 225.424 64.7725C212.988 64.7725 202.907 74.8535 202.907 87.2891C202.907 99.7247 212.988 109.806 225.424 109.806Z" fill="#ED9DA0"/>
<path d="M225.621 58.4636C225.621 58.4636 248.715 54.3399 252.837 74.9584C253.825 79.7457 254.478 84.5963 254.791 89.4745C255.44 101.423 258.715 113.081 264.383 123.619L227.269 134.341C227.269 134.341 237.166 118.671 235.517 112.073C235.212 110.417 235.235 108.719 235.587 107.073C239.434 104.701 242.354 101.084 243.86 96.8234C245.367 92.5624 245.369 87.9141 243.868 83.6514C242.366 79.3887 239.45 75.7685 235.606 73.3928C231.761 71.017 227.219 70.0289 222.735 70.5927C218.251 71.1565 214.094 73.2383 210.958 76.4919C207.821 79.7454 205.892 83.9747 205.492 88.4765C205.092 92.9783 206.246 97.4813 208.76 101.237C211.275 104.992 214.999 107.774 219.313 109.119C222.074 115.124 223.575 121.62 219.846 126.093C215.134 131.852 209.572 136.858 203.351 140.939C203.351 140.939 207.475 121.145 200.877 109.599C194.279 98.0523 200.879 60.1162 225.621 58.4636Z" fill="#090814"/>
<path d="M207.98 79.2615L243.809 87.1877L244.873 69.0564L211.195 67.8457L207.98 79.2615Z" fill="#090814"/>
</svg>
