<svg width="110" height="91" viewBox="0 0 110 91" fill="none" xmlns="http://www.w3.org/2000/svg">
<path d="M8.75977 68.3201L11.078 68.4717L11.459 62.8023L9.13921 62.6477L8.75977 68.3201Z" fill="#8D96FE"/>
<path d="M95.7294 80.8389H93.5068V19.0023H95.7294V80.8389Z" fill="#FFB502"/>
<path d="M110 25.5898H79.8428L83.9148 0.00028038H105.927L110 25.5898Z" fill="#FFCF03"/>
<path d="M108.113 81.8936H82.0068L84.0444 79.3153H106.077L108.113 81.8936Z" fill="#8D5F4B"/>
<path d="M109.34 21.5947H80.5039V21.2686H109.34V21.5947Z" fill="white"/>
<path d="M106.488 3.69238H83.3555V3.36476H106.488V3.69238Z" fill="white"/>
<path d="M21.7664 24.9552L20.9199 25.0256C20.8641 25.0317 21.2276 27.2456 21.2802 27.2578L22.1045 27.0511C22.0646 27.0802 21.7138 24.9567 21.7664 24.9552Z" fill="#1D1B3A"/>
<path d="M21.834 21.7889L20.989 21.6741C20.9412 21.6741 20.7929 23.9277 20.8599 23.9277L21.7097 23.9078C21.6475 23.9063 21.7894 21.7843 21.834 21.7889Z" fill="#1D1B3A"/>
<path d="M77.4197 76.5C77.3399 79.5207 75.8954 81.9397 74.199 81.8999C72.501 81.8586 71.1953 79.3722 71.2814 76.3484L71.2957 75.6977C71.3786 72.674 72.8215 70.258 74.5179 70.3009C76.2111 70.3422 77.5248 72.8209 77.4387 75.8462L77.4197 76.5Z" fill="#774B3C"/>
<path d="M31.5702 77.2508C31.4905 80.2716 30.0444 82.6952 28.348 82.6508C26.65 82.6094 25.3442 80.123 25.4287 77.1008L25.4446 76.4486C25.526 73.4248 26.9689 71.0104 28.6653 71.0517C30.3633 71.0946 31.6722 73.5733 31.5877 76.5971L31.5702 77.2508Z" fill="#774B3C"/>
<path d="M18.6238 73.6037C18.5377 76.7912 17.0167 79.3481 15.2247 79.3021C13.4326 79.2593 12.0535 76.6351 12.1428 73.4444L12.1587 72.7585C12.2448 69.5648 13.769 67.0172 15.5595 67.0631C17.35 67.1091 18.7339 69.7225 18.643 72.9132L18.6238 73.6037Z" fill="#774B3C"/>
<path d="M68.9166 42.931C68.9166 42.931 104.176 57.6901 95.5663 65.5672C86.9632 73.4474 72.185 66.247 72.185 66.247C72.185 66.247 52.1534 53.5165 68.9166 42.931Z" fill="#D34F8B"/>
<path d="M20.5696 71.3434C20.5696 71.3434 -0.806042 35.9247 10.8185 26.1981C22.6327 16.3168 49.4132 15.2712 62.2271 18.0193C68.839 19.4417 84.0858 28.1823 60.7443 72.3232L20.5696 71.3434Z" fill="#E5649A"/>
<path d="M19.031 62.2391C17.3665 63.9049 13.6755 68.4627 17.883 74.5562C22.0874 80.6436 62.1665 80.2057 74.8289 75.9403C87.4946 71.6656 77.3384 62.5683 75.237 61.0725C62.5315 52.044 26.5388 54.7325 19.031 62.2391Z" fill="#C64686"/>
<path d="M28.5111 33.3443C28.4697 34.7896 27.3249 35.9348 25.9522 35.8996C24.5794 35.869 23.5048 34.6671 23.5399 33.2264C23.5845 31.775 24.7245 30.6328 26.0989 30.6635C27.4684 30.6987 28.5494 31.899 28.5111 33.3443Z" fill="#D34F8B"/>
<path d="M49.0652 47.962C49.0285 49.4073 47.8837 50.5525 46.5078 50.5188C45.1335 50.4851 44.0589 49.2848 44.0987 47.8441C44.1386 46.3927 45.277 45.249 46.6529 45.2797C48.0241 45.3133 49.1066 46.5167 49.0652 47.962Z" fill="#4E86D8"/>
<path d="M9.35605 52.328C19.7688 51.1599 49.5882 66.1807 40.022 74.8815C30.4606 83.5824 12.0999 72.585 12.0999 72.585C12.0999 72.585 -13.1914 54.8527 9.35605 52.328Z" fill="#D34F8B"/>
<path d="M64.1179 60.9196C64.6807 67.7678 67.3752 81.8808 70.4124 80.9147C73.4369 79.9563 74.8113 78.4421 72.9028 78.537C70.9992 78.6289 70.8668 78.4605 70.76 77.9399C70.0457 74.6314 71.1123 67.6683 70.8875 62.6266C70.6324 56.7797 63.622 54.9332 64.1179 60.9196Z" fill="#F9B5A0"/>
<path d="M68.6699 79.9929C68.6699 79.9929 71.6546 80.1628 72.903 78.5368C72.903 78.5368 75.9945 77.9398 74.3906 79.31C72.7802 80.6864 69.397 82.5298 68.6699 79.9929Z" fill="#AA60FF"/>
<path d="M53.5404 48.261C53.5404 48.261 64.5957 44.2145 68.8351 48.4187C72.636 52.2064 72.0398 72.2782 72.0398 72.2782C72.0398 72.2782 69.3086 74.7508 65.6926 74.2532C65.6926 74.2532 64.6084 61.6896 61.206 59.8126C58.8304 58.5035 53.5898 61.5916 50.2576 59.3012C42.3559 53.8538 48.3316 50.9648 48.3316 50.9648L53.5404 48.261Z" fill="#FFB502"/>
<path d="M54.874 56.1457L61.2068 59.8125L57.4059 59.5522L54.874 56.1457Z" fill="#1D1B3A"/>
<path d="M48.5889 69.5949C44.493 75.2229 37.2338 87.7651 40.2105 88.8735C43.1855 89.9805 45.247 89.6467 43.7149 88.5551C42.1763 87.465 42.1907 87.2552 42.4553 86.7852C44.088 83.7982 49.5183 79.0704 52.6832 75.0392C56.355 70.3726 52.1634 64.6665 48.5889 69.5949Z" fill="#F9B5A0"/>
<path d="M39.4803 87.0964C39.4803 87.0964 41.671 89.05 43.715 88.5555C43.715 88.5555 46.4971 89.9824 44.3463 90.0605C42.1955 90.1432 38.3627 89.5017 39.4803 87.0964Z" fill="#AA60FF"/>
<path d="M48.7986 53.3658C48.7986 53.3658 60.0118 56.9882 60.4996 62.8199C60.9285 68.0652 47.1867 83.1978 47.1867 83.1978C47.1867 83.1978 43.4432 83.4443 40.9783 80.8492C40.9783 80.8492 48.4558 70.4888 47.0719 66.9628C46.1073 64.5009 40.0152 63.6864 38.9566 59.8864C36.463 50.8595 42.9887 52.2742 42.9887 52.2742L48.7986 53.3658Z" fill="#FFCF03"/>
<path d="M52.4761 54.8629C52.4761 54.8629 50.8626 58 38.6083 58.4072C38.6083 58.4072 38.13 55.6927 38.3898 55.1477C38.3898 55.1477 45.3748 55.904 52.4761 54.8629Z" fill="#1D1B3A"/>
<path d="M42.4609 82.0459L42.1994 81.8392C44.1876 79.4952 51.7178 67.9834 50.581 63.7318C50.4009 63.0535 50.015 62.608 49.4043 62.3707C44.3582 60.411 42.1994 56.2604 42.1787 56.219L42.4833 56.0751C42.5056 56.1149 44.6101 60.1568 49.5319 62.0676C50.2398 62.3447 50.7022 62.8744 50.9095 63.6506C52.1531 68.3065 43.9708 80.2699 42.4609 82.0459Z" fill="white"/>
<path d="M49.3301 37.4059C48.8247 36.7047 49.3253 34.9822 51.1588 33.3088C53.6173 31.072 62.3209 36.625 63.6379 32.3183C64.9564 28.0023 62.769 25.8129 61.4967 24.1671C60.2244 22.5182 58.9186 22.434 58.2904 21.3944C57.6654 20.3533 58.9823 19.6965 61.6736 21.8629C62.9635 22.9025 69.1352 27.2934 69.3999 32.7301C69.8304 41.5121 52.3179 41.5932 49.3301 37.4059Z" fill="#FBC6B4"/>
<path d="M49.6541 35.7341C49.6541 35.7341 49.3735 39.4422 55.1068 39.998C60.8417 40.5599 63.4198 40.0424 63.4198 40.0424C63.4198 40.0424 64.8834 36.7032 63.2763 31.2405C63.2763 31.2405 49.2746 30.4628 49.6541 35.7341Z" fill="#8A43EF"/>
<path d="M57.4967 51.4481C59.5932 46.9362 59.8452 40.6039 58.836 35.9664C57.4361 29.5284 51.1432 29.2038 47.3167 29.7029C43.4886 30.2066 37.2052 30.8925 39.4038 38.8125C40.9312 44.3395 39.549 47.7216 37.7601 53.0832C37.7075 53.2256 37.6532 53.3496 37.599 53.4889C37.5958 53.4798 37.5847 53.4752 37.5847 53.4752C37.5847 53.4782 37.5958 53.4813 37.599 53.4889C34.6574 59.3053 55.1258 56.5709 57.4967 51.4481Z" fill="#AA60FF"/>
<path d="M51.7562 25.2799C51.7562 25.2799 52.2839 28.4614 49.7792 29.3754C47.2107 30.3139 54.1207 36.7626 54.4109 35.0754C54.7871 32.8907 54.0442 31.329 55.8554 29.2024L51.7562 25.2799Z" fill="#F7B2A0"/>
<path d="M58.0006 21.274C59.3543 23.4848 59.1103 31.4797 56.6582 32.5775C55.5804 33.0414 52.3056 31.2562 51.0684 27.3705C50.5645 25.7782 50.1914 22.9489 52.3741 20.8055C53.3594 19.8378 56.4206 18.7018 58.0006 21.274Z" fill="#FBC6B4"/>
<path d="M59.633 22.7026C59.7654 23.7498 59.5772 23.9335 56.5208 23.5401C53.4708 23.1527 53.0244 22.8327 53.1232 23.5829C53.3991 25.7907 51.4332 24.8231 51.7872 27.4656C52.1411 30.1112 50.1306 27.9984 49.6236 25.7754C49.5327 25.3283 48.8854 23.1083 51.1781 20.5852C53.8805 17.6456 59.1372 18.8551 59.633 22.7026Z" fill="#1D1B3A"/>
<path d="M44.9121 44.9748L42.1794 52.1982L38.9619 43.6827L44.9121 44.9748Z" fill="#1D1B3A"/>
<path d="M42.7353 31.8358C43.6011 32.064 45.7837 33.5383 45.5206 35.9558C45.1587 39.1909 41.2669 44.6704 43.1753 48.7705C45.0918 52.8752 48.2263 53.1753 50.3022 53.6407C52.3876 54.1031 53.443 53.3529 54.6245 53.7555C55.7995 54.149 55.2479 55.481 51.7307 55.5009C50.0439 55.5116 41.7341 56.5252 38.5103 52.0438C34.3011 46.1724 37.6366 30.5115 42.7353 31.8358Z" fill="#FBC6B4"/>
<path d="M43.4959 31.2118C43.4959 31.2118 39.8002 30.0957 37.914 35.3272C36.0295 40.5556 35.9609 43.0818 35.9609 43.0818C35.9609 43.0818 39.0062 45.2222 44.9117 44.9741C44.9117 44.9741 48.9216 32.0691 43.4959 31.2118Z" fill="#8A43EF"/>
</svg>
