<svg width="93" height="93" viewBox="0 0 93 93" fill="none" xmlns="http://www.w3.org/2000/svg">
<path d="M73.2393 88.3846C73.24 88.8952 73.2408 89.4057 73.2371 90.0736C73.2027 90.9017 72.7889 91.1544 72.2313 91.1886C71.6101 91.2268 70.9862 91.2135 70.2928 91.2197C69.908 91.2725 69.594 91.3281 69.28 91.3838C69.148 91.3839 69.016 91.384 68.8181 91.3839C67.513 91.3267 66.2739 91.2665 65.0346 91.2147C64.649 91.1986 64.2625 91.2053 63.813 91.1343C63.8588 90.7397 63.968 90.4124 64.0772 90.085C65.3475 89.3483 66.6239 88.6228 67.8854 87.8697C68.436 87.5409 68.9562 87.1556 69.6298 86.7764C70.7767 87.1332 71.7828 87.555 72.8552 86.8984C73.0094 87.4348 73.1243 87.9097 73.2393 88.3846Z" fill="#737373"/>
<path d="M80.0996 91.3415C78.9154 91.3608 77.815 91.3948 76.7152 91.3806C76.4377 91.377 76.1622 91.2198 75.5967 91.0426C76.1597 90.6529 76.4925 90.4239 76.8239 90.1929C78.1755 89.2507 79.8216 88.6916 80.7988 87.0755C81.108 86.9315 81.3206 86.8484 81.6013 86.7764C82.1043 86.9144 82.5392 87.0414 83.029 87.2101C83.4707 87.2434 83.8575 87.235 84.3065 87.2089C84.5768 87.1454 84.7849 87.0997 85.03 87.096C85.1743 87.5382 85.2815 87.9383 85.3862 88.4251C85.3813 88.8212 85.3782 89.1307 85.3768 89.4402C85.37 90.9142 85.1635 91.1056 83.6676 91.1542C83.0654 91.1738 82.4657 91.2725 81.8649 91.3352C81.3045 91.3362 80.744 91.3372 80.0996 91.3415Z" fill="#737373"/>
<path d="M64.9009 90.0247C64.8258 90.3963 64.7143 90.7176 64.5802 91.0981C63.0389 91.1653 61.5193 91.1506 60.0012 91.1912C59.2551 91.2111 58.9398 90.8701 58.9257 90.1608C58.9202 89.8843 58.9128 89.6072 58.9253 89.3312C58.9933 87.8384 59.3139 87.5959 60.7879 87.7978C61.356 87.8756 61.9406 87.8692 62.5155 87.8463C63.094 87.8233 63.4717 88.0238 63.7737 88.5471C64.0709 89.0621 64.4956 89.5018 64.9009 90.0247Z" fill="#737373"/>
<path d="M43.6904 91.299C44.0133 90.9068 44.3362 90.5147 44.7454 90.0562C44.9314 89.8972 45.0312 89.8045 45.191 89.6968C45.9208 89.2983 46.5905 88.9147 47.3194 88.5232C47.5029 88.4157 47.6273 88.3161 47.8073 88.2401C48.0833 88.1836 48.3035 88.1034 48.6031 88.0234C50.0273 87.9901 51.3722 87.9448 52.7174 87.9278C53.4899 87.9181 53.8072 88.5704 53.8381 89.1812C53.8761 89.9294 53.657 90.6964 53.5059 91.4454C53.4899 91.5246 53.1831 91.5798 53.013 91.5751C49.9053 91.4896 46.7979 91.3931 43.6904 91.299Z" fill="#737373"/>
<path d="M17.7661 92.1079C17.8369 90.6696 17.9077 89.2312 18.097 87.7363C19.2255 88.1136 20.2359 88.5248 21.3557 87.7618C22.1357 87.8422 22.8303 87.917 23.552 88.0553C24.6761 88.8199 25.7731 89.521 26.8702 90.222C27.5003 90.6371 28.1356 91.0431 28.7572 91.4734C28.9222 91.5877 29.045 91.7767 29.1872 91.9314C29.0289 92.0629 28.8707 92.1944 28.5716 92.3335C25.9814 92.277 23.5257 92.3747 21.0761 92.3335C20.528 92.3242 20.0706 92.3335 19.4356 92.3244C19.2364 92.3242 19.0372 92.3241 18.7051 92.2847C18.3036 92.1996 18.0349 92.1538 17.7661 92.1079Z" fill="#737373"/>
<path d="M11.3323 87.7368C12.5083 88.6517 13.6769 89.5789 14.8636 90.4757C15.3761 90.863 15.9258 91.1873 16.6785 91.6859C16.1896 91.9781 15.9406 92.1269 15.6402 92.3151C15.0882 92.3538 14.5877 92.353 13.936 92.3127C12.1713 92.2027 10.5558 92.0484 8.94481 92.0956C8.07413 92.1211 7.75055 91.8179 7.80034 90.8889C7.80582 89.9095 7.81129 88.9301 7.87662 87.8228C8.19378 87.6353 8.45109 87.5758 8.77552 87.5439C9.67253 87.6267 10.5024 87.6817 11.3323 87.7368Z" fill="#737373"/>
<path d="M40.4272 90.6484C40.4277 90.286 40.4281 89.9237 40.4438 89.405C40.5204 89.0776 40.5815 88.9065 40.7258 88.7551C41.2449 88.8319 41.6955 88.9895 42.1137 88.9256C43.0766 88.7784 44.0238 88.5236 44.9774 88.3125C46.9081 88.6366 48.3017 90.0672 50.0011 90.8714C50.5832 91.1469 50.4966 91.5715 49.9269 91.8312C49.6507 91.957 49.3417 92.0078 48.8764 92.1094C46.1592 92.1241 43.6484 92.1935 41.092 92.1165C40.8753 91.6011 40.6336 91.0889 40.4272 90.6484Z" fill="#482E55"/>
<path d="M30.7727 88.5859C30.962 89.5256 31.1514 90.4652 31.3628 91.5756C31.0623 91.9895 30.7507 92.4214 30.4156 92.4448C28.3378 92.5901 26.2548 92.6436 24.1736 92.7275C23.1362 92.7188 22.0988 92.7101 20.9554 92.6282C20.8409 92.505 20.8323 92.455 20.8642 92.3699C20.9905 92.2742 21.0762 92.2137 21.2292 92.1236C21.5869 91.9111 21.8774 91.728 22.238 91.552C23.0039 91.0224 23.6997 90.4858 24.4718 89.9477C24.8315 89.8338 25.1733 89.7976 25.388 89.5959C26.3625 88.6804 27.4506 88.314 28.8037 88.598C29.5229 88.5969 30.1478 88.5914 30.7727 88.5859Z" fill="#3B2E66"/>
<path d="M41.1524 92.1187C41.0108 92.1945 40.7846 92.1174 40.5574 92.1187C40.4434 91.6505 40.4161 91.1159 40.431 90.6162C40.9119 90.8906 40.9443 91.606 41.1524 92.1187Z" fill="#414141"/>
<path d="M10.5885 18.1195C10.6901 18.0563 10.7917 17.9931 10.9507 17.9424C11.0081 17.9549 11.0753 17.881 11.0753 17.881C11.0753 17.881 11.0753 17.881 11.159 17.881C11.2406 17.8744 11.3465 17.8178 11.5364 17.8625C13.276 18.7106 14.9872 18.6371 16.6902 18.4382C17.534 18.3397 18.36 18.0441 19.269 17.8296C20.9657 18.3509 22.5874 18.8803 24.2437 19.4588C24.4047 19.4155 24.5312 19.3231 24.6434 19.2132C24.6292 19.1956 24.5984 19.2279 24.6621 19.2354C24.7524 19.1582 24.7788 19.0736 24.7945 18.9889C24.7838 18.9889 24.7837 19.0135 24.8444 19.0144C24.9329 18.9353 24.9607 18.8552 24.9786 18.7739C24.9688 18.7728 24.9668 18.7951 25.0215 18.7865C25.1082 18.7042 25.1402 18.6305 25.1625 18.5617C25.1528 18.5666 25.1613 18.5886 25.2185 18.553C25.3059 18.3894 25.3363 18.2614 25.3538 18.1453C25.341 18.1571 25.3609 18.1871 25.4263 18.1867C26.1092 17.2762 26.9654 17.0034 27.5566 16.0715C28.1979 15.0607 30.1699 19.9888 31.3362 19.6354C31.7069 19.8323 30.3321 17.5816 30.6167 17.803C30.942 18.056 31.5583 16.5066 31.9077 16.6447C34.0408 17.4874 30.6904 24.2715 32.4934 22.2151C33.5477 22.4742 31.8287 21.6109 32.8069 21.8866C32.9114 22.1071 33.2943 24.1696 33.4138 24.5174C33.433 24.7314 36.2722 19.9416 36.2588 20.0436C30.3688 27.2709 30.5913 25.3553 35.8404 20.4985C30.0056 27.0693 31.8447 24.201 37.6813 18.6013C34.2712 24.6528 31.6168 24.9793 37.4302 18.24C31.5955 25.4571 37.7809 18.5345 37.7649 18.6013C33.878 21.3573 36.8048 18.2286 36.7608 18.24C36.6594 18.2805 36.6211 18.5439 36.5935 18.6015C36.5938 18.5948 37.3159 18.6834 37.2629 18.6919C37.136 18.7818 38.0494 18.3841 37.9323 18.5112C37.6929 18.777 37.7589 19.3879 37.5139 19.6354C37.3966 19.8009 37.9393 19.0395 37.8486 19.234C37.7692 19.3953 38.2695 18.6492 38.1833 18.7822C38.121 18.8586 38.2028 18.8325 38.1833 18.9629C38.0361 19.3568 38.566 18.5212 38.4002 18.8942C38.3175 19.1713 38.2794 19.3997 38.2408 19.6354C38.2404 19.6427 38.2378 19.6572 38.2197 19.6697C38.1769 19.7309 38.184 19.7712 38.2139 19.8875C38.1894 20.084 38.1736 20.1961 38.1202 20.3417C38.0569 20.6178 38.0312 20.8602 37.9951 21.1878C37.9066 21.9107 37.8287 22.5484 37.7136 23.2236C37.671 23.4738 37.6656 23.6863 37.6532 23.9835C37.6157 24.3489 37.5852 24.6297 37.5237 24.9358C37.4953 25.0895 37.4977 25.2179 37.4923 25.4319C37.4493 25.8009 37.414 26.0845 37.3426 26.4074C37.2994 26.6613 37.2925 26.8759 37.2793 27.1586C37.2596 27.3627 37.2461 27.4987 37.185 27.6931C37.1029 28.4597 37.0684 29.168 37.0252 29.9584C36.9578 30.7345 36.8989 31.4285 36.7803 32.1578C36.0981 32.3063 35.4759 32.4196 34.8376 32.4932C34.7127 32.4442 34.6039 32.4349 34.4109 32.4265C33.8227 32.4087 33.3186 32.3901 32.8069 32.2945C32.3158 31.417 31.8321 30.6164 31.3428 29.8158C31.3372 29.8158 31.339 29.8031 31.3362 29.728C31.1551 29.353 30.9767 29.0531 30.7887 28.7495C30.7791 28.7458 30.7661 28.7281 30.7506 28.6955C30.7109 28.6215 30.6821 28.5847 30.6167 28.4899C30.442 28.252 30.2992 28.0769 30.1641 27.8427C30.1736 27.7037 30.1755 27.6238 30.1824 27.4399C30.0618 25.7267 30.0013 24.106 29.7862 22.5124C29.6563 21.5497 29.191 20.7122 28.1699 20.0436C28.213 20.7391 28.2117 21.176 28.2723 21.6014C28.4112 22.5757 28.6543 23.5392 28.7076 24.5174C28.7361 25.0421 28.4595 25.5883 28.2383 26.1389C27.6558 26.1714 27.1556 26.1899 26.6142 26.1863C26.4776 26.3261 26.3824 26.4879 26.2889 26.7344C26.2895 27.0447 26.2884 27.2704 26.2648 27.5354C26.2582 27.6904 26.274 27.8061 26.2911 28.021C26.3001 29.2474 26.3079 30.3745 26.3085 31.6024C26.2775 32.7089 26.2535 33.7146 26.1922 34.7758C26.1032 35.1477 26.0517 35.4639 25.982 35.8625C25.7346 37.1824 25.347 38.4141 25.3116 39.6589C25.2518 41.7631 25.4147 43.8755 25.3948 45.9812C24.7738 46.0812 24.2421 46.1845 23.6285 46.3092C23.3795 46.3454 23.2123 46.3602 23.0059 46.3379C22.782 46.3531 22.5974 46.4055 22.3441 46.4798C22.134 46.5222 21.9927 46.5427 21.7967 46.5314C21.5971 46.5514 21.4521 46.6032 21.2284 46.6775C20.935 46.7307 20.7205 46.7614 20.45 46.7594C20.2018 46.7796 20.0094 46.8325 19.7489 46.9065C19.5873 46.9412 19.494 46.9547 19.3266 46.9335C17.9473 47.1038 16.642 47.3088 15.2664 47.5352C15.0997 47.5678 15.0032 47.5789 14.8302 47.5548C14.1164 47.6007 13.4793 47.6817 12.7681 47.7808C12.4915 47.8069 12.2889 47.8147 12.0258 47.7832C10.1948 47.4684 10.0506 47.1918 10.6686 45.256C11.0319 44.1179 10.7846 43.118 9.97758 42.3253C9.53501 41.8906 9.12407 41.4141 8.69708 40.8597C8.45389 37.7679 8.21249 34.7728 7.97656 31.6768C8.09543 30.2088 8.09002 28.8116 8.35065 27.482C8.72124 25.5915 9.30507 23.7563 9.76372 21.8866C10.0694 20.6407 10.3156 19.3759 10.5885 18.1195Z" fill="#A4A4A4"/>
<path d="M86.2619 47.8635C86.2699 48.3641 86.2779 48.8646 86.2923 49.5326C86.2487 52.824 86.1826 55.9479 86.1528 59.0722C86.1213 62.3826 86.1476 65.6936 86.106 69.0038C86.0597 72.6853 85.9672 76.3662 85.8907 80.0473C85.8548 81.7773 85.8091 83.5071 85.744 85.2814C85.6597 85.4443 85.5993 85.5628 85.4607 85.7059C85.3316 85.7507 85.2808 85.7711 85.1611 85.7919C83.8462 85.7361 82.6004 85.6797 81.3243 85.5885C81.2619 85.5 81.2213 85.4543 81.1684 85.347C81.0733 85.0158 80.9819 84.7542 80.8941 84.4226C80.7944 83.9076 80.6912 83.4624 80.5944 82.9448C80.5723 82.7306 80.5436 82.589 80.5226 82.3981C80.4968 82.2574 80.4634 82.1659 80.4324 82.0102C80.4109 81.8648 80.3871 81.7835 80.3716 81.6273C80.1732 80.1537 79.9333 78.7589 79.7691 77.3549C79.5907 75.8305 79.4827 74.2976 79.3543 72.6834C79.3245 71.9136 79.2844 71.2288 79.2561 70.4644C79.114 68.3795 78.9771 66.3726 78.7993 64.3695C78.7067 63.3253 78.5419 62.2878 78.4201 61.1765C78.4073 60.9654 78.3841 60.8252 78.374 60.6059C78.2803 59.7089 78.1735 58.8909 78.075 58.0122C78.0701 57.8713 78.057 57.7912 78.0524 57.6326C77.9559 56.5183 77.7984 55.505 76.8154 54.5356C76.3967 55.4929 76.0235 56.2539 75.7264 57.0444C75.0865 58.7469 74.4515 60.4528 73.8823 62.1804C73.5563 63.1699 73.1467 64.2075 73.1587 65.2186C73.1796 66.9708 73.5415 68.7157 73.6846 70.47C74.071 75.2075 73.9551 79.9426 73.5019 84.6701C73.4643 85.0616 73.3063 85.4411 73.1325 85.8161C71.743 85.6897 70.4252 85.5733 69.0643 85.4025C68.8556 84.8901 68.6279 84.4448 68.534 83.9721C67.5409 78.9683 67.3386 73.9021 67.4098 68.8149C67.4184 68.1976 67.3736 67.5786 67.3336 66.9617C67.1194 63.6617 66.8105 60.3648 66.7179 57.0615C66.6715 55.4069 66.9937 53.7383 67.1877 52.0807C67.5793 48.7346 67.9973 45.3917 68.4869 42.0439C70.1824 42.0882 71.7957 42.1308 73.4087 42.185C77.302 42.3161 81.1952 42.4526 85.1241 42.6581C85.5271 44.4407 85.8945 46.1521 86.2619 47.8635Z" fill="#A4A4A4"/>
<path d="M85.2217 43.7719C81.3231 43.6325 77.4245 43.4908 73.5258 43.3548C71.9107 43.2985 70.2952 43.2544 68.5447 43.169C67.5351 42.6708 67.5561 41.7655 67.5607 40.9649C67.5703 39.3067 67.6945 37.6492 67.7837 35.9465C67.834 35.8117 67.8723 35.7218 67.9119 35.6428C67.9134 35.6537 67.8872 35.6849 67.9323 35.5596C68.0093 35.3514 68.0412 35.2686 68.0658 35.1804C68.1067 35.0822 68.1547 34.9895 68.234 34.7928C68.4276 34.2215 68.5901 33.7542 68.7572 33.2954C68.7618 33.3039 68.7368 33.327 68.7614 33.2139C68.8899 32.7298 68.9938 32.3586 69.0969 31.9973C69.0961 32.007 69.0829 31.9749 69.0979 31.8453C69.0993 31.1959 69.0858 30.6761 69.0716 30.1613C69.071 30.1663 69.0548 30.1199 69.0548 30.1199C69.0548 30.1199 69.0756 30.1181 69.0531 30.0137C68.3511 27.6875 67.7182 25.4483 66.9778 23.2492C66.3385 21.3502 65.3009 19.762 63.3631 19.0034C63.3251 18.8741 63.2971 18.8023 63.269 18.7306C64.0149 17.5596 65.0887 16.923 66.3518 16.5398C67.7434 16.1175 69.1158 15.6248 70.6254 15.1753C73.2894 15.7669 75.8216 16.3146 78.1157 14.3984C80.2516 15.4005 82.4598 16.263 84.5059 17.4386C87.34 19.0668 89.2865 21.6537 90.699 24.6876C91.1947 25.7522 91.669 26.828 92.1452 27.9025C93.3681 30.6615 93.3144 33.3579 91.7542 36.0398C91.4345 36.3626 91.1357 36.6231 90.7533 36.9663C89.9053 37.7357 89.0691 38.3527 88.3936 39.1257C87.4185 40.2415 86.56 41.4704 85.6518 42.6511C85.6518 42.6511 85.6554 42.6676 85.6038 42.7007C85.442 43.0799 85.3319 43.4259 85.2217 43.7719ZM85.1148 31.6766C84.9405 33.3357 84.7661 34.9948 84.5808 36.7582C86.1141 36.1335 87.3773 34.0471 87.3918 32.3802C87.4031 31.0892 86.4894 29.6077 85.3443 29.1093C85.2752 29.9154 85.2073 30.7084 85.1148 31.6766Z" fill="#737373"/>
<path d="M51.6961 18.1968C51.6961 18.1968 51.7633 18.1694 51.8231 18.1691C51.8829 18.1688 51.9624 18.2096 51.9931 18.2669C54.5531 19.8767 57.0739 20.0353 59.6602 18.2555C60.8138 18.3069 61.8902 18.3763 62.9667 18.4456C63.0507 18.4508 63.1348 18.456 63.3369 18.4888C63.6688 18.5572 63.8826 18.598 64.0964 18.6388C66.0156 19.3377 67.0486 20.9207 67.6851 22.8137C68.4221 25.0056 69.0522 27.2376 69.7464 29.5592C69.7642 29.6661 69.7701 29.6984 69.7701 29.6984C69.7836 30.2166 69.7971 30.7347 69.7919 31.3755C69.7733 31.4981 69.7955 31.5238 69.7955 31.5238C69.692 31.8937 69.5886 32.2636 69.4589 32.7381C69.4327 32.8426 69.4519 32.819 69.4519 32.819C69.2901 33.2848 69.1284 33.7506 68.9461 34.2961C68.8755 34.4877 68.8254 34.5997 68.7754 34.7117C68.7437 34.7943 68.7119 34.8768 68.6165 35.0715C68.5528 35.1835 68.6136 35.1565 68.6136 35.1565C68.5755 35.246 68.5374 35.3356 68.4873 35.47C68.4331 35.5513 68.391 35.5879 68.2368 35.7157C67.5643 36.2641 67.0038 36.7212 66.4433 37.1783C66.4433 37.1783 66.4317 37.1753 66.3706 37.1961C66.0666 37.3834 65.8238 37.5499 65.581 37.7164C65.5224 37.726 65.4639 37.7355 65.3091 37.7938C65.0886 38.2088 64.8637 38.573 64.8568 38.9417C64.8178 41.0243 64.8066 43.1084 64.8414 45.191C64.8522 45.8428 64.6457 46.1945 64.0753 46.409C62.8178 46.8817 61.5474 47.3315 60.3293 47.9024C58.199 48.901 56.0071 49.372 53.6629 49.0446C53.6437 49.0275 53.5939 49.033 53.5411 48.9902C51.7075 48.3903 49.9356 47.797 48.1389 47.3042C47.7422 47.1954 47.2577 47.443 46.7855 47.5494C46.7574 47.5723 46.7365 47.644 46.6633 47.6754C46.3951 47.659 46.2002 47.6112 46.0053 47.5634C45.8706 47.2986 45.7359 47.0338 45.5753 46.7126C45.4588 46.5082 45.3681 46.3603 45.2775 46.2123C45.2775 46.2123 45.285 46.1181 45.2763 46.0717C44.9633 45.1324 44.7333 44.2013 44.3425 43.3527C42.1297 38.5486 41.2688 33.4509 41.3373 28.1549C41.346 27.4741 41.5476 26.7643 41.7928 26.1247C42.5443 24.1648 43.3562 22.2305 44.1532 20.2902C44.7062 18.9438 45.6821 18.2608 47.0577 17.9752C48.5052 17.6747 49.8827 18.0081 51.3938 18.1884C51.5652 18.2137 51.6307 18.2053 51.6961 18.1968ZM46.1251 35.7989C46.2701 37.5828 46.3871 39.37 46.5781 41.1484C46.6315 41.6459 46.9033 42.1172 47.0749 42.6006C47.3393 42.1467 47.7839 41.7159 47.8391 41.2353C48.2376 37.7681 48.0245 34.3365 47.0417 30.984C46.9656 30.7244 46.7209 30.5197 46.3789 30.0464C45.8158 32.0877 45.9883 33.8588 46.1251 35.7989Z" fill="#A4A4A4"/>
<path d="M51.929 18.2111C51.929 18.2111 51.8477 18.1719 51.8111 18.145C51.4411 18.0031 51.1134 17.8664 50.7728 17.7783C50.2416 17.6409 49.7016 17.5366 49.0932 17.3138C49.0186 16.471 49.0161 15.7327 49.0399 14.9502C49.0498 14.7459 49.0333 14.5857 49.0182 14.3491C49.0179 14.0181 49.0164 13.7634 49.0166 13.4302C49.0703 12.4139 49.1222 11.476 49.2047 10.4921C49.1634 10.1702 49.0914 9.89426 49.0221 9.55272C49.0253 9.35587 49.0257 9.22462 49.0789 9.06239C49.8965 8.18317 50.6614 7.33492 51.4607 6.45812C51.5396 6.3895 51.5799 6.34579 51.6163 6.29842C52.0232 5.65195 52.4111 4.99276 52.8423 4.36265C53.2582 3.75491 53.6602 3.12098 54.1718 2.59767C55.3286 1.41422 57.1255 1.76317 57.7089 3.32473C58.2464 4.76341 58.5667 6.28077 59.0825 7.72859C59.3297 8.42258 59.6812 9.16699 60.2041 9.66232C62.0721 11.4318 62.4841 13.5789 62.1405 15.9794C62.0797 16.4045 61.9879 16.8252 61.8691 17.3811C60.8372 17.6806 59.8465 17.8471 58.8132 18.0097C58.7707 18.0059 58.6912 17.9748 58.6592 17.9399C58.5748 17.8698 58.5225 17.8346 58.4307 17.7413C58.2422 16.5371 58.0931 15.391 57.9892 14.2041C58.2631 13.8855 58.4919 13.6076 58.781 13.3037C58.9432 12.9948 59.1082 12.718 59.1366 12.4282C59.3145 10.6135 58.0152 8.45351 56.3281 7.70857C55.073 7.15437 53.7628 7.53178 52.8481 8.73129C52.316 10.0416 51.7926 11.3029 51.3758 12.5978C51.1927 13.1666 51.5279 13.5567 52.15 13.7391C52.7019 13.9009 53.2162 14.188 53.7344 14.5037C53.7221 15.7219 53.6785 16.8455 52.8779 17.8046C52.7329 17.8912 52.6352 17.9697 52.4601 18.0634C52.2314 18.1228 52.0802 18.167 51.929 18.2111Z" fill="#4A4A4A"/>
<path d="M69.4668 10.575C69.4739 9.9099 69.481 9.24481 69.584 8.51826C71.1342 8.59857 72.5874 8.75419 74.0435 8.8703C74.3321 8.89331 74.7668 8.87491 74.9042 8.68803C75.8023 7.46702 75.1161 5.69329 73.6923 5.39693C72.2908 5.1052 70.8964 4.7759 69.4988 4.46308C69.4775 4.28001 69.4762 4.09133 69.4318 3.91472C69.0449 2.37882 69.2196 1.94944 70.5577 1.164C70.7093 1.07505 70.8483 0.962517 71.0291 0.810767C71.065 0.760613 71.0669 0.763849 71.0669 0.763849C71.8413 0.517792 72.6157 0.271735 73.5338 0.0181784C73.9782 0.00711818 74.2791 0.00355902 74.58 0C75.0037 0.12934 75.4275 0.258681 75.959 0.421624C76.1585 0.494187 76.2503 0.533147 76.3421 0.572105C76.7996 0.840259 77.2494 1.12436 77.7161 1.3735C78.995 2.05624 79.2178 2.32648 78.9284 3.83216C78.6765 5.14292 78.1891 6.40345 77.7287 7.7828C76.6869 8.65844 76.0776 9.6868 75.8617 10.9343C75.7206 11.7496 75.3054 12.0954 74.5558 12.0941C73.1155 12.0916 71.6752 12.0944 70.2348 12.0949C70.0145 11.923 69.7941 11.7511 69.53 11.4604C69.4797 11.0861 69.4733 10.8306 69.4668 10.575Z" fill="#4A4A4A"/>
<path d="M69.4331 4.60742C70.8703 4.83738 72.3071 5.17337 73.751 5.47104C75.2179 5.77342 75.9249 7.58322 74.9996 8.82906C74.858 9.01974 74.4102 9.03851 74.1128 9.01503C72.6126 8.89657 71.1154 8.73778 69.5368 8.57542C69.4496 7.27069 69.4427 5.98367 69.4331 4.60742Z" fill="#DDDDDD"/>
<path d="M70.3644 13.6992C70.3435 13.6005 70.3227 13.5017 70.3598 13.2826C70.797 12.9678 71.1659 12.6484 71.5576 12.6025C72.7304 12.4651 73.9118 12.3902 75.0904 12.3793C75.7881 12.3728 76.1748 11.9847 76.4739 11.3073C76.6739 10.8544 76.9378 10.4414 77.2931 9.79102C77.5502 10.6257 77.8048 11.1255 77.8435 11.6478C77.9173 12.6443 78.241 13.8901 77.2558 14.4398C76.3533 14.9434 75.3139 15.3215 74.3285 15.3429C72.8931 15.3741 71.3061 15.5164 70.3644 13.6992Z" fill="#DDDDDD"/>
<path d="M70.3965 13.6837C71.3266 15.1484 72.8798 15.0286 74.2847 15.0024C75.2491 14.9844 76.2664 14.6664 77.1498 14.2429C78.114 13.7805 77.7972 12.7328 77.7249 11.8947C77.6871 11.4554 77.4379 11.035 77.1862 10.333C76.8385 10.88 76.5802 11.2274 76.3845 11.6083C76.0917 12.178 75.7132 12.5044 75.0304 12.5099C73.8768 12.519 72.7206 12.582 71.5727 12.6976C71.1894 12.7362 70.8283 13.0048 70.407 13.2052C70.2943 12.9266 70.2315 12.6111 70.1582 12.2284C71.6465 12.1605 73.1455 12.1577 74.6444 12.1603C75.4246 12.1616 75.8567 11.8129 76.0035 10.9908C76.2282 9.73299 76.8623 8.6961 77.9124 7.87109C78.084 8.1716 78.3233 8.51421 78.3159 8.85123C78.2777 10.6069 78.1767 12.3612 78.0945 14.195C75.7999 16.1275 73.2706 15.5977 70.6906 15.0084C70.558 14.5686 70.4731 14.158 70.3965 13.6837Z" fill="#DDDDDD"/>
<path d="M73.0585 85.8573C73.0426 86.1669 72.959 86.4684 72.8423 86.8145C71.8137 87.4298 70.8444 87.0947 69.8136 86.7939C69.5836 86.4216 69.414 86.0509 69.2515 85.624C70.5025 85.6616 71.7467 85.7554 73.0585 85.8573Z" fill="#DDDDDD"/>
<path d="M85.3861 85.7658C85.3448 86.1654 85.2346 86.5655 85.0734 87.004C84.8169 87.0806 84.6114 87.1188 84.2684 87.1599C83.7635 87.1545 83.3962 87.1462 83.0288 87.138C82.5994 87.032 82.17 86.926 81.6505 86.7596C81.5682 86.3408 81.5759 85.9824 81.5836 85.624C82.8281 85.6714 84.0727 85.7188 85.3861 85.7658Z" fill="#DDDDDD"/>
<path d="M50.0352 86.0088C50.9029 86.0286 51.7706 86.0484 52.7216 86.071C52.7803 86.6621 52.7558 87.2504 52.6836 87.9472C51.9862 88.9199 51.1911 88.3619 50.4365 88.1796C50.2999 87.4145 50.1675 86.7116 50.0352 86.0088Z" fill="#DDDDDD"/>
<path d="M62.5345 86.0814C62.5656 86.6355 62.5153 87.1888 62.4574 87.8157C61.6254 87.9046 60.801 87.9199 59.8956 87.9286C59.8165 87.316 59.8185 86.7099 59.8317 86.0211C60.713 85.9857 61.5831 86.0331 62.5345 86.0814Z" fill="#DDDDDD"/>
<path d="M46.5982 46.7282C46.5982 46.7282 46.6193 46.658 46.7355 46.6443C47.4185 46.7259 47.991 46.7947 48.5509 46.9215C50.2139 47.2981 51.8719 47.6975 53.5318 48.0879C53.5318 48.0879 53.5822 48.0826 53.6489 48.1517C54.0926 48.3233 54.464 48.4631 54.8474 48.5222C56.7229 48.8111 58.3964 48.0829 60.0911 47.4293C61.668 46.8211 63.2654 46.2685 64.8538 45.6914C64.9717 46.5864 65.1792 47.48 65.1916 48.3765C65.2406 51.9124 65.2312 55.4491 65.2371 58.9856C65.2398 60.5538 65.3118 62.1281 65.205 63.6892C64.9209 67.841 64.5942 71.9906 64.212 76.1342C63.9303 79.1884 63.5162 82.2296 63.2009 85.281C63.1092 86.1688 62.7065 86.5881 61.8485 86.5787C61.695 86.577 61.5414 86.5806 61.3879 86.5809C59.427 86.5841 59.2974 86.4725 59.0012 84.49C58.8367 83.389 58.6792 82.2869 58.457 81.101C58.3956 81.0167 58.3853 80.9316 58.387 80.852C58.3268 80.3257 58.2647 79.879 58.2026 79.3676C58.2005 79.2165 58.1985 79.1302 58.1999 78.9613C58.0808 77.869 57.9581 76.8593 57.8358 75.7786C57.8316 75.5655 57.827 75.4235 57.827 75.1975C57.8249 74.801 57.8415 74.4858 57.8078 74.1763C57.5064 71.4139 57.2087 68.651 56.8827 65.8916C56.7405 64.6875 56.535 63.4913 56.3597 62.215C56.3567 61.9345 56.3523 61.7305 56.3514 61.4462C56.063 58.8072 55.771 56.2484 55.479 53.6895C55.3322 53.696 55.1854 53.7025 55.0386 53.7089C54.9909 55.4371 54.9431 57.1653 54.8929 58.9764C54.8891 59.5015 54.8879 59.9437 54.8323 60.4246C54.695 60.8196 54.6122 61.1757 54.5269 61.615C54.5288 62.9598 54.5332 64.2215 54.5352 65.5473C54.5315 65.6968 54.5302 65.7823 54.492 65.9355C54.3596 68.5926 54.264 71.182 54.1658 73.8553C54.1631 74.3875 54.163 74.8357 54.1279 75.3455C54.0578 75.7402 54.0226 76.0735 53.9841 76.4925C53.982 77.1505 53.983 77.7226 53.9817 78.343C53.9789 78.4233 53.9785 78.4554 53.9592 78.5629C53.8286 79.5904 53.7169 80.5425 53.6029 81.5657C53.6013 81.7793 53.6019 81.9216 53.601 82.1394C53.6051 83.3558 53.6106 84.4969 53.6135 85.7092C53.6089 85.9227 53.607 86.065 53.552 86.24C53.1649 86.4414 52.8309 86.6102 52.4358 86.7758C52.2932 86.7701 52.2118 86.7677 52.0807 86.732C51.8792 86.6621 51.7273 86.6254 51.5139 86.5867C51.3706 86.5829 51.2888 86.5812 51.1678 86.5421C50.909 86.4699 50.6893 86.4352 50.3968 86.3981C49.9373 86.2704 49.5508 86.145 49.1612 85.959C49.1037 85.7494 49.0493 85.6003 48.9895 85.3795C48.9247 84.9787 48.8652 84.6495 48.8275 84.2657C48.773 83.5731 48.7057 82.9337 48.6187 82.2972C48.3763 80.5243 48.1257 78.7525 47.8804 76.9091C47.879 76.6962 47.8755 76.5544 47.874 76.3302C47.8145 75.4075 47.7645 74.566 47.6887 73.727C47.5764 72.4853 47.4458 71.2453 47.323 70.0046C47.3226 69.6817 47.3223 69.3588 47.3234 68.8691C47.3237 68.2959 47.375 67.8805 47.3105 67.4848C47.1691 66.6169 46.969 65.759 46.8019 64.821C46.8005 63.422 46.7901 62.0989 46.8091 60.7151C46.8197 59.8245 46.8184 58.9939 46.7769 58.1654C46.7418 57.4644 46.6604 56.7659 46.5994 56.0662C46.5964 55.9253 46.5935 55.7844 46.5908 55.4946C46.5923 55.0839 46.5934 54.8221 46.6305 54.4919C46.7024 52.9087 46.7633 51.3939 46.7646 49.879C46.7654 48.9876 46.6716 48.0961 46.6215 47.1448C46.6145 46.9659 46.6064 46.8471 46.5982 46.7282Z" fill="#737373"/>
<path d="M58.6612 18.1203C58.9511 18.1887 59.1978 18.2533 59.5166 18.3491C56.9878 20.0558 54.3749 19.9049 51.7213 18.3742C51.8425 18.276 51.9956 18.2322 52.2802 18.18C52.5072 18.0841 52.6028 17.9967 52.6983 17.9093C53.4611 16.9676 53.5053 15.855 53.5969 14.6478C55.0601 14.6672 56.4403 14.9723 57.781 14.3926C57.932 15.5274 58.0829 16.6622 58.2993 17.8962C58.4224 18.0254 58.48 18.0556 58.5377 18.0858C58.5377 18.0858 58.6182 18.1166 58.6612 18.1203Z" fill="#DDDDDD"/>
<path d="M45.8477 35.2645C45.6875 33.3376 45.4577 31.4958 46.2075 29.373C46.6628 29.8653 46.9886 30.0781 47.0899 30.3481C48.3983 33.8343 48.682 37.4027 48.1515 41.0081C48.078 41.5079 47.486 41.9559 47.134 42.4279C46.9056 41.9253 46.5438 41.4351 46.4726 40.9178C46.2183 39.0685 46.0626 37.21 45.8477 35.2645Z" fill="#737373"/>
<path d="M57.9555 14.385C56.5517 15.0371 55.1543 14.7163 53.6858 14.6086C53.0613 14.3683 52.5339 14.0693 51.9681 13.9008C51.3302 13.7109 50.9864 13.3047 51.1742 12.7124C51.6016 11.364 52.1383 10.0506 52.7548 8.67344C53.0558 8.55309 53.2381 8.49374 53.4084 8.40974C54.9207 7.66375 57.4043 8.14328 58.078 9.65372C58.59 10.8016 59.27 12.3965 58.7054 13.4746C58.4709 13.7639 58.2363 14.0532 57.9555 14.385Z" fill="#DDDDDD"/>
<path d="M58.7178 13.4388C58.4069 12.2272 58.3692 10.896 57.8569 9.77384C57.1827 8.2973 54.8684 7.78489 53.355 8.51414C53.1846 8.59625 53.0022 8.65427 52.7544 8.73597C53.5686 7.56342 54.913 7.17924 56.2009 7.74337C57.932 8.50166 59.2652 10.7004 59.0827 12.5476C59.0535 12.8426 58.8842 13.1243 58.7178 13.4388Z" fill="#DDDDDD"/>
<path d="M12.2079 14.4178C11.832 13.7283 11.3886 13.0744 11.0989 12.3394C10.8003 11.5819 10.6513 10.7454 10.5146 9.83696C12.2692 10.1426 13.4784 9.51746 14.3242 7.72726C14.5602 7.22769 15.2151 6.88679 15.7385 6.6977C16.8429 6.29863 17.9874 6.04791 19.1872 5.71805C19.3976 5.63186 19.5529 5.59077 19.6723 5.49166C20.4389 4.85545 20.7889 5.26805 21.0099 6.15008C21.1415 6.67554 21.345 7.17688 21.481 7.75567C21.4829 8.02447 21.5202 8.22666 21.5523 8.47891C21.5471 8.52899 21.5793 8.62273 21.5721 8.7216C21.5392 9.54562 21.5135 10.2708 21.453 11.0653C21.0444 13.0588 20.4051 14.8892 19.0423 16.1564C18.8734 16.3134 18.7103 16.5263 18.6273 16.6174C18.4613 16.7 18.3783 16.7085 18.1635 16.7C17.7073 16.4732 17.2897 16.289 16.8602 16.1564C15.9272 15.8681 14.9767 15.6491 14.0556 15.3185C13.4203 15.0906 12.8225 14.723 12.2079 14.4178Z" fill="#DDDDDD"/>
<path d="M11 18C10.7775 19.3153 10.5053 20.6435 10.1675 21.952C9.66058 23.9155 9.01532 25.8427 8.60574 27.8281C8.31769 29.2244 8.32366 30.6917 8.12543 32.2274C7.77581 32.556 7.49912 32.7844 7.14707 33C6.78611 32.7455 6.43941 32.5548 6.22551 32.2536C5.31807 30.9758 4.45004 29.6653 3.56761 28.3667C3.48832 28.1246 3.40505 27.8839 3.33035 27.6401C2.62596 25.3416 3.0103 23.9791 4.84829 22.3206C6.61976 20.3798 8.49073 18.7275 11 18Z" fill="#A4A4A4"/>
<path d="M19.1818 5.84603C18.0366 6.14986 16.8747 6.39435 15.7534 6.7835C15.2221 6.96788 14.5573 7.30032 14.3177 7.78746C13.459 9.53316 12.2378 10.2688 10.4556 9.88325C10.3221 9.44598 10.211 8.98129 10.1758 8.37314C9.86234 7.39601 9.45048 6.6416 9.67044 5.70787C9.67035 5.6132 9.69815 5.45712 9.7547 5.26372C9.98881 4.92956 10.1388 4.66384 10.3444 4.46425C11.1658 3.6668 11.938 2.69677 13.284 2.9097C14.528 3.10649 15.7937 3.12773 17.0458 3.2706C17.622 3.33635 18.228 3.40449 18.7513 3.65221C20.0049 4.24561 19.987 4.2879 19.2629 5.54905C19.2147 5.63302 19.2079 5.74635 19.1818 5.84603Z" fill="#4A4A4A"/>
<path d="M19.2954 5.98089C19.2123 5.98089 18.9931 5.8487 19.0412 5.75884C19.7635 4.40921 19.9051 4.39904 18.6548 3.764C18.1328 3.4989 17.5283 3.42598 16.9536 3.35562C15.7048 3.20273 14.4424 3.18 13.2016 2.9694C11.859 2.74153 11.1997 3.892 10.3804 4.74541C10.1753 4.959 10.0222 5.24354 9.78955 5.52517C10.0828 4.70773 10.4317 3.8606 10.8147 2.94914C10.8488 2.8848 10.8443 2.88182 10.8989 2.84389C11.3544 2.45768 11.7553 2.10941 12.1562 1.76114C12.2535 1.71371 12.3508 1.66629 12.5599 1.57252C13.4994 1.53032 14.3271 1.53447 15.1548 1.53862C16.155 1.54324 17.1552 1.54786 18.2943 1.60156C20.6193 2.64895 22.0434 4.2713 21.7049 7.33694C21.6425 7.5505 21.58 7.76404 21.5163 8.06356C21.3417 7.61503 21.1357 7.09186 21.0023 6.54351C20.7786 5.62306 20.4242 5.19249 19.648 5.85641C19.5271 5.95983 19.5446 5.98089 19.2954 5.98089Z" fill="#4A4A4A"/>
<path d="M18.1173 16.8245C18.2305 16.8182 18.3437 16.812 18.5336 16.8868C18.7519 17.2274 18.8936 17.4869 19.0353 17.7465C18.2192 17.9401 17.4109 18.2173 16.5853 18.3097C14.919 18.4961 13.2447 18.565 11.6025 17.7737C11.7517 17.2142 11.947 16.699 12.2242 16.127C12.5631 16.3752 12.7867 16.8946 13.0828 16.9497C14.7592 17.2616 16.4635 17.8544 18.1173 16.8245Z" fill="#DDDDDD"/>
<path d="M18.1289 16.791C16.4865 17.9683 14.7598 17.3289 13.0613 16.9924C12.7612 16.9329 12.5347 16.3726 12.2174 16.0267C12.1492 15.5667 12.1379 15.1234 12.1516 14.5908C12.7908 14.8076 13.3884 15.1764 14.0232 15.4051C14.9438 15.7367 15.8939 15.9565 16.8264 16.2457C17.2556 16.3788 17.6729 16.5635 18.1289 16.791Z" fill="#DDDDDD"/>
<path d="M8.58003 85.9373C8.59641 85.7785 8.62512 85.7123 8.75493 85.5973C9.89233 85.382 10.9286 85.2154 11.965 85.0488C11.7439 85.9219 11.5229 86.7949 11.2677 87.7355C10.3981 87.7456 9.56279 87.6882 8.64431 87.541C8.54763 87.4116 8.53407 87.372 8.52051 87.3325C8.54446 86.8983 8.56841 86.4641 8.58003 85.9373Z" fill="#DDDDDD"/>
<path d="M12.0631 85.0619C11.0026 85.2995 9.96867 85.4625 8.8545 85.6241C8.55901 84.913 8.15456 84.2019 8.15823 83.4937C8.19086 77.1929 8.32381 70.893 8.36834 64.5923C8.394 60.9611 8.25048 57.3277 8.30251 53.6976C8.32879 51.8636 8.62054 50.0347 8.83235 48.1166C9.88031 47.9663 10.8882 47.903 11.9648 47.7991C12.2357 47.7506 12.4379 47.7427 12.7904 47.7524C13.5763 47.6882 14.2118 47.6063 14.8472 47.5244C14.9434 47.5132 15.0396 47.5021 15.2591 47.5101C16.6983 47.3191 18.0142 47.1088 19.33 46.8985C19.4232 46.885 19.5163 46.8714 19.7133 46.8686C20.0223 46.8267 20.2274 46.774 20.4326 46.7213C20.6466 46.6904 20.8607 46.6595 21.185 46.6366C21.4551 46.5933 21.6149 46.5421 21.7747 46.4909C21.9157 46.4703 22.0567 46.4497 22.3054 46.4366C22.5972 46.3966 22.7814 46.3491 22.9656 46.3016C23.1324 46.2867 23.2991 46.2717 23.5777 46.2676C23.7422 46.2982 23.7959 46.3131 23.9419 46.3208C24.7865 46.3974 25.5399 46.4762 26.2933 46.555C26.8854 52.9644 26.7245 59.3655 25.9196 65.7282C25.2158 71.2919 24.3282 76.8249 23.5331 82.3736C23.4478 82.9686 23.4381 83.5779 23.3395 84.3199C22.9161 84.7683 22.5465 85.0775 22.1044 85.3373C20.81 85.1805 19.5882 85.0729 18.3665 84.9654C18.1895 74.7868 18.0155 64.6081 17.8289 54.4298C17.8165 53.7563 17.7082 53.0852 17.6445 52.4131C17.5073 52.3943 17.3701 52.3755 17.2329 52.3567C17.1277 52.8125 16.9672 53.2618 16.9259 53.7252C16.5698 57.724 16.4079 61.7572 15.854 65.7185C15.0143 71.7239 13.92 77.6828 12.8875 83.6509C12.8033 84.1378 12.364 84.5437 12.0631 85.0619Z" fill="#737373"/>
<path d="M22.1172 85.3306C21.927 86.1139 21.6626 86.8499 21.3557 87.6467C20.2586 88.4701 19.2286 88.0621 18.132 87.6107C18.1155 86.7677 18.1661 85.9457 18.2545 85.0488C19.5425 85.077 20.7928 85.1802 22.1172 85.3306Z" fill="#DDDDDD"/>
<path d="M19.2167 46.8438C18.0126 47.1451 16.7369 47.4035 15.4097 47.6117C16.6204 47.3079 17.8828 47.0544 19.2167 46.8438Z" fill="#D78F75"/>
<path d="M14.6844 47.6113C14.1529 47.7032 13.5487 47.7673 12.8716 47.8033C13.4031 47.7113 14.0074 47.6475 14.6844 47.6113Z" fill="#D78F75"/>
<path d="M25.3801 46.0762C25.0084 46.1959 24.5486 46.3123 24.0133 46.4541C23.8836 46.4698 23.8305 46.4554 23.7485 46.4051C24.2432 46.2736 24.7676 46.1733 25.3801 46.0762Z" fill="#D78F75"/>
<path d="M31.1816 29.7568C31.0036 29.5146 30.8228 29.1928 30.6377 28.7969C30.8151 29.0409 30.9969 29.359 31.1816 29.7568Z" fill="#DF9F38"/>
<path d="M22.8422 46.2676C22.6994 46.376 22.5181 46.4367 22.2983 46.4596C22.4411 46.3544 22.6224 46.2871 22.8422 46.2676Z" fill="#D78F75"/>
<path d="M26.4679 26.1094C26.4349 26.2404 26.3753 26.3517 26.2866 26.4933C26.3188 26.379 26.3801 26.2343 26.4679 26.1094Z" fill="#DF9F38"/>
<path d="M21.7543 46.46C21.6289 46.563 21.4385 46.6264 21.2104 46.6519C21.345 46.5495 21.5172 46.4849 21.7543 46.46Z" fill="#D78F75"/>
<path d="M24.1113 19.3902C24.1892 19.3017 24.3023 19.258 24.4739 19.1982C24.4038 19.2664 24.2751 19.3507 24.1113 19.3902Z" fill="#241E36"/>
<path d="M26.1109 27.4531C26.249 27.5375 26.3051 27.6654 26.2816 27.8371C26.1443 27.7528 26.0866 27.6248 26.1109 27.4531Z" fill="#DF9F38"/>
<path d="M3.69222 28.0293C4.55892 29.2483 5.34854 30.4983 6.17402 31.7169C6.36859 32.0042 6.68398 32.1861 6.99142 32.4981C6.33003 33.7812 5.58197 34.9566 4.93538 36.1999C4.73738 36.5806 4.6202 37.4111 4.8024 37.5869C6.04793 38.7888 7.38307 39.8711 8.68933 40.992C9.11682 41.4504 9.52998 41.9276 9.97493 42.3631C10.7862 43.157 11.035 44.1585 10.6696 45.2984C10.0483 47.2373 10.1933 47.5144 11.9649 47.8699C10.9406 48.0128 10.083 48.5203 8.98485 48.5706C8.57957 48.5935 8.09839 48.1847 7.7755 48.2204C7.53132 48.1727 7.28715 48.125 6.99634 48.0293C6.94834 47.7367 6.94697 47.4921 6.9388 47.0839C6.99634 46.2178 6.88171 46.0513 6.88171 45.4034C6.88171 45.4034 6.79758 45.2224 6.79758 45.0414C6.79758 44.8605 6.71346 44.77 6.71346 44.77C6.71346 44.77 6.71346 44.77 6.62933 44.4985C6.5047 44.4218 6.5427 44.4333 6.48083 44.408C5.76665 43.9399 5.2009 43.3989 4.61032 42.7792C3.9309 42.0663 3.18927 41.408 2.5913 40.4264C2.37079 40.0645 2.17067 39.974 1.91829 39.4311C1.91829 39.4311 1.91829 39.6006 1.66592 39.0691C1.23621 38.1642 0.921436 37.6402 0.488254 36.8611C-0.386329 35.2882 0.0216824 33.9534 0.865462 32.6251C0.910765 32.5538 0.901734 32.522 0.992913 32.3728C1.09249 32.176 1.16116 32.0999 1.23621 31.9767C2.03356 30.6674 2.8309 29.3581 3.69222 28.0293Z" fill="#DDDDDD"/>
<path d="M21.2026 49.1467C21.0345 48.1441 20.8547 47.1433 20.7047 46.138C20.6504 45.7743 20.6677 45.4001 20.678 44.9681C20.9713 46.009 21.239 47.1126 21.5241 48.2878C21.7528 48.15 21.8914 48.1151 21.9087 48.049C22.6476 45.2328 23.3738 42.4134 24.1068 39.5957C24.219 39.1643 24.3392 38.7335 24.4852 38.3124C24.7517 37.5435 25.266 37.1347 26.1292 37.1983C27.4729 37.2973 28.8178 37.3916 30.164 37.4422C32.2363 37.5202 34.3115 37.6302 36.3827 37.588C37.5786 37.5637 38.7714 37.2821 39.9612 37.0895C41.224 36.8851 41.7016 37.0732 42.148 38.2308C42.7154 39.7023 43.1864 41.2102 43.7084 42.6991C43.8785 43.1843 44.0781 43.6593 44.2642 44.1389C44.4027 44.1296 44.5412 44.1202 44.6797 44.1108C44.8118 43.4793 45.0461 42.8499 45.0593 42.216C45.1399 38.338 45.1977 34.4589 44.4085 30.6253C44.2926 30.0621 44.3332 29.4672 44.3239 28.7969C44.6718 30.9991 45.1709 33.2834 45.2776 35.5857C45.4055 38.3434 45.2285 41.1178 45.1035 43.8813C45.0848 44.2956 44.6297 44.6904 44.288 45.1013C43.6489 43.5337 43.1074 41.956 42.5439 40.3861C42.266 39.6117 42.042 38.7928 41.6092 38.1091C41.3761 37.7408 40.6795 37.3306 40.3185 37.4235C36.1711 38.4909 31.9977 37.8463 27.8331 37.7222C27.6604 37.7171 27.488 37.7042 27.3155 37.6937C25.0382 37.5547 25.0138 37.5481 24.4191 39.7422C23.8368 41.8904 23.2841 44.0475 22.7742 46.2136C22.563 47.1111 22.4968 48.0423 22.2758 49.0546C21.8589 49.1496 21.5307 49.1482 21.2026 49.1467Z" fill="#8B67A2"/>
<path d="M45.0383 88.3685C44.1022 88.6705 43.1728 88.9213 42.2279 89.0661C41.8176 89.129 41.3754 88.9739 40.8665 88.8287C40.7868 88.6463 40.7884 88.553 40.79 88.4597C41.1222 88.5155 41.4527 88.601 41.787 88.6221C44.1829 88.7736 44.649 88.2973 44.8006 85.8575C45.107 80.9274 45.4777 76.0015 45.7991 71.0723C46.2278 64.4976 45.8414 57.9491 45.1642 51.4101C45.0685 50.4852 43.6591 44.7984 43.6416 43.7725C43.7831 44.0504 45.4022 49.1669 45.4325 49.5471C45.7087 53.0162 46.0755 56.4839 46.1787 59.9594C46.2903 63.7172 46.1905 67.484 46.0995 71.2447C46.0478 73.379 45.821 75.5086 45.6873 77.6412C45.4651 81.1851 45.2542 84.7298 45.0383 88.3685Z" fill="#EEBB31"/>
<path d="M45.1405 47.2273C44.9349 46.7835 44.7696 46.2786 44.5967 45.6914C44.7864 46.1282 44.9836 46.6472 45.1405 47.2273Z" fill="#49443F"/>
<path d="M44.2342 27.8378C44.0953 27.5694 43.9728 27.2498 43.8716 26.8779C44.0121 27.146 44.1313 27.4664 44.2342 27.8378Z" fill="#8B67A2"/>
<path d="M42.965 21.8863C42.8845 21.8508 42.8176 21.782 42.7837 21.6943C42.8707 21.7347 42.9246 21.7938 42.965 21.8863Z" fill="#8B67A2"/>
<path d="M42.7838 20.734C42.743 20.7269 42.6759 20.6649 42.6025 20.542C42.65 20.5471 42.7038 20.613 42.7838 20.734Z" fill="#3B2E66"/>
<path d="M39.7019 82.9371C39.5637 82.6228 39.4332 82.2351 39.3394 81.7852C39.4872 82.1032 39.5985 82.4834 39.7019 82.9371Z" fill="#594A26"/>
<path d="M25.7262 31.84C25.6059 32.4862 25.502 33.0415 25.3982 33.5968C25.2713 33.5799 25.1445 33.563 25.0176 33.5461C25.2094 30.6193 25.4012 27.6925 25.593 24.7656C25.6429 24.7715 25.6928 24.7774 25.7427 24.7833C25.7427 27.1052 25.7427 29.4271 25.7262 31.84Z" fill="#6552D1"/>
<path d="M20.4855 42.0447C20.4048 41.6042 20.3521 41.1015 20.3042 40.5088C20.3771 40.94 20.4453 41.4612 20.4855 42.0447Z" fill="#8B67A2"/>
<path d="M20.6666 43.9642C20.5933 43.7691 20.5341 43.5112 20.4854 43.1963C20.5575 43.3933 20.6191 43.6474 20.6666 43.9642Z" fill="#8B67A2"/>
<path d="M19.9533 40.5013C19.9212 40.4149 19.9585 40.3596 20.0463 40.3172C20.0843 40.3064 20.1221 40.4041 20.1232 40.4623C20.0863 40.5166 20.0482 40.5128 19.9533 40.5013Z" fill="#D9917D"/>
<path d="M16.6786 37.5068C16.4685 37.7193 16.2386 37.751 15.8384 37.8206C14.7425 35.9232 13.8169 33.9878 12.8716 31.8691C14.1209 33.5659 15.3899 35.446 16.6786 37.5068Z" fill="#737373"/>
<path d="M29.1611 1.51992C31.1148 -0.184432 37.4542 -2.27997 40.188 6.56058C40.7869 8.49413 41.2305 11.7873 44.2704 13.3125C46.4173 14.393 50.7683 19.3768 45.6916 25.4566C40.6225 31.5416 47.9335 34.4764 43.0529 35.7137C38.1709 36.9441 27.6795 32.162 25.8058 23.8298C22.8699 10.7275 25.2249 4.95446 29.1611 1.51992Z" fill="#1D1B3A"/>
<path d="M44.2172 45.1881C44.3154 45.3251 44.4137 45.6694 44.5794 45.9471C44.7937 46.5934 44.9363 46.9813 45.0832 47.4869C45.085 47.7761 45.2501 48.0304 45.3336 48.4833C45.584 49.8419 45.1186 50.4932 45.2162 51.419C45.9065 57.965 46.3002 64.5204 45.8633 71.1021C45.5358 76.0366 45.1579 80.9677 44.8456 85.903C44.6911 88.3454 44.216 88.8222 41.7741 88.6706C41.4333 88.6494 41.0965 88.5638 40.7491 88.4635C40.7245 88.3573 40.6893 88.3099 40.6378 88.188C40.3327 86.4351 40.0246 84.7712 39.723 83.0256C39.6378 82.5214 39.5462 82.0989 39.4529 81.6033C39.4148 81.4408 39.3784 81.3514 39.353 81.1838C38.6788 77.7894 37.9649 74.4788 37.3139 71.1557C35.9601 64.2444 35.8576 57.2038 35.1958 50.2206C35.0938 49.1445 34.6558 48.1006 34.3732 47.0418C34.2183 47.0631 34.0634 47.0843 33.9085 47.1056C33.8441 47.9054 33.7452 48.7041 33.7213 49.5052C33.6214 52.8585 33.7104 56.2268 33.4265 59.5634C32.6351 68.8665 31.6865 78.1559 30.8212 87.4526C30.7519 88.197 30.4286 88.5074 29.7174 88.4964C29.4092 88.4916 29.1006 88.5217 28.7138 88.5131C27.0831 88.1934 27.1212 88.1896 26.9625 86.6032C26.7877 84.8545 26.6152 83.0986 26.2973 81.3727C25.5739 77.4466 24.7621 73.5369 23.9887 69.5383C22.8974 64.144 22.1248 58.7987 22.3321 53.3506C22.3844 51.9746 22.4245 50.5981 22.4972 49.1433C22.6555 48.1426 22.7213 47.2049 22.9312 46.3012C23.4378 44.12 23.9869 41.9479 24.5653 39.7848C25.1562 37.5754 25.1805 37.582 27.4429 37.722C27.6143 37.7326 27.7856 37.7455 27.9572 37.7507C32.0947 37.8757 36.241 38.5248 40.3614 37.45C40.7201 37.3564 41.4122 37.7694 41.6438 38.1403C42.0738 38.8288 42.2963 39.6534 42.5724 40.4331C43.1322 42.014 43.6702 43.6027 44.2172 45.1881Z" fill="#FFCF03"/>
<path d="M42.5558 20.3408C42.5425 20.4083 42.5494 20.4736 42.6046 20.6467C42.687 20.8238 42.7414 20.891 42.7957 20.9581C42.8055 21.1548 42.8154 21.3515 42.8065 21.6508C42.8409 21.8568 42.8939 21.9603 42.9469 22.0638C42.964 22.1047 42.9811 22.1456 43.0117 22.3083C43.0275 22.5144 43.0298 22.5987 43.0077 22.7317C43.0499 22.9558 43.1164 23.1312 43.196 23.3864C43.2312 23.6269 43.2535 23.7877 43.271 24.0343C43.4744 24.8885 43.6826 25.657 43.8907 26.4255C43.9181 26.5272 43.9456 26.6289 43.9648 26.8656C44.0806 27.3495 44.2045 27.6984 44.3285 28.0474C44.3435 28.206 44.3585 28.3646 44.357 28.6933C44.3723 29.447 44.3318 30.0455 44.4474 30.612C45.2345 34.4684 45.1768 38.3705 45.0964 42.2716C45.0833 42.9093 44.8496 43.5424 44.7178 44.1776C44.5797 44.187 44.4416 44.1965 44.3034 44.2059C44.1178 43.7234 43.9188 43.2456 43.7491 42.7575C43.2286 41.2598 42.7588 39.7429 42.1929 38.2627C41.7477 37.0982 41.2714 36.909 40.012 37.1146C38.8254 37.3083 37.6358 37.5916 36.4431 37.6161C34.3775 37.6585 32.3078 37.5478 30.241 37.4694C28.8985 37.4185 27.5571 37.3237 26.2171 37.2241C25.3562 37.1601 24.8433 37.5713 24.5775 38.3448C24.4319 38.7683 24.312 39.2017 24.2001 39.6357C23.4691 42.4701 22.7448 45.3063 22.0079 48.1392C21.9906 48.2057 21.8524 48.2408 21.6243 48.3794C21.34 47.1972 21.073 46.0871 20.8027 44.8867C20.7819 44.556 20.7645 44.3156 20.7666 44.0079C20.701 43.6681 20.6158 43.3956 20.5168 43.0258C20.4903 42.6668 20.4776 42.4051 20.5019 42.0832C20.4487 41.5193 20.3584 41.0155 20.2384 40.5083C20.2087 40.5048 20.1556 40.5321 20.1542 40.4869C20.1527 40.4416 20.1037 40.3657 20.1316 40.3021C20.188 40.1504 20.2165 40.0623 20.3029 39.9411C20.415 39.483 20.5296 39.0555 20.5126 38.6334C20.4504 37.083 20.1078 35.5045 20.2984 33.9906C20.9302 28.9719 20.9795 23.8453 22.8401 18.9915C22.9202 18.9109 22.9624 18.8616 23.0594 18.7764C23.4226 18.4215 23.7279 18.0998 24.1081 17.7672C25.0553 17.129 25.9276 16.5017 26.8587 15.8284C27.6595 15.3068 28.4014 14.8313 29.2104 14.3984C30.8418 14.4793 32.4062 14.5176 34.0277 14.5944C35.9053 16.095 37.0979 16.7289 38.9922 18.2502C39.2436 18.3406 39.8301 18.6121 39.9977 18.2502C41.2545 17.8882 41.9912 19.1756 42.5558 20.3408ZM25.7661 31.8093C25.7661 29.4967 25.7661 27.184 25.7661 24.8713C25.7121 24.8654 25.6581 24.8595 25.6041 24.8537C25.3965 27.7689 25.1889 30.6841 24.9813 33.5994C25.1186 33.6162 25.2559 33.633 25.3932 33.6499C25.5056 33.0968 25.6179 32.5437 25.7661 31.8093Z" fill="#AA60FF"/>
<path d="M29.1875 14.3072C29.912 13.3216 30.3261 12.2563 30.267 10.9477C31.3798 10.9291 32.4076 10.9733 33.4354 11.0176C33.5849 12.1105 33.7344 13.2035 33.901 14.3796C32.3634 14.4249 30.8088 14.3871 29.1875 14.3072Z" fill="#F7B2A0"/>
<path d="M33.4771 10.9418C32.4 10.9518 31.3676 10.9073 30.2573 10.8367C29.3724 9.80906 28.5634 8.78552 28.9045 7.388C29.0352 6.85281 29.28 6.27954 29.6461 5.88234C30.2227 5.25685 30.9511 4.77176 31.6053 4.21566C32.2256 3.68845 32.7272 3.73308 33.4186 4.24216C35.1511 5.51784 35.3644 9.52213 33.4771 10.9418Z" fill="#FBC6B4"/>
</svg>
