<svg width="105" height="92" viewBox="0 0 105 92" fill="none" xmlns="http://www.w3.org/2000/svg">
<path d="M72.7905 89.3906H70.2549V53.7436H72.7905V89.3906Z" fill="#1D1B3A"/>
<path d="M86.5228 18.5569H65.2862C61.9673 18.5569 59.2725 21.2158 59.2725 24.4993V53.7432H92.5309V24.4993C92.5309 21.2158 89.8417 18.5569 86.5228 18.5569Z" fill="#E5649A"/>
<path d="M92.5309 54.3337C92.5309 55.5393 91.5466 56.5137 90.3272 56.5137H44.0078C42.7884 56.5137 41.8003 55.5393 41.8003 54.3337C41.8003 53.1318 42.7884 52.1575 44.0078 52.1575H90.3272C91.5466 52.1575 92.5309 53.1318 92.5309 54.3337Z" fill="#D34F8B"/>
<path d="M85.6788 90.9756H56.4238V88.202H85.6788V90.9756Z" fill="#1D1B3A"/>
<path d="M54.0096 60.9498C57.6679 65.4772 63.9054 70.7658 65.8113 74.1313C66.1147 74.6631 66.128 74.8998 64.4041 76.1637C62.6726 77.4239 65.0243 77.7663 68.3924 76.4714C71.7511 75.1693 63.3174 61.0373 58.5801 54.7033C54.4439 49.1652 49.7748 55.6995 54.0096 60.9498Z" fill="#F9B5A0"/>
<path d="M69.1852 74.4445C69.1852 74.4445 66.7369 76.6882 64.4042 76.1637C64.4042 76.1637 61.2694 77.8136 63.712 77.8755C66.1585 77.9375 70.4881 77.1562 69.1852 74.4445Z" fill="#AA60FF"/>
<path d="M68.9518 32.0576C68.9518 32.0576 45.4223 40.5587 44.9595 47.1858C44.548 53.1464 60.3892 70.1249 60.3892 70.1249C60.3892 70.1249 64.6316 70.3525 67.3853 67.375C67.3853 67.375 58.451 56.6576 60.4063 53.2211C62.7427 49.1144 79.737 50.819 79.737 50.819L72.8471 41.2999L68.9518 32.0576Z" fill="#FFB502"/>
<path d="M70.9222 64.764C74.8687 69.0637 81.44 73.9644 83.5659 77.2097C83.8997 77.7214 83.932 77.9564 82.2934 79.3168C80.6568 80.6826 83.016 80.8884 86.2817 79.3878C89.5607 77.8853 80.213 64.2923 75.0735 58.2607C70.577 52.9794 66.3498 59.7832 70.9222 64.764Z" fill="#F9B5A0"/>
<path d="M86.955 77.3131C86.955 77.3131 84.6451 79.7116 82.2934 79.3164C82.2934 79.3164 79.2724 81.163 81.7131 81.0719C84.1577 80.9863 88.4323 79.9447 86.955 77.3131Z" fill="#AA60FF"/>
<path d="M76.0484 35.5519C76.0484 35.5519 61.0056 44.9344 60.979 51.5779C60.9657 57.5494 77.8842 73.5391 77.8842 73.5391C77.8842 73.5391 82.1417 73.5063 84.6887 70.3684C84.6887 70.3684 75.3031 59.2576 76.5509 55.1528C77.4252 52.2863 84.243 50.8567 85.0983 46.4696C87.1162 36.0454 79.8527 38.1889 79.8527 38.1889L76.0484 35.5519Z" fill="#FFCF03"/>
<path d="M81.9222 72.5859C81.4822 72.1106 71.1654 60.8705 71.704 53.7608C72.197 47.2393 81.5637 40.9126 81.9639 40.6468L82.2351 41.0201C82.1384 41.0838 72.6522 47.4888 72.1743 53.7954C71.6509 60.7139 82.1687 72.167 82.2749 72.2836L81.9222 72.5859Z" fill="white"/>
<path d="M65.999 35.1156C65.999 35.1156 77.027 42.4001 85.07 39.3807C85.07 39.3807 85.8646 42.1962 85.5004 43.3999C85.5004 43.3999 71.5178 43.8261 65.999 35.1156Z" fill="#1D1B3A"/>
<path d="M67.0876 12.0959C67.0876 12.0959 72.0204 12.8644 71.0437 19.9432C70.0689 27.0238 68.6257 29.9758 68.6257 29.9758C68.6257 29.9758 63.8219 30.7499 57.1577 27.1877C57.1577 27.1877 60.3059 10.0726 67.0876 12.0959Z" fill="#8A43EF"/>
<path d="M85.9785 37.6468C85.9785 37.6414 85.9937 37.6377 86.0013 37.6322C86.0013 37.6322 85.9823 37.6377 85.9785 37.6468C85.9083 37.4939 85.8533 37.3536 85.787 37.197C83.5434 31.1745 81.8442 27.3902 83.3595 21.0653C85.5423 11.9961 78.3888 11.4424 74.0288 11.0108C69.667 10.5847 62.5419 11.1729 61.203 18.5267C60.2358 23.8298 60.7668 31.0015 63.3195 36.0479C66.2097 41.7754 89.5439 44.1447 85.9785 37.6468Z" fill="#AA60FF"/>
<path d="M69.4372 6.59838C69.4372 6.59838 69.4581 10.2534 72.4393 10.8362C75.5002 11.4299 68.9953 19.8763 68.3429 18.0388C67.5009 15.6622 68.0357 13.7755 65.6025 11.7194L69.4372 6.59838Z" fill="#F7B2A0"/>
<path d="M61.6845 3.21427C60.5884 5.92777 62.3919 14.8459 65.3523 15.6381C66.6476 15.9659 69.9778 13.3908 70.615 8.81793C70.8729 6.94579 70.7478 3.70597 67.8917 1.69725C66.5964 0.788501 62.9552 0.0527744 61.6845 3.21427Z" fill="#FBC6B4"/>
<path d="M60.1218 5.10532C60.1825 6.30181 60.4214 6.47489 63.7687 5.49329C67.1141 4.5208 67.5503 4.08008 67.5844 4.93966C67.6982 7.46012 69.7141 6.02685 69.8279 9.05359C69.9379 12.0749 71.7851 9.3559 71.9216 6.77716C71.9444 6.25814 72.244 3.65574 69.185 1.23727C65.6026 -1.57822 59.9435 0.709089 60.1218 5.10532Z" fill="#1D1B3A"/>
<path d="M83.5264 16.2679C83.1547 15.3501 80.7595 14.4468 77.9223 15.0259C74.118 15.8145 80.8429 30.4637 75.7414 28.8684C70.6304 27.2622 68.2845 17.8996 67.4823 15.6778C66.6801 13.4506 67.4481 12.2031 66.8242 10.9575C66.2173 9.71727 64.702 10.4822 65.0984 14.3375C65.2919 16.1878 71.9314 37.4696 78.2334 37.2602C86.7447 36.9797 85.7131 21.6968 83.5264 16.2679Z" fill="#F7B2A0"/>
<path d="M79.7108 12.3231C79.7108 12.3231 84.1011 11.6894 85.275 17.9341C86.4508 24.1824 86.0677 27.0562 86.0677 27.0562C86.0677 27.0562 82.216 28.9665 75.5746 27.6863C75.5746 27.6863 73.3993 12.3777 79.7108 12.3231Z" fill="#8A43EF"/>
<path d="M57.4723 27.3502C57.4723 27.3502 56.1619 30.5372 56.5677 31.9832C56.9774 33.4273 62.9873 32.2126 62.9873 32.2126C62.9873 32.2126 61.2463 30.0346 61.1193 28.9164C60.9884 27.7982 57.4723 27.3502 57.4723 27.3502Z" fill="#FBC6B4"/>
<path d="M62.9874 32.2122C67.539 35.5084 70.3002 34.057 71.9369 34.7782C73.5735 35.5012 72.6367 34.9202 73.5735 35.5011C74.5066 36.0693 75.2443 36.8816 72.5362 36.6594C71.239 36.5483 57.2411 38.5097 56.5679 31.9827C56.5679 31.9827 61.7035 31.2834 62.9874 32.2122Z" fill="#FBC6B4"/>
<path d="M26.4578 11.918H11.561V8.24474H26.4578V11.918Z" fill="#E6E4F7"/>
<path d="M26.4575 11.918H29.6133V8.24474H26.4575V11.918Z" fill="#BFBEED"/>
<path d="M17.9541 8.43778L26.4579 9.35742V8.24473L17.9541 8.43778Z" fill="#BFBEED"/>
<path d="M29.0519 14.7061H8.96826V11.9179H29.0519V14.7061Z" fill="#E6E4F7"/>
<path d="M29.0522 14.7061H24.6543V11.9179H29.0522V14.7061Z" fill="#BFBEED"/>
<path d="M24.6541 11.9178H19.9395L24.6541 12.6025V11.9178Z" fill="#BFBEED"/>
<path d="M8.96826 13.0321L18.8015 13.3125H8.96826V13.0321Z" fill="#D2CDF9"/>
<path d="M27.5007 18.7471H12.6021V14.3654H27.5007V18.7471Z" fill="#F2F2FC"/>
<path d="M27.5005 18.7471H30.6543V14.3654H27.5005V18.7471Z" fill="#BFBEED"/>
<path d="M12.6021 16.5557H20.0514L12.6021 17.2969V16.5557Z" fill="#D2CDF9"/>
<path d="M32.925 29.3809H12.7769V17.2247H32.925V29.3809Z" fill="#D34F8B"/>
<path d="M33.8598 18.3662H11.9062V16.8419H33.8598V18.3662Z" fill="#E5649A"/>
<path d="M29.8507 29.3809H9.70068V17.2247H29.8507V29.3809Z" fill="#E5649A"/>
<path d="M30.7894 18.3662H8.83398V16.8419H30.7894V18.3662Z" fill="#D34F8B"/>
<path d="M12.7275 20.073C12.7275 20.2569 12.9324 20.4062 13.1789 20.4062H25.2177C25.4661 20.4062 25.6691 20.2569 25.6691 20.073C25.6691 19.889 25.4661 19.7397 25.2177 19.7397H13.1789C12.9324 19.7397 12.7275 19.889 12.7275 20.073Z" fill="#D34F8B"/>
<path d="M13.1538 20.073C13.1538 19.889 13.3567 19.7397 13.609 19.7397H25.2173C25.4657 19.7397 25.6686 19.889 25.6686 20.073C25.6686 20.2569 25.4657 20.4062 25.2173 20.4062H13.609C13.3567 20.4062 13.1538 20.2569 13.1538 20.073Z" fill="#FF95A9"/>
<path d="M32.925 18.9326H12.7769V18.3662H32.925V18.9326Z" fill="#EF849D"/>
<path d="M29.8507 18.9326H9.70068V18.3662H29.8507V18.9326Z" fill="#FF95A9"/>
<path d="M25.2631 36.7109H7.03418V25.4089H25.2631V36.7109Z" fill="#AA60FF"/>
<path d="M35.8452 36.7109H21.4775V25.4089H35.8452V36.7109Z" fill="#8A43EF"/>
<path d="M35.7941 25.4082L37.8821 21.4235H23.6453L21.5952 25.4082H35.7941Z" fill="#AA60FF"/>
<path d="M21.4777 25.4087L20.4441 29.1201H7.03418V25.4087H21.4777Z" fill="#8A43EF"/>
<path d="M7.03384 25.4086L3.34521 28.2168H18.4544L21.4774 25.4086H7.03384Z" fill="#AA60FF"/>
<path d="M34.2636 30.4885C34.2636 30.6615 34.0967 30.8018 33.8918 30.8018H24.0055C23.8026 30.8018 23.6357 30.6615 23.6357 30.4885C23.6357 30.3155 23.8026 30.1735 24.0055 30.1735H33.8918C34.0967 30.1735 34.2636 30.3155 34.2636 30.4885Z" fill="#7371CC"/>
<path d="M33.9108 30.4885C33.9108 30.3155 33.7439 30.1735 33.541 30.1735H24.0055C23.8026 30.1735 23.6357 30.3155 23.6357 30.4885C23.6357 30.6615 23.8026 30.8018 24.0055 30.8018H33.541C33.7439 30.8018 33.9108 30.6615 33.9108 30.4885Z" fill="#B4A4F5"/>
<path d="M34.2636 31.6702C34.2636 31.8432 34.0967 31.9834 33.8918 31.9834H24.0055C23.8026 31.9834 23.6357 31.8432 23.6357 31.6702C23.6357 31.4953 23.8026 31.3569 24.0055 31.3569H33.8918C34.0967 31.3569 34.2636 31.4953 34.2636 31.6702Z" fill="#7371CC"/>
<path d="M33.9108 31.6702C33.9108 31.4953 33.7439 31.3569 33.541 31.3569H24.0055C23.8026 31.3569 23.6357 31.4953 23.6357 31.6702C23.6357 31.8432 23.8026 31.9834 24.0055 31.9834H33.541C33.7439 31.9834 33.9108 31.8432 33.9108 31.6702Z" fill="#B4A4F5"/>
<path d="M74.3779 35.7451H35.3105V33.5233H74.3779V35.7451Z" fill="#1D1B3A"/>
<path d="M59.1643 35.7393H31.3431L27.2505 16.3277H53.6721L59.1643 35.7393Z" fill="#1D1B3A"/>
<path d="M103.346 39.002H2.6626V35.3651H103.346V39.002Z" fill="#8D5F4B"/>
<path d="M3.78535 91.543H0L14.269 35.7378L18.0525 36.6101L3.78535 91.543Z" fill="#8D5F4B"/>
<path d="M105 91.5996H100.913L87.3232 36.5138L91.1238 35.6815L105 91.5996Z" fill="#8D5F4B"/>
<path d="M18.0376 47.4297C18.0376 47.4297 12.5834 45.6486 14.1726 43.9167C15.8017 42.1411 18.0699 46.6065 18.0376 47.4297Z" fill="#AA60FF"/>
<path d="M19.3193 49.585C19.3193 49.585 17.2313 44.433 19.6323 44.4839C22.0958 44.5404 19.9945 49.0787 19.3193 49.585Z" fill="#AA60FF"/>
<path d="M19.6359 50.0231C19.6359 50.0231 15.4978 46.1787 14.616 48.3313C13.7208 50.5331 18.8906 50.4256 19.6359 50.0231Z" fill="#AA60FF"/>
<path d="M21.0355 52.8966C21.0355 52.8966 16.8936 49.054 16.0193 51.2047C15.1242 53.4047 20.2921 53.2991 21.0355 52.8966Z" fill="#AA60FF"/>
<path d="M21.8911 56.1957C21.8911 56.1957 17.7511 52.3549 16.8693 54.5038C15.9723 56.7056 21.1439 56.5945 21.8911 56.1957Z" fill="#AA60FF"/>
<path d="M22.7499 59.366C22.7499 59.366 18.6099 55.5234 17.7319 57.6741C16.831 59.8741 22.0065 59.7648 22.7499 59.366Z" fill="#AA60FF"/>
<path d="M23.3948 62.862C23.3948 62.862 19.251 59.0194 18.3767 61.1702C17.4721 63.3719 22.6476 63.2645 23.3948 62.862Z" fill="#AA60FF"/>
<path d="M23.6015 65.8314C23.6015 65.8314 19.4596 61.9887 18.5796 64.1395C17.6807 66.3431 22.8543 66.2338 23.6015 65.8314Z" fill="#AA60FF"/>
<path d="M24.0318 69.1236C24.0318 69.1236 19.8918 65.281 19.0175 67.4318C18.1167 69.6317 23.2903 69.5206 24.0318 69.1236Z" fill="#AA60FF"/>
<path d="M24.0318 72.7148C24.0318 72.7148 19.8918 68.8722 19.0175 71.0212C18.1167 73.2229 23.2903 73.1155 24.0318 72.7148Z" fill="#AA60FF"/>
<path d="M20.8842 52.6895C20.8842 52.6895 20.3664 47.1859 22.6574 47.8761C25.0071 48.5809 21.6769 52.3835 20.8842 52.6895Z" fill="#AA60FF"/>
<path d="M21.8911 56.4229C21.8911 56.4229 22.369 50.9121 24.5063 51.9756C26.6892 53.0628 22.7256 56.2535 21.8911 56.4229Z" fill="#AA60FF"/>
<path d="M22.7578 60.5225C22.7578 60.5225 23.6435 55.059 25.6973 56.2628C27.7948 57.4975 23.6055 60.4114 22.7578 60.5225Z" fill="#AA60FF"/>
<path d="M23.395 64.3789C23.395 64.3789 24.2826 58.9155 26.3383 60.1192C28.4377 61.3558 24.2427 64.2678 23.395 64.3789Z" fill="#AA60FF"/>
<path d="M24.0322 68.8115C24.0322 68.8115 24.9255 63.3481 26.9775 64.5519C29.0768 65.7884 24.8818 68.6986 24.0322 68.8115Z" fill="#AA60FF"/>
<path d="M24.0322 72.9438C24.0322 72.9438 25.9382 67.7226 27.7284 69.2651C29.5642 70.844 24.8932 72.9821 24.0322 72.9438Z" fill="#AA60FF"/>
<path d="M24.1307 79.8828L23.6774 79.8646C24.8798 53.9571 17.5499 47.3245 17.4722 47.2626L17.7794 46.9329C18.0904 47.1988 25.3463 53.7713 24.1307 79.8828Z" fill="#AA60FF"/>
<path d="M9.78419 58.5693C9.78419 58.5693 5.2156 58.5111 5.97229 56.8284C6.74605 55.1074 9.59834 57.9429 9.78419 58.5693Z" fill="#8A43EF"/>
<path d="M11.3046 59.8916C11.3046 59.8916 8.40867 56.497 10.2331 55.9689C12.1049 55.428 11.6858 59.3507 11.3046 59.8916Z" fill="#8A43EF"/>
<path d="M11.6577 60.1486C11.6577 60.1486 7.54997 58.2291 7.43808 60.0575C7.3224 61.9297 11.2007 60.6257 11.6577 60.1486Z" fill="#8A43EF"/>
<path d="M13.4534 61.9855C13.4534 61.9855 9.33999 60.0624 9.23 61.8944C9.11621 63.7666 12.9869 62.4626 13.4534 61.9855Z" fill="#8A43EF"/>
<path d="M14.9386 64.2706C14.9386 64.2706 10.8251 62.3511 10.7189 64.1813C10.6013 66.0553 14.4758 64.7513 14.9386 64.2706Z" fill="#8A43EF"/>
<path d="M16.3991 66.4593C16.3991 66.4593 12.2913 64.5362 12.1756 66.3683C12.0656 68.2422 15.9363 66.9365 16.3991 66.4593Z" fill="#8A43EF"/>
<path d="M17.7793 68.9462C17.7793 68.9462 13.6677 67.0249 13.5615 68.8534C13.4478 70.731 17.3203 69.4233 17.7793 68.9462Z" fill="#8A43EF"/>
<path d="M18.7029 71.1375C18.7029 71.1375 14.5876 69.2162 14.4757 71.0446C14.36 72.9204 18.2345 71.6146 18.7029 71.1375Z" fill="#8A43EF"/>
<path d="M19.8692 73.5161C19.8692 73.5161 15.7576 71.5966 15.6495 73.425C15.5338 75.3008 19.4102 73.9969 19.8692 73.5161Z" fill="#8A43EF"/>
<path d="M20.791 76.224C20.791 76.224 16.6775 74.3064 16.5713 76.1348C16.4575 78.0069 20.3282 76.703 20.791 76.224Z" fill="#8A43EF"/>
<path d="M13.2791 61.8652C13.2791 61.8652 11.4793 57.8332 13.3871 57.8132C15.3386 57.7913 13.8006 61.4464 13.2791 61.8652Z" fill="#8A43EF"/>
<path d="M14.9936 64.4453C14.9936 64.4453 13.9467 60.1729 15.828 60.4698C17.7586 60.7721 15.5872 64.1175 14.9936 64.4453Z" fill="#8A43EF"/>
<path d="M16.7022 67.3311C16.7022 67.3311 15.9682 62.9986 17.8249 63.4247C19.7327 63.8581 17.3109 67.0433 16.7022 67.3311Z" fill="#8A43EF"/>
<path d="M18.1684 70.0889C18.1684 70.0889 17.4402 65.7564 19.2987 66.1825C21.1971 66.6178 18.7848 69.8066 18.1684 70.0889Z" fill="#8A43EF"/>
<path d="M19.7917 73.2832C19.7917 73.2832 19.0597 68.9525 20.9163 69.3732C22.8166 69.8085 20.4062 72.9973 19.7917 73.2832Z" fill="#8A43EF"/>
<path d="M20.8501 76.3975C20.8501 76.3975 20.9487 72.0103 22.6916 72.7515C24.4799 73.5091 21.5063 76.2245 20.8501 76.3975Z" fill="#8A43EF"/>
<path d="M22.6952 81.613L22.3443 81.7041C16.6208 61.881 9.38951 58.6084 9.31934 58.5756L9.46347 58.2569C9.7688 58.3826 16.9223 61.626 22.6952 81.613Z" fill="#8A43EF"/>
<path d="M35.1226 52.8135C35.1226 52.8135 39.0217 52.7625 38.3788 51.3238C37.7188 49.8541 35.2857 52.2762 35.1226 52.8135Z" fill="#8A43EF"/>
<path d="M33.8255 53.9404C33.8255 53.9404 36.3023 51.0412 34.7378 50.5914C33.1352 50.127 33.4994 53.4779 33.8255 53.9404Z" fill="#8A43EF"/>
<path d="M33.5225 54.161C33.5225 54.161 37.0328 52.5201 37.1296 54.079C37.2263 55.6816 33.915 54.5689 33.5225 54.161Z" fill="#8A43EF"/>
<path d="M31.9917 55.7305C31.9917 55.7305 35.504 54.0879 35.5969 55.6504C35.6955 57.2475 32.3843 56.1384 31.9917 55.7305Z" fill="#8A43EF"/>
<path d="M30.7168 57.6815C30.7168 57.6815 34.2329 56.0407 34.3239 57.6032C34.4206 59.2058 31.1151 58.0877 30.7168 57.6815Z" fill="#8A43EF"/>
<path d="M29.4692 59.5512C29.4692 59.5512 32.9777 57.9104 33.0763 59.473C33.1768 61.0719 29.8656 59.961 29.4692 59.5512Z" fill="#8A43EF"/>
<path d="M28.2915 61.6728C28.2915 61.6728 31.8019 60.0338 31.8967 61.5963C31.9953 63.1971 28.6803 62.0843 28.2915 61.6728Z" fill="#8A43EF"/>
<path d="M27.5063 63.5453C27.5063 63.5453 31.0205 61.9063 31.1153 63.4689C31.2083 65.0697 27.9027 63.9551 27.5063 63.5453Z" fill="#8A43EF"/>
<path d="M26.5088 65.5779C26.5088 65.5779 30.0173 63.937 30.1121 65.5014C30.2069 67.1003 26.8995 65.9894 26.5088 65.5779Z" fill="#8A43EF"/>
<path d="M25.7217 67.8941C25.7217 67.8941 29.2283 66.2514 29.325 67.8176C29.4217 69.4148 26.1105 68.3021 25.7217 67.8941Z" fill="#8A43EF"/>
<path d="M32.1396 55.625C32.1396 55.625 33.6815 52.183 32.0448 52.1648C30.374 52.1484 31.694 55.2699 32.1396 55.625Z" fill="#8A43EF"/>
<path d="M30.6696 57.8271C30.6696 57.8271 31.5704 54.1812 29.9565 54.4362C28.3142 54.6948 30.1689 57.5503 30.6696 57.8271Z" fill="#8A43EF"/>
<path d="M29.2151 60.2959C29.2151 60.2959 29.841 56.5936 28.2555 56.9578C26.6283 57.3293 28.6917 60.0519 29.2151 60.2959Z" fill="#8A43EF"/>
<path d="M27.954 62.6514C27.954 62.6514 28.5836 58.9526 27.0001 59.3132C25.3748 59.6847 27.4325 62.4092 27.954 62.6514Z" fill="#8A43EF"/>
<path d="M26.5772 65.3789C26.5772 65.3789 27.1993 61.6802 25.6138 62.0389C23.9905 62.4123 26.0519 65.1367 26.5772 65.3789Z" fill="#8A43EF"/>
<path d="M25.6686 68.042C25.6686 68.042 25.587 64.2941 24.0907 64.9242C22.566 65.5689 25.1129 67.8927 25.6686 68.042Z" fill="#8A43EF"/>
<path d="M24.0908 72.4959L24.3848 72.5742C29.289 55.6376 35.4602 52.8403 35.5228 52.8148L35.3938 52.5417C35.1416 52.6491 29.0216 55.4191 24.0908 72.4959Z" fill="#8A43EF"/>
<path d="M34.8081 61.7822C34.8081 61.7822 39.3748 61.7276 38.62 60.043C37.8444 58.3184 34.994 61.1558 34.8081 61.7822Z" fill="#AA60FF"/>
<path d="M33.2871 63.1045C33.2871 63.1045 36.1811 59.7135 34.3529 59.1836C32.481 58.6427 32.9059 62.5654 33.2871 63.1045Z" fill="#AA60FF"/>
<path d="M32.9321 63.3594C32.9321 63.3594 37.0437 61.44 37.1537 63.2702C37.2637 65.1442 33.393 63.8402 32.9321 63.3594Z" fill="#AA60FF"/>
<path d="M31.1382 65.1962C31.1382 65.1962 35.2478 63.2767 35.3597 65.1069C35.4735 66.9791 31.5971 65.6769 31.1382 65.1962Z" fill="#AA60FF"/>
<path d="M29.6533 67.485C29.6533 67.485 33.763 65.5637 33.8749 67.3939C33.9849 69.2661 30.1123 67.9639 29.6533 67.485Z" fill="#AA60FF"/>
<path d="M28.1948 69.6702C28.1948 69.6702 32.3026 67.7525 32.4107 69.5809C32.5245 71.4567 28.6481 70.1509 28.1948 69.6702Z" fill="#AA60FF"/>
<path d="M26.8105 72.1593C26.8105 72.1593 30.9221 70.238 31.0302 72.0683C31.1478 73.9404 27.2714 72.6365 26.8105 72.1593Z" fill="#AA60FF"/>
<path d="M25.894 74.3495C25.894 74.3495 30.0037 72.43 30.1118 74.2584C30.2294 76.1324 26.3511 74.8248 25.894 74.3495Z" fill="#AA60FF"/>
<path d="M24.7207 76.7307C24.7207 76.7307 28.8266 74.8094 28.9404 76.6379C29.0579 78.5136 25.1815 77.2061 24.7207 76.7307Z" fill="#AA60FF"/>
<path d="M23.8008 79.4407C23.8008 79.4407 27.9066 77.5176 28.0223 79.3478C28.1361 81.2236 24.2616 79.916 23.8008 79.4407Z" fill="#AA60FF"/>
<path d="M31.3106 65.0801C31.3106 65.0801 33.1142 61.0462 31.2025 61.0244C29.2511 61.0062 30.7929 64.6594 31.3106 65.0801Z" fill="#AA60FF"/>
<path d="M29.5963 67.6592C29.5963 67.6592 30.645 63.3868 28.7618 63.6818C26.8369 63.9859 29.0084 67.3314 29.5963 67.6592Z" fill="#AA60FF"/>
<path d="M27.8953 70.5439C27.8953 70.5439 28.6197 66.2133 26.7631 66.6358C24.8609 67.0729 27.2808 70.2562 27.8953 70.5439Z" fill="#AA60FF"/>
<path d="M26.422 73.3037C26.422 73.3037 27.154 68.973 25.2935 69.3956C23.3952 69.829 25.8094 73.0178 26.422 73.3037Z" fill="#AA60FF"/>
<path d="M24.8019 76.4951C24.8019 76.4951 25.532 72.1645 23.6772 72.587C21.7732 73.024 24.1912 76.2092 24.8019 76.4951Z" fill="#AA60FF"/>
<path d="M23.7417 79.6094C23.7417 79.6094 23.6431 75.2259 21.9002 75.9616C20.1137 76.7192 23.0855 79.4364 23.7417 79.6094Z" fill="#AA60FF"/>
<path d="M21.895 84.8251L22.244 84.918C27.9732 65.0894 35.2044 61.8186 35.2746 61.7877L35.1267 61.469C34.8251 61.5964 27.6698 64.8381 21.895 84.8251Z" fill="#AA60FF"/>
<path d="M12.7554 67.5166C12.7554 67.5166 9.96757 67.4838 10.4265 66.4567C10.8968 65.4077 12.6359 67.1342 12.7554 67.5166Z" fill="#AA60FF"/>
<path d="M13.6772 68.3232C13.6772 68.3232 11.9097 66.2526 13.0248 65.9339C14.1684 65.6043 13.9105 67.9918 13.6772 68.3232Z" fill="#AA60FF"/>
<path d="M13.8898 68.477C13.8898 68.477 11.3903 67.306 11.3239 68.4223C11.2518 69.5642 13.6091 68.7702 13.8898 68.477Z" fill="#AA60FF"/>
<path d="M14.9858 69.5982C14.9858 69.5982 12.4825 68.4272 12.4142 69.5436C12.3421 70.6818 14.709 69.8896 14.9858 69.5982Z" fill="#AA60FF"/>
<path d="M15.8945 70.9912C15.8945 70.9912 13.3874 69.8202 13.3248 70.9348C13.2546 72.0748 15.61 71.2826 15.8945 70.9912Z" fill="#AA60FF"/>
<path d="M16.7837 72.3254C16.7837 72.3254 14.2822 71.1544 14.2121 72.2689C14.14 73.4108 16.5049 72.6167 16.7837 72.3254Z" fill="#AA60FF"/>
<path d="M17.6218 73.8387C17.6218 73.8387 15.1241 72.6677 15.0501 73.7823C14.9856 74.9259 17.343 74.1319 17.6218 73.8387Z" fill="#AA60FF"/>
<path d="M18.1833 75.1733C18.1833 75.1733 15.6799 74.0059 15.6098 75.1186C15.5434 76.2605 17.9064 75.4665 18.1833 75.1733Z" fill="#AA60FF"/>
<path d="M18.8984 76.623C18.8984 76.623 16.3912 75.452 16.3267 76.5684C16.2566 77.7102 18.6196 76.9144 18.8984 76.623Z" fill="#AA60FF"/>
<path d="M19.46 78.2729C19.46 78.2729 16.9548 77.1037 16.8846 78.2182C16.8201 79.3601 19.1793 78.5661 19.46 78.2729Z" fill="#AA60FF"/>
<path d="M14.8834 69.5254C14.8834 69.5254 13.7835 67.0687 14.946 67.0541C16.137 67.0395 15.1944 69.2704 14.8834 69.5254Z" fill="#AA60FF"/>
<path d="M15.9285 71.0938C15.9285 71.0938 15.2913 68.4932 16.4348 68.6717C17.6125 68.8574 16.2869 70.8971 15.9285 71.0938Z" fill="#AA60FF"/>
<path d="M16.9678 72.8545C16.9678 72.8545 16.5221 70.2175 17.6543 70.4724C18.8093 70.742 17.3395 72.6815 16.9678 72.8545Z" fill="#AA60FF"/>
<path d="M17.8648 74.5371C17.8648 74.5371 17.4172 71.8946 18.5475 72.155C19.71 72.4209 18.2346 74.3623 17.8648 74.5371Z" fill="#AA60FF"/>
<path d="M18.8545 76.4824C18.8545 76.4824 18.4031 73.8436 19.5353 74.1004C20.694 74.3662 19.2205 76.3076 18.8545 76.4824Z" fill="#AA60FF"/>
<path d="M19.4922 78.3799C19.4922 78.3799 19.5567 75.7065 20.613 76.1545C21.7073 76.6225 19.8923 78.2724 19.4922 78.3799Z" fill="#AA60FF"/>
<path d="M20.6206 81.556L20.4082 81.6143C16.9206 69.5328 12.5151 67.5387 12.4639 67.5187L12.5606 67.3256C12.7427 67.4021 17.1007 69.3744 20.6206 81.556Z" fill="#AA60FF"/>
<path d="M32.6304 69.6309C32.6304 69.6309 35.7216 69.5926 35.2115 68.4544C34.688 67.2871 32.7593 69.2047 32.6304 69.6309Z" fill="#8A43EF"/>
<path d="M31.6068 70.5254C31.6068 70.5254 33.562 68.2289 32.3236 67.872C31.0625 67.5077 31.3507 70.1575 31.6068 70.5254Z" fill="#8A43EF"/>
<path d="M31.3657 70.6995C31.3657 70.6995 34.1441 69.3992 34.218 70.6375C34.2996 71.9069 31.6767 71.0218 31.3657 70.6995Z" fill="#8A43EF"/>
<path d="M30.1558 71.9422C30.1558 71.9422 32.9303 70.6418 33.0062 71.8784C33.0877 73.1459 30.4668 72.2663 30.1558 71.9422Z" fill="#8A43EF"/>
<path d="M29.147 73.4853C29.147 73.4853 31.9215 72.1868 31.9992 73.4252C32.0808 74.6946 29.458 73.8113 29.147 73.4853Z" fill="#8A43EF"/>
<path d="M28.1587 74.9673C28.1587 74.9673 30.937 73.6689 31.0148 74.9054C31.0888 76.1729 28.4697 75.2915 28.1587 74.9673Z" fill="#8A43EF"/>
<path d="M27.2222 76.6457C27.2222 76.6457 30.0043 75.3491 30.0782 76.5857C30.156 77.8532 27.5351 76.9735 27.2222 76.6457Z" fill="#8A43EF"/>
<path d="M26.6035 78.1295C26.6035 78.1295 29.3837 76.8328 29.4577 78.0694C29.5317 79.3351 26.9107 78.4555 26.6035 78.1295Z" fill="#8A43EF"/>
<path d="M25.8091 79.7371C25.8091 79.7371 28.595 78.4423 28.6671 79.6789C28.7429 80.9446 26.1201 80.0649 25.8091 79.7371Z" fill="#8A43EF"/>
<path d="M25.1909 81.5726C25.1909 81.5726 27.9655 80.2741 28.0432 81.5125C28.121 82.78 25.5 81.8967 25.1909 81.5726Z" fill="#8A43EF"/>
<path d="M30.2697 71.8604C30.2697 71.8604 31.4853 69.1323 30.1957 69.1159C28.8739 69.1068 29.9169 71.5781 30.2697 71.8604Z" fill="#8A43EF"/>
<path d="M29.1091 73.6035C29.1091 73.6035 29.8183 70.7115 28.5401 70.9137C27.2372 71.1213 28.7089 73.3813 29.1091 73.6035Z" fill="#8A43EF"/>
<path d="M27.954 75.5537C27.954 75.5537 28.449 72.6271 27.1935 72.9131C25.9058 73.2081 27.5406 75.3661 27.954 75.5537Z" fill="#8A43EF"/>
<path d="M26.9621 77.4248C26.9621 77.4248 27.4552 74.4946 26.1978 74.7769C24.9139 75.0755 26.5468 77.2299 26.9621 77.4248Z" fill="#8A43EF"/>
<path d="M25.8661 79.582C25.8661 79.582 26.3591 76.6518 25.1037 76.9377C23.8179 77.2309 25.4545 79.3872 25.8661 79.582Z" fill="#8A43EF"/>
<path d="M25.1471 81.6875C25.1471 81.6875 25.0826 78.7209 23.903 79.2198C22.6912 79.7352 24.7109 81.5691 25.1471 81.6875Z" fill="#8A43EF"/>
<path d="M23.8994 85.2144L24.1365 85.2764C28.011 71.8691 32.9039 69.6546 32.9456 69.6327L32.8489 69.416C32.644 69.5053 27.8042 71.6961 23.8994 85.2144Z" fill="#8A43EF"/>
<path d="M27.6108 77.539C27.6108 78.4623 28.4662 79.209 29.5187 79.209C30.5731 79.209 31.4303 78.4623 31.4303 77.539C31.4303 76.6139 30.5731 75.8672 29.5187 75.8672C28.4662 75.8672 27.6108 76.6139 27.6108 77.539Z" fill="#8D5F4B"/>
<path d="M22.0273 78.2782C22.0273 80.1012 23.7133 81.5781 25.7975 81.5781C27.8799 81.5781 29.5696 80.1012 29.5696 78.2782C29.5696 76.4516 27.8799 74.9765 25.7975 74.9765C23.7133 74.9765 22.0273 76.4516 22.0273 78.2782Z" fill="#8D5F4B"/>
<path d="M20.0933 77.5536C20.0933 78.4478 20.9201 79.1689 21.9442 79.1689C22.9626 79.1689 23.7876 78.4478 23.7876 77.5536C23.7876 76.6612 22.9626 75.9382 21.9442 75.9382C20.9201 75.9382 20.0933 76.6612 20.0933 77.5536Z" fill="#8D5F4B"/>
<path d="M18.6689 77.2475C18.6689 77.9377 19.3119 78.4932 20.0932 78.4932C20.8783 78.4932 21.5174 77.9377 21.5174 77.2475C21.5174 76.5627 20.8783 76.0073 20.0932 76.0073C19.3119 76.0073 18.6689 76.5627 18.6689 77.2475Z" fill="#8D5F4B"/>
<path d="M16.6475 77.6275C16.6475 78.4178 17.3795 79.0625 18.2803 79.0625C19.1868 79.0625 19.9208 78.4178 19.9208 77.6275C19.9208 76.8334 19.1868 76.1942 18.2803 76.1942C17.3795 76.1942 16.6475 76.8334 16.6475 77.6275Z" fill="#8D5F4B"/>
<path d="M29.0181 91.5137H19.1356L18.1323 78.8695H30.0175L29.0181 91.5137Z" fill="#E5649A"/>
<path d="M30.8256 80.9453H17.3227L15.9478 76.7895H32.2024L30.8256 80.9453Z" fill="#D34F8B"/>
</svg>
