<svg width="43" height="43" viewBox="0 0 43 43" fill="none" xmlns="http://www.w3.org/2000/svg">
  <mask id="mask0_avatar" style="mask-type:alpha" maskUnits="userSpaceOnUse" x="0" y="0" width="43" height="43">
    <circle cx="21.45" cy="21.45" r="20.95" fill="white" stroke="#DDDDDD"/>
  </mask>
  <g mask="url(#mask0_avatar)">
    <rect x="7.79297" y="8.9165" width="26.2429" height="29.8753" rx="13.1215" fill="#F2F2F2" stroke="#BBBBBB"/>
    
    <mask id="path-3-inside-1_avatar" fill="white">
      <path d="M20.6113 6.6001C28.301 6.60014 34.5352 12.8342 34.5352 20.5239V21.3257C34.5352 21.5571 34.5287 21.7875 34.5176 22.0161C32.1498 22.7764 28.1299 23.1001 21.4502 23.1001C12.6388 23.1001 8.50178 22.8121 6.71191 22.1431C6.69627 21.8727 6.6875 21.6 6.6875 21.3257V20.5239C6.6875 12.8342 12.9216 6.6001 20.6113 6.6001Z"/>
    </mask>
    
    <path d="M20.6113 6.6001C28.301 6.60014 34.5352 12.8342 34.5352 20.5239V21.3257C34.5352 21.5571 34.5287 21.7875 34.5176 22.0161C32.1498 22.7764 28.1299 23.1001 21.4502 23.1001C12.6388 23.1001 8.50178 22.8121 6.71191 22.1431C6.69627 21.8727 6.6875 21.6 6.6875 21.3257V20.5239C6.6875 12.8342 12.9216 6.6001 20.6113 6.6001Z" fill="#E2E2E2"/>
    
    <path d="M20.6113 6.6001L20.6113 5.6001H20.6113V6.6001ZM34.5176 22.0161L34.8233 22.9682L35.4826 22.7565L35.5164 22.0649L34.5176 22.0161ZM21.4502 23.1001V24.1001H21.4502L21.4502 23.1001ZM6.71191 22.1431L5.71358 22.2008L5.75124 22.8515L6.36177 23.0798L6.71191 22.1431ZM20.6113 6.6001L20.6113 7.6001C27.7488 7.60013 33.5352 13.3865 33.5352 20.5239H34.5352H35.5352C35.5352 12.2819 28.8533 5.60014 20.6113 5.6001L20.6113 6.6001ZM34.5352 20.5239H33.5352V21.3257H34.5352H35.5352V20.5239H34.5352ZM34.5352 21.3257H33.5352C33.5352 21.5387 33.5292 21.7527 33.5188 21.9674L34.5176 22.0161L35.5164 22.0649C35.5282 21.8223 35.5352 21.5755 35.5352 21.3257H34.5352ZM34.5176 22.0161L34.2119 21.064C32.0148 21.7695 28.1478 22.1001 21.4502 22.1001L21.4502 23.1001L21.4502 24.1001C28.112 24.1001 32.2847 23.7834 34.8233 22.9682L34.5176 22.0161ZM21.4502 23.1001V22.1001C17.0506 22.1001 13.8398 22.0281 11.5138 21.8747C9.15972 21.7194 7.80754 21.485 7.06206 21.2064L6.71191 22.1431L6.36177 23.0798C7.40615 23.4702 9.01744 23.7143 11.3822 23.8703C13.7751 24.0281 17.0385 24.1001 21.4502 24.1001V23.1001ZM6.71191 22.1431L7.71024 22.0853C7.69559 21.8321 7.6875 21.5787 7.6875 21.3257H6.6875H5.6875C5.6875 21.6212 5.69695 21.9133 5.71358 22.2008L6.71191 22.1431ZM6.6875 21.3257H7.6875V20.5239H6.6875H5.6875V21.3257H6.6875ZM6.6875 20.5239H7.6875C7.6875 13.3865 13.4739 7.6001 20.6113 7.6001V6.6001V5.6001C12.3693 5.6001 5.6875 12.2819 5.6875 20.5239H6.6875Z" fill="#BBBBBB" mask="url(#path-3-inside-1_avatar)"/>
    
    <rect x="16.374" y="24.7622" width="1.8162" height="3.63239" rx="0.908098" fill="#8A8A8A"/>
    <rect x="23.6387" y="24.7622" width="1.8162" height="3.63239" rx="0.908098" fill="#8A8A8A"/>
    <path d="M18.1895 32.0269C19.5516 33.8431 22.2759 33.8431 23.638 32.0269" stroke="#8A8A8A" stroke-linecap="round" stroke-linejoin="round"/>
    <path d="M14.8506 20.3003C17.7123 20.3003 20.2886 20.545 22.1367 20.9341C23.0648 21.1295 23.7832 21.3555 24.2568 21.5913C24.4944 21.7096 24.6447 21.8185 24.7295 21.9058C24.8121 21.9908 24.8009 22.0207 24.8008 22.0005C24.8008 21.9799 24.8125 22.0098 24.7295 22.0952C24.6447 22.1824 24.4943 22.2905 24.2568 22.4087C23.7831 22.6445 23.0649 22.8715 22.1367 23.0669C20.2886 23.456 17.7123 23.7007 14.8506 23.7007C11.989 23.7007 9.41254 23.4559 7.56445 23.0669C6.63629 22.8715 5.91803 22.6445 5.44434 22.4087C5.20691 22.2905 5.05652 22.1824 4.97168 22.0952C4.88867 22.0098 4.90039 21.9799 4.90039 22.0005C4.90031 22.0207 4.88893 21.9909 4.97168 21.9058C5.0565 21.8185 5.20663 21.7096 5.44434 21.5913C5.91803 21.3555 6.63633 21.1295 7.56445 20.9341C9.41255 20.545 11.9889 20.3003 14.8506 20.3003Z" fill="#D9D9D9" stroke="#ADADAD"/>
    <path d="M20.9004 7.1001C21.4101 7.10014 21.8527 7.25527 22.1562 7.48291C22.4596 7.71046 22.6006 7.98753 22.6006 8.25049C22.6004 8.5133 22.4594 8.78967 22.1562 9.01709C21.8527 9.24473 21.4101 9.39986 20.9004 9.3999C20.3907 9.3999 19.9481 9.24472 19.6445 9.01709C19.3413 8.78965 19.2003 8.51334 19.2002 8.25049C19.2002 7.98752 19.3411 7.71047 19.6445 7.48291C19.9481 7.25532 20.3907 7.1001 20.9004 7.1001Z" fill="#D9D9D9" stroke="#ADADAD"/>
  </g>
</svg>