<svg width="140" height="140" viewBox="0 0 140 140" fill="none" xmlns="http://www.w3.org/2000/svg">
<path d="M105.084 51.7892C73.1497 44.7945 99.3281 0.548547 55.5734 4.21552C11.8187 7.88249 -29.6722 108.538 48.0061 132.107C125.684 155.676 165.72 65.0679 105.084 51.7892Z" fill="#FFCDA5"/>
<g clip-path="url(#clip0_22764_52052)">
<path d="M74.182 84.9813C74.9601 86.5161 75.1144 88.2892 74.613 89.9339C74.1117 91.5785 72.993 92.9688 71.4885 93.8172C68.629 94.8165 65.1977 92.4707 63.828 88.5858C63.0486 87.051 62.8931 85.2774 63.3939 83.6319C63.8946 81.9865 65.0132 80.5953 66.518 79.7464C69.3774 78.7471 72.8087 81.0963 74.182 84.9813ZM97.2022 112.604C95.9544 112.606 94.7185 112.362 93.5657 111.888C92.4128 111.414 91.3656 110.718 90.4843 109.841C89.825 109.187 88.9311 108.819 87.9991 108.819C87.067 108.819 86.1731 109.187 85.5138 109.841C83.7281 111.594 81.3164 112.574 78.8055 112.567C76.2945 112.56 73.8885 111.566 72.113 109.803C70.3375 108.039 69.3368 105.649 69.3296 103.155C69.3224 100.662 70.3092 98.2661 72.0745 96.4925C74.1651 94.4143 76.6476 92.7657 79.38 91.641C82.1125 90.5162 85.0413 89.9372 87.9991 89.9372C90.9569 89.9372 93.8857 90.5162 96.6181 91.641C99.3505 92.7657 101.833 94.4143 103.924 96.4925C105.252 97.8127 106.157 99.4946 106.523 101.325C106.889 103.156 106.701 105.054 105.981 106.778C105.262 108.503 104.044 109.977 102.481 111.013C100.919 112.05 99.0815 112.604 97.2022 112.604ZM87.0459 78.5192C87.4942 83.2071 85.0584 87.2709 81.6095 87.5935C78.1605 87.9161 75.001 84.3782 74.5562 79.6903C74.1078 75.0059 76.5437 70.9421 79.9926 70.6195C83.4416 70.2934 86.5976 73.8313 87.0459 78.5192ZM88.9522 78.5192C88.5039 83.2071 90.9397 87.2709 94.3887 87.5935C97.8376 87.9161 100.994 84.3782 101.442 79.6903C101.89 75.0059 99.4544 70.9421 96.0055 70.6195C92.5565 70.2934 89.397 73.8313 88.9522 78.5192ZM101.816 84.9778C101.036 86.5133 100.88 88.2881 101.382 89.9344C101.883 91.5807 103.003 92.9722 104.51 93.8207C107.369 94.8165 110.8 92.4707 112.17 88.5858C112.95 87.051 113.105 85.2774 112.604 83.6319C112.104 81.9865 110.985 80.5953 109.48 79.7464C106.621 78.7471 103.189 81.0928 101.816 84.9778Z" fill="#FFA000"/>
</g>
<g clip-path="url(#clip1_22764_52052)">
<path d="M38.182 42.9813C38.9601 44.5161 39.1144 46.2892 38.613 47.9339C38.1117 49.5785 36.993 50.9688 35.4885 51.8172C32.629 52.8165 29.1977 50.4707 27.828 46.5858C27.0486 45.051 26.8931 43.2774 27.3939 41.6319C27.8946 39.9865 29.0132 38.5953 30.518 37.7464C33.3774 36.7471 36.8087 39.0963 38.182 42.9813ZM61.2022 70.6039C59.9544 70.6056 58.7185 70.3624 57.5657 69.8882C56.4128 69.4141 55.3656 68.7183 54.4843 67.841C53.825 67.1866 52.9311 66.8191 51.9991 66.8191C51.067 66.8191 50.1731 67.1866 49.5138 67.841C47.7281 69.5943 45.3164 70.5744 42.8055 70.5673C40.2945 70.5601 37.8885 69.5662 36.113 67.8027C34.3375 66.0392 33.3368 63.6494 33.3296 61.1555C33.3224 58.6615 34.3092 56.2661 36.0745 54.4925C38.1651 52.4143 40.6476 50.7657 43.38 49.641C46.1125 48.5162 49.0413 47.9372 51.9991 47.9372C54.9569 47.9372 57.8857 48.5162 60.6181 49.641C63.3505 50.7657 65.833 52.4143 67.9236 54.4925C69.2521 55.8127 70.1567 57.4946 70.523 59.3254C70.8892 61.1562 70.7007 63.0538 69.9813 64.7782C69.2619 66.5026 68.0439 67.9765 66.4813 69.0135C64.9186 70.0504 63.0815 70.6039 61.2022 70.6039ZM51.0459 36.5192C51.4942 41.2071 49.0584 45.2709 45.6095 45.5935C42.1605 45.9161 39.001 42.3782 38.5562 37.6903C38.1078 33.0059 40.5437 28.9421 43.9926 28.6195C47.4416 28.2934 50.5976 31.8313 51.0459 36.5192ZM52.9522 36.5192C52.5039 41.2071 54.9397 45.2709 58.3887 45.5935C61.8376 45.9161 64.9936 42.3782 65.4419 37.6903C65.8903 33.0059 63.4544 28.9421 60.0055 28.6195C56.5565 28.2934 53.397 31.8313 52.9522 36.5192ZM65.8161 42.9778C65.0359 44.5133 64.8804 46.2881 65.3819 47.9344C65.8833 49.5807 67.0033 50.9722 68.5096 51.8207C71.3691 52.8165 74.8004 50.4707 76.1701 46.5858C76.9495 45.051 77.105 43.2774 76.6042 41.6319C76.1035 39.9865 74.985 38.5953 73.4801 37.7464C70.6207 36.7471 67.1894 39.0928 65.8161 42.9778Z" fill="#FFA000"/>
</g>
<defs>
<clipPath id="clip0_22764_52052">
<rect width="50" height="43" fill="white" transform="translate(63 70)"/>
</clipPath>
<clipPath id="clip1_22764_52052">
<rect width="50" height="43" fill="white" transform="translate(27 28)"/>
</clipPath>
</defs>
</svg>
