<svg width="1200" height="630" viewBox="0 0 1200 630" fill="none" xmlns="http://www.w3.org/2000/svg">
<rect width="1200" height="630" fill="#DCDAF9"/>
<g clip-path="url(#clip0_22670_48904)">
<path d="M876 326L916 366H636L680 408V412L286 354V352H540L512 326H876Z" fill="#A49CEF"/>
<path d="M874 310L914 350H634L678 392V396L284 338V336H538L510 310H874Z" fill="#0F073A"/>
<path d="M426.174 226L427.322 226.018C433.003 226.202 437.759 227.773 441.344 230.955C445.377 234.317 447.195 239.355 447.195 245.589V262.051C447.195 268.401 445.492 273.676 441.82 277.588C439.886 279.647 437.566 281.165 434.906 282.184C435.513 282.714 436.065 283.318 436.552 284.001C438.559 286.674 440.187 290.614 441.529 295.614L451.227 331.166L452 334H433.086L432.667 332.273L424.283 297.6L423.998 296.493C423.305 293.952 422.423 291.698 421.363 289.721L421.343 289.686L421.327 289.65C420.868 288.717 420.338 288.145 419.795 287.798C419.259 287.456 418.567 287.242 417.625 287.242H409.713V334H392V226H426.174ZM409.713 273.109H420.256C424.418 273.109 426.66 272.027 427.794 270.517L427.812 270.49L427.834 270.466C429.251 268.69 430.139 265.827 430.139 261.523V247.865C430.139 244.02 429.302 241.725 428.117 240.463L428.068 240.41L428.023 240.357C426.964 239.078 425.113 238.206 421.9 238.206H409.713V273.109Z" fill="#A49CEF" stroke="#A49CEF" stroke-width="2"/>
<path d="M512 226V240.356H486.187V271.146H507.097V286.394H486.187V321.822H512V336H470V226H512Z" fill="#A49CEF" stroke="#A49CEF" stroke-width="2"/>
<path d="M538.927 294.889C541.505 294.89 543.661 296.007 545.324 297.917C547.104 299.727 548 301.942 548 304.444C548 307.026 547.125 309.312 545.317 311.15L545.32 311.152C543.624 312.978 541.458 314 538.927 314C536.392 314 534.226 312.978 532.531 311.152C530.809 309.298 530 307.008 530 304.444C530 301.96 530.833 299.74 532.531 297.91C534.194 296.004 536.35 294.889 538.927 294.889ZM538.927 246C541.505 246 543.661 247.118 545.324 249.028C547.104 250.838 548 253.055 548 255.556C548 258.139 547.125 260.426 545.317 262.263C543.622 264.089 541.458 265.11 538.927 265.111C536.392 265.111 534.226 264.091 532.531 262.265C530.809 260.411 530 258.121 530 255.556C530 253.073 530.833 250.851 532.531 249.021C534.194 247.115 536.352 246 538.927 246Z" fill="#A49CEF" stroke="#A49CEF" stroke-width="2"/>
<path d="M596.128 226L597.142 226.02C602.174 226.214 606.444 227.868 609.752 231.117H609.75C613.379 234.559 614.974 239.659 614.974 245.937V258.427C614.974 261.93 614.565 265.127 613.708 267.994L613.699 268.023C612.848 270.746 611.639 273.073 610.011 274.914C609.203 275.828 608.31 276.612 607.339 277.259C608.473 277.889 609.496 278.711 610.4 279.719H610.402C610.412 279.727 610.419 279.737 610.425 279.746C610.432 279.752 610.439 279.759 610.446 279.766H610.444C612.252 281.707 613.61 284.133 614.565 286.972C615.54 289.877 616 293.225 616 296.97V311.96C616 318.051 615.158 323.041 613.262 326.715L613.264 326.717C611.492 330.224 608.919 332.786 605.519 334.214L605.48 334.23L605.439 334.245C602.284 335.438 598.626 336 594.517 336H566V226H596.128ZM582.007 323.785H592.319C594.107 323.785 595.503 323.473 596.584 322.946C597.335 322.581 598.15 321.744 598.811 319.93L598.818 319.907L598.827 319.885C599.558 318.009 599.993 315.123 599.993 311.068V297.149C599.993 291.764 598.891 289.088 597.589 288.006L597.568 287.988L597.548 287.973C595.989 286.616 593.921 285.859 591.147 285.859H582.007V323.785ZM582.007 272.395H590.853C593.782 272.395 595.739 271.44 597.087 269.72C598.518 267.776 599.407 264.661 599.407 260.033V248.257C599.407 244.332 598.564 241.983 597.371 240.691L597.326 240.642L597.284 240.591C596.021 239.052 594.599 238.395 592.905 238.395H582.007V272.395Z" fill="#A49CEF" stroke="#A49CEF" stroke-width="2"/>
<path d="M658 224C662.461 224 666.474 224.678 669.993 226.093L669.991 226.096C673.787 227.467 676.754 230.054 678.87 233.737C681.045 237.526 682 242.864 682 249.469V306.836C682 314.802 681.056 321.087 678.943 325.426L678.929 325.45C676.836 329.614 673.847 332.538 669.909 333.937L669.907 333.935C666.324 335.326 662.296 336 657.859 336C653.397 336 649.385 335.322 645.865 333.907C642.027 332.481 639.12 329.479 637.06 325.248C634.946 320.913 634 314.691 634 306.836V249.469C634 242.881 634.948 237.552 637.113 233.765L637.52 233.065C639.593 229.629 642.394 227.185 645.929 225.892L645.949 225.886C649.531 224.613 653.559 224 658 224ZM657.859 237.103C655.92 237.103 654.346 237.418 653.079 237.974C652.119 238.395 651.18 239.3 650.393 241.065L650.382 241.089L650.373 241.111C649.646 242.649 649.175 245.236 649.175 249.117V311.06C649.175 315.036 649.639 317.757 650.382 319.436C651.153 321.057 652.08 321.94 653.079 322.379C654.346 322.935 655.92 323.249 657.859 323.249C659.795 323.249 661.369 322.935 662.638 322.379L662.68 322.361C663.775 321.908 664.723 321.018 665.475 319.436C666.217 317.757 666.684 315.036 666.684 311.06V249.117C666.684 245.236 666.213 242.649 665.486 241.111L665.475 241.089L665.466 241.065C664.696 239.34 663.735 238.428 662.68 237.991L662.638 237.974C661.369 237.418 659.795 237.103 657.859 237.103Z" fill="#A49CEF" stroke="#A49CEF" stroke-width="2"/>
<path d="M725.002 224C729.649 224 733.829 224.678 737.493 226.093L737.491 226.096C741.445 227.467 744.535 230.054 746.739 233.737C749.005 237.526 750 242.864 750 249.469V306.836C750 314.802 749.019 321.087 746.815 325.426L746.801 325.45C744.623 329.614 741.507 332.538 737.406 333.937L737.403 333.935C733.67 335.326 729.474 336 724.853 336C720.205 336 716.026 335.322 712.36 333.907C708.362 332.481 705.333 329.479 703.187 325.248C700.986 320.913 700 314.691 700 306.836V249.469C700 242.881 700.988 237.552 703.242 233.765L703.666 233.065C705.829 229.629 708.746 227.185 712.429 225.892L712.447 225.886C716.178 224.613 720.374 224 725.002 224ZM724.853 237.103C722.835 237.103 721.193 237.418 719.874 237.974C718.874 238.395 717.898 239.3 717.076 241.065L717.064 241.089L717.055 241.111C716.297 242.649 715.807 245.236 715.807 249.117V311.06C715.807 315.036 716.291 317.757 717.064 319.436C717.868 321.057 718.835 321.94 719.874 322.379C721.193 322.935 722.835 323.249 724.853 323.249C726.872 323.249 728.512 322.935 729.831 322.379L729.877 322.361C731.015 321.908 732.003 321.018 732.786 319.436C733.56 317.757 734.046 315.036 734.046 311.06V249.117C734.046 245.236 733.555 242.649 732.798 241.111L732.786 241.089L732.779 241.065C731.975 239.34 730.974 238.428 729.877 237.991L729.831 237.974C728.512 237.418 726.872 237.103 724.853 237.103Z" fill="#A49CEF" stroke="#A49CEF" stroke-width="2"/>
<path d="M812 226V240.356H797.73V336H782.128V240.356H768V226H812Z" fill="#A49CEF" stroke="#A49CEF" stroke-width="2"/>
<path d="M422.174 218L423.322 218.018C429.003 218.201 433.759 219.773 437.344 222.955C441.377 226.317 443.195 231.355 443.195 237.589V254.051C443.195 260.401 441.492 265.676 437.82 269.587C435.886 271.647 433.566 273.165 430.906 274.184C431.513 274.714 432.065 275.318 432.552 276.001C434.559 278.674 436.187 282.614 437.529 287.614L447.227 323.165L448 326H429.086L428.667 324.273L420.283 289.6L419.998 288.493C419.305 285.952 418.423 283.698 417.363 281.721L417.343 281.686L417.327 281.65C416.868 280.717 416.338 280.145 415.795 279.798C415.259 279.456 414.567 279.242 413.625 279.242H405.713V326H388V218H422.174ZM405.713 265.109H416.256C420.418 265.109 422.66 264.027 423.794 262.517L423.812 262.49L423.834 262.466C425.251 260.69 426.139 257.826 426.139 253.523V239.865C426.139 236.02 425.302 233.725 424.117 232.462L424.068 232.41L424.023 232.357C422.964 231.078 421.113 230.206 417.9 230.206H405.713V265.109Z" fill="#0F073A" stroke="#0F073A" stroke-width="2"/>
<path d="M508 218V232.356H482.187V263.146H503.097V278.394H482.187V313.822H508V328H466V218H508Z" fill="#0F073A" stroke="#0F073A" stroke-width="2"/>
<path d="M534.925 292.327C537.503 292.327 539.661 293.478 541.324 295.444C543.102 297.307 544 299.588 544 302.162C544 304.821 543.125 307.175 541.317 309.066L541.32 309.069C539.624 310.948 537.458 312 534.925 312C532.392 312 530.226 310.948 528.531 309.069C526.809 307.16 526 304.802 526 302.162C526 299.606 526.833 297.32 528.531 295.437C530.194 293.475 532.35 292.327 534.925 292.327ZM534.925 242C537.503 242 539.661 243.151 541.324 245.117C543.104 246.98 544 249.262 544 251.838C544 254.496 543.125 256.85 541.317 258.742C539.622 260.621 537.458 261.673 534.925 261.673C532.392 261.673 530.226 260.623 528.531 258.744C526.809 256.835 526 254.477 526 251.838C526 249.281 526.833 246.994 528.531 245.11C530.194 243.148 532.35 242 534.925 242Z" fill="#0F073A" stroke="#0F073A" stroke-width="2"/>
<path d="M590.923 218L591.897 218.02C596.727 218.214 600.826 219.868 604.002 223.117H604C607.484 226.559 609.015 231.659 609.015 237.937V250.427C609.015 253.93 608.622 257.127 607.8 259.994L607.791 260.023C606.974 262.746 605.813 265.073 604.251 266.915C603.475 267.828 602.618 268.612 601.686 269.259C602.774 269.889 603.756 270.711 604.624 271.719H604.626C604.635 271.727 604.642 271.737 604.648 271.746C604.655 271.752 604.662 271.759 604.668 271.766H604.666C606.402 273.707 607.705 276.133 608.622 278.972C609.558 281.877 610 285.225 610 288.97V303.96C610 310.051 609.191 315.041 607.371 318.715L607.374 318.717C605.673 322.224 603.202 324.786 599.938 326.214L599.901 326.23L599.862 326.245C596.833 327.438 593.321 328 589.376 328H562V218H590.923ZM577.367 315.785H587.266C588.982 315.785 590.323 315.473 591.36 314.946C592.081 314.581 592.864 313.744 593.499 311.93L593.506 311.907L593.514 311.885C594.215 310.009 594.633 307.123 594.633 303.068V289.149C594.633 283.764 593.576 281.088 592.325 280.006L592.306 279.988L592.286 279.973C590.789 278.616 588.804 277.859 586.141 277.859H577.367V315.785ZM577.367 264.395H585.859C588.67 264.395 590.549 263.44 591.844 261.72C593.218 259.776 594.07 256.661 594.07 252.033V240.257C594.07 236.332 593.262 233.983 592.116 232.691L592.073 232.642L592.033 232.591C590.82 231.052 589.455 230.395 587.829 230.395H577.367V264.395Z" fill="#0F073A" stroke="#0F073A" stroke-width="2"/>
<path d="M653 218C657.647 218 661.827 218.69 665.493 220.131L665.491 220.133C669.445 221.528 672.535 224.162 674.739 227.91C677.005 231.767 678 237.201 678 243.924V302.316C678 310.424 677.017 316.82 674.815 321.237L674.801 321.261C672.62 325.5 669.507 328.476 665.406 329.9L665.403 329.898C661.67 331.313 657.474 332 652.853 332C648.205 332 644.026 331.31 640.36 329.869C636.362 328.418 633.333 325.362 631.187 321.056C628.986 316.643 628 310.311 628 302.316V243.924C628 237.218 628.988 231.794 631.242 227.939L631.666 227.227C633.826 223.729 636.744 221.242 640.426 219.926L640.447 219.919C644.178 218.624 648.374 218 653 218ZM652.853 231.337C650.833 231.337 649.193 231.657 647.874 232.223C646.874 232.652 645.896 233.573 645.076 235.369L645.064 235.394L645.055 235.416C644.297 236.982 643.807 239.615 643.807 243.565V306.615C643.807 310.661 644.291 313.431 645.064 315.141C645.868 316.791 646.833 317.689 647.874 318.135C649.193 318.701 650.833 319.021 652.853 319.021C654.87 319.021 656.51 318.701 657.831 318.135L657.875 318.117C659.015 317.656 660.003 316.75 660.786 315.141C661.56 313.431 662.046 310.661 662.046 306.615V243.565C662.046 239.615 661.555 236.982 660.798 235.416L660.786 235.394L660.777 235.369C659.975 233.614 658.974 232.686 657.875 232.241L657.831 232.223C656.51 231.657 654.87 231.337 652.853 231.337Z" fill="#0F073A" stroke="#0F073A" stroke-width="2"/>
<path d="M721.002 218C725.649 218 729.829 218.69 733.493 220.131L733.491 220.133C737.445 221.528 740.535 224.162 742.739 227.91C745.005 231.767 746 237.201 746 243.924V302.316C746 310.424 745.019 316.82 742.815 321.237L742.801 321.261C740.623 325.5 737.507 328.476 733.406 329.9L733.403 329.898C729.67 331.313 725.474 332 720.853 332C716.205 332 712.026 331.31 708.36 329.869C704.362 328.418 701.333 325.362 699.187 321.056C696.986 316.643 696 310.311 696 302.316V243.924C696 237.218 696.988 231.794 699.242 227.939L699.666 227.227C701.829 223.729 704.746 221.242 708.429 219.926L708.447 219.919C712.178 218.624 716.374 218 721.002 218ZM720.853 231.337C718.835 231.337 717.193 231.657 715.874 232.223C714.874 232.652 713.898 233.573 713.076 235.369L713.064 235.394L713.055 235.416C712.297 236.982 711.807 239.615 711.807 243.565V306.615C711.807 310.661 712.291 313.431 713.064 315.141C713.868 316.791 714.835 317.689 715.874 318.135C717.193 318.701 718.835 319.021 720.853 319.021C722.872 319.021 724.512 318.701 725.831 318.135L725.877 318.117C727.015 317.656 728.003 316.75 728.786 315.141C729.56 313.431 730.046 310.661 730.046 306.615V243.565C730.046 239.615 729.555 236.982 728.798 235.416L728.786 235.394L728.779 235.369C727.975 233.614 726.974 232.686 725.877 232.241L725.831 232.223C724.512 231.657 722.872 231.337 720.853 231.337Z" fill="#0F073A" stroke="#0F073A" stroke-width="2"/>
<path d="M808 218V232.356H793.73V328H778.128V232.356H764V218H808Z" fill="#0F073A" stroke="#0F073A" stroke-width="2"/>
</g>
<defs>
<clipPath id="clip0_22670_48904">
<rect width="648" height="210" fill="white" transform="translate(276 210)"/>
</clipPath>
</defs>
</svg>
