<svg width="435" height="254" viewBox="0 0 435 254" fill="none" xmlns="http://www.w3.org/2000/svg">
<path d="M80 156.842C80 125.449 109.321 100 145.49 100H348.51C384.679 100 414 125.449 414 156.842V208H80V156.842Z" fill="#A49CEF"/>
<path d="M125.772 116.247C99.6626 110.876 103.03 88.8927 108.79 76.5507C109.438 75.1627 111.093 74.5935 112.488 75.2252C142.803 88.95 134.151 108.169 125.772 116.247Z" fill="#4DCEB0"/>
<path d="M157.441 104.528C142.417 111.059 133.287 142.731 131.262 159.895C131.16 160.763 132.157 161.282 132.835 160.729C156.272 141.624 163.553 120.472 163.737 109.023C163.793 105.579 160.6 103.155 157.441 104.528Z" fill="#4DCEB0"/>
<path d="M125.772 167.913C106.95 152.21 102.324 135.578 102.258 127.448C102.249 126.298 103.328 125.495 104.377 125.967C114.544 130.546 122.782 155.341 125.772 167.913Z" fill="#212C30"/>
<path d="M120.516 99.9824C126.25 112.261 134.564 147.343 121.949 189.44" stroke="black" stroke-width="2.2" stroke-linecap="round"/>
<path d="M327.116 141.602C346.533 137.656 344.48 121.759 340.278 112.41C339.655 111.023 338.019 110.456 336.637 111.091C314.293 121.367 320.806 135.593 327.116 141.602Z" fill="#4DCEB0"/>
<path d="M329.022 184.657C344.018 172.205 347.927 159.032 348.127 152.321C348.161 151.172 347.085 150.371 346.06 150.891C337.959 154.997 331.418 174.631 329.022 184.657Z" fill="#212C30"/>
<path d="M332.845 125.337C327.111 137.615 323.968 170.305 332.845 206.184" stroke="black" stroke-width="2.2" stroke-linecap="round"/>
<path d="M174.76 190.647C163.856 184.379 158.329 188.665 156.929 191.591C161.065 193.36 164.037 201.059 165.007 204.688C167.581 204.368 175.321 204.197 185.683 206.077C196.045 207.957 198.599 207.325 199.251 205.358C200.927 200.301 189.869 197.023 185.949 196.402C182.813 195.906 177.183 192.359 174.76 190.647Z" fill="url(#paint0_linear_13873_27754)"/>
<path d="M147.173 177.96C147.555 174.898 156.252 159.143 160.552 151.648L211.201 169.827C211.584 176.333 215.183 179.554 216.935 180.352C231.461 186.092 238.278 191.673 239.871 193.746C242.738 197.573 245.7 206.95 234.615 213.838C223.529 220.727 194.637 207.46 181.576 199.965C157.112 208.002 134.75 211.925 126.627 212.882C118.504 213.36 102.258 210.777 102.258 196.617C102.258 182.456 116.592 178.279 123.76 177.96H147.173Z" fill="#2A197D"/>
<path d="M251.339 79.4119C254.397 76.733 260.258 75.4254 262.806 75.1064C261.373 85.1525 265.673 85.6309 267.585 91.8499C269.114 96.8251 269.496 99.0257 269.018 99.9825C272.459 100.365 272.044 103.65 271.885 104.766C272.267 106.297 270.611 111.145 269.496 111.942C262.806 114.334 261.373 111.464 260.417 110.985C259.653 110.603 254.365 112.739 251.339 114.812C248.663 116.343 247.675 118.321 247.994 119.596C238.82 120.362 236.208 113.537 236.048 110.029C236.048 109.231 236.335 107.541 237.482 107.158C238.629 106.776 239.552 105.085 239.871 104.288C238.342 101.609 237.641 98.7068 237.482 97.5905C235.953 91.4672 240.986 85.7904 243.693 83.7174C242.929 81.4211 243.375 79.8903 243.693 79.4119C245.987 79.7946 249.746 79.5714 251.339 79.4119Z" fill="#FCA489"/>
<path d="M265.196 89.0221C258.697 80.6025 262.169 73.7137 264.718 71.3218C271.216 65.9639 280.945 70.8433 284.309 72.7141C288.609 75.1059 297.688 83.2386 295.776 96.6334C294.743 103.878 294.343 106.201 296.254 109.071C297.004 110.197 305.811 117.247 304.377 124.901C302.944 132.555 296.732 134.469 299.121 141.644C301.51 148.82 310.589 154.082 309.633 162.215C308.869 168.721 305.492 171.942 303.899 172.739H262.329C261.851 171.304 260.322 165.755 258.028 155.039C255.161 141.644 252.294 129.206 249.905 125.379C247.994 122.318 247.516 119.958 247.516 119.16C248.281 114.185 255.798 109.433 259.462 107.679C261.532 109.912 266.629 113.133 270.452 108.157C274.274 103.182 270.133 100.663 267.585 100.025C268.731 95.8151 266.47 90.9356 265.196 89.0221Z" fill="#212B2D"/>
<path d="M255.3 85.1523C255.173 86.6787 255.948 89.7696 260.064 89.9219" stroke="black" stroke-width="2" stroke-linecap="round"/>
<path d="M238.915 116.247C241.973 119.309 245.605 119.277 247.516 119.118C247.516 120.075 248.472 122.423 248.949 123.38C250.479 125.293 253.409 132.15 254.683 135.339C258.347 151.764 266.004 185.518 266.769 187.048C267.533 188.579 268.54 188.759 269.018 188.918C277.46 190.513 295.986 194.99 303.632 196.138C311.277 197.286 313.296 197.573 319.19 198.53C341.169 199.008 344.036 202.313 346.426 202.792C348.337 203.174 349.133 203.908 349.293 204.227C351.682 204.749 351.204 204.749 352.159 205.227C353.34 205.818 353.805 207.715 350.365 208.097C346.924 208.48 338.462 207.46 335.436 207.141C327.79 208.576 322.534 207.184 318.712 207.141C308.677 207.662 280.008 207.575 260.895 206.619C257.455 206.619 254.046 203.111 252.772 201.356C247.038 194.468 236.367 159.259 231.748 142.515C226.97 145.385 216.649 151.891 213.591 154.953C210.532 158.015 210.724 166.753 211.201 170.74L159.596 153.04C163.897 143.472 174.409 127.685 179.187 120.031C182.655 114.477 193.724 104.303 200.268 98.6523C201.493 97.5942 202.587 96.3889 203.507 95.0565C219.564 71.7917 232.224 56.3497 251.339 37.7923C267.107 22.484 290.076 12.0665 300.554 8.13241C308.2 5.26216 308.086 5.57189 312.022 4.78379C314.411 4.3054 316.992 4.11407 317.756 5.2622C318.521 6.41032 317.278 7.49466 316.323 8.1325C317.597 7.65412 321.388 6.60167 322.534 8.13251C323.681 9.66334 320.942 10.6839 319.667 11.4812C320.464 11.3217 322.248 11.3855 323.012 12.9163C323.777 14.4472 322.057 15.7867 321.101 16.265L307.722 21.5273L313.456 22.4841C316.132 23.2495 316.482 25.0354 316.323 25.8328C316.323 27.3114 313.615 27.1519 312.022 27.3114C308.677 27.3114 303.804 27.4071 299.599 27.7898C295.394 28.1725 290.318 30.7845 289.565 31.095C284.183 33.3136 278.211 36.4509 269.261 43.6886C265.209 46.9657 261.574 50.7357 258.338 54.821C243.372 73.7159 234.485 89.9101 231.748 96.1118C231.27 97.0686 230.41 99.4605 230.792 101.374C231.171 103.27 235.335 105.836 237.425 107.123L237.482 107.158C236.526 108.753 235.857 113.186 238.915 116.247Z" fill="#FBA388"/>
<path d="M214.925 79.1504C220.651 82.7174 228.551 85.9541 237.203 85.6787C234.567 90.2521 232.747 93.848 231.748 96.1123C231.27 97.0692 230.41 99.4607 230.792 101.374C231.171 103.27 235.335 105.836 237.426 107.124L237.482 107.158C236.527 108.753 235.857 113.186 238.915 116.248C241.973 119.31 245.605 119.278 247.516 119.118C247.516 120.075 248.472 122.423 248.95 123.38C250.479 125.294 253.409 132.151 254.683 135.34C255.951 141.022 257.697 148.777 259.469 156.556C253.876 159.546 246.638 161.766 237.501 162.144C235.217 154.751 233.188 147.736 231.748 142.516C226.97 145.386 216.649 151.891 213.591 154.953C210.533 158.015 210.723 166.754 211.201 170.74L159.596 153.04C163.897 143.472 174.409 127.685 179.187 120.031C182.655 114.477 193.724 104.303 200.268 98.6523C201.494 97.5943 202.587 96.3884 203.508 95.0566C207.474 89.3167 211.236 84.0786 214.925 79.1504Z" fill="#7566E5"/>
<path d="M149.702 169.211C161.906 166.18 166.046 171.819 166.59 175.018C162.128 175.582 157.16 182.17 155.233 185.393C152.845 184.378 145.449 182.088 134.97 181.049C124.49 180.011 121.848 180.031 121.848 177.959C121.848 174.61 129.494 171.262 137.365 171.673C140.536 171.838 146.903 170.192 149.702 169.211Z" fill="url(#paint1_linear_13873_27754)"/>
<path d="M154.348 28.6697C154.988 26.9174 157.466 26.9174 158.106 28.6697L159.181 31.6168C159.388 32.1847 159.842 32.6284 160.414 32.8237L163.263 33.7967C165.068 34.4131 165.068 36.9658 163.263 37.5821L160.414 38.5551C159.842 38.7505 159.388 39.1942 159.181 39.7621L158.106 42.7091C157.466 44.4615 154.988 44.4615 154.348 42.7091L153.272 39.7621C153.065 39.1942 152.612 38.7505 152.04 38.5551L149.19 37.5821C147.385 36.9658 147.385 34.4131 149.19 33.7967L152.04 32.8237C152.612 32.6284 153.065 32.1847 153.272 31.6168L154.348 28.6697Z" fill="#E5FFED"/>
<ellipse cx="183.803" cy="65.2901" rx="3.65083" ry="3.64949" fill="#A49CEF"/>
<ellipse cx="432.16" cy="172.365" rx="2.84048" ry="2.83896" fill="#DFFBF5"/>
<path d="M68.7141 165.715C61.9438 159.665 56.3087 158.394 52.6088 158.776C50.1108 159.034 48.9789 161.698 49.9502 164.013C54.8354 175.657 70.1042 182.144 77.837 184.039C77.6958 176.261 71.6963 168.582 68.7141 165.715Z" fill="#7CD29F"/>
<path d="M75.0899 193.39C68.8781 190.691 64.4494 191.146 61.7994 192.649C59.86 193.748 59.9742 196.762 61.5581 198.74C69.8264 209.062 84.8741 212.484 91.9754 210.848C89.0205 203.072 80.105 195.298 75.0899 193.39Z" fill="#7CD29F"/>
<path d="M62.7501 169.206C63.0194 168.772 63.5903 168.639 64.0244 168.908C66.911 170.699 74.276 177.287 82.1508 189.907L82.9148 191.147L82.9197 191.156L82.9253 191.165C86.2693 196.952 93.9449 211.148 97.8396 221.566C98.0185 222.045 97.7754 222.577 97.2969 222.756C96.8183 222.934 96.2857 222.691 96.1068 222.213C92.2721 211.955 84.6719 197.887 81.3333 192.107L80.5785 190.881C72.7989 178.415 65.6173 172.074 63.0486 170.48C62.6145 170.211 62.4807 169.64 62.7501 169.206Z" fill="black"/>
<path d="M70.0806 198.114C70.1098 197.605 70.5468 197.215 71.0568 197.244C73.9359 197.409 77.9992 198.989 81.9324 201.19C85.8915 203.405 89.8709 206.336 92.5762 209.34C92.9181 209.72 92.8877 210.305 92.508 210.646C92.1284 210.988 91.5431 210.957 91.2012 210.578C88.6707 207.767 84.8708 204.954 81.0282 202.803C77.1598 200.639 73.3985 199.23 70.9512 199.09C70.4412 199.061 70.0516 198.624 70.0806 198.114Z" fill="black"/>
<defs>
<linearGradient id="paint0_linear_13873_27754" x1="177.583" y1="186.718" x2="178.715" y2="208.087" gradientUnits="userSpaceOnUse">
<stop stop-color="#FFBEA6"/>
<stop offset="1" stop-color="#F8AC8E"/>
</linearGradient>
<linearGradient id="paint1_linear_13873_27754" x1="148.064" y1="164.658" x2="141.107" y2="184.892" gradientUnits="userSpaceOnUse">
<stop stop-color="#FFBEA6"/>
<stop offset="1" stop-color="#F8AC8E"/>
</linearGradient>
</defs>
</svg>
