<svg width="536" height="314" viewBox="0 0 536 314" fill="none" xmlns="http://www.w3.org/2000/svg">
<path d="M13 217C13 161.772 57.7715 117 113 117H423C478.228 117 523 161.772 523 217V273H13V217Z" fill="#A49CEF"/>
<path d="M154.974 143.315C122.397 136.61 127.062 108.904 134.319 93.8051C134.983 92.4241 136.646 91.8661 138.045 92.4895C176.065 109.426 165.35 133.306 154.974 143.315Z" fill="#4DCEB0"/>
<path d="M195.241 128.377C175.832 135.23 164.102 176.148 161.68 197.646C161.582 198.515 162.583 199.041 163.263 198.49C193.42 174.081 202.094 146.882 201.749 133.065C201.663 129.621 198.489 127.23 195.241 128.377Z" fill="#4DCEB0"/>
<path d="M154.974 207.01C131.392 187.326 125.895 166.458 126.001 156.628C126.014 155.477 127.086 154.675 128.154 155.103C140.892 160.198 151.245 191.322 154.974 207.01Z" fill="#212C30"/>
<path d="M148.498 123.263C155.563 138.4 165.807 181.65 150.264 233.551" stroke="black" stroke-width="2.2" stroke-linecap="round"/>
<path d="M403.067 174.574C427.385 169.629 424.372 149.462 419.027 138.023C418.383 136.644 416.746 136.08 415.358 136.705C387.158 149.391 395.239 167.116 403.067 174.574Z" fill="#4DCEB0"/>
<path d="M405.416 227.653C424.265 211.993 428.899 195.408 428.966 187.298C428.976 186.149 427.898 185.346 426.849 185.816C416.664 190.377 408.411 215.112 405.416 227.653Z" fill="#212C30"/>
<path d="M410.126 154.521C403.061 169.659 399.188 209.96 410.126 254.193" stroke="black" stroke-width="2.2" stroke-linecap="round"/>
<path d="M215.337 235.039C201.9 227.312 195.09 232.596 193.365 236.203C198.461 238.383 202.124 247.876 203.318 252.35C206.491 251.955 216.028 251.744 228.795 254.062C241.563 256.38 244.71 255.601 245.513 253.176C247.579 246.941 233.954 242.9 229.123 242.135C225.259 241.523 218.322 237.149 215.337 235.039Z" fill="url(#paint0_linear_13873_27742)"/>
<path d="M181.344 219.397C181.815 215.622 192.531 196.199 197.83 186.959L260.239 209.37C260.71 217.391 265.145 221.363 267.304 222.345C285.203 229.423 293.602 236.303 295.565 238.859C299.097 243.577 302.748 255.137 289.088 263.63C275.429 272.122 239.828 255.766 223.735 246.526C193.59 256.434 166.036 261.271 156.027 262.45C146.018 263.04 126 259.855 126 242.398C126 224.94 143.663 219.79 152.495 219.397H181.344Z" fill="#2A197D"/>
<path d="M309.695 97.9027C313.463 94.6 320.686 92.9879 323.826 92.5947C322.059 104.98 327.358 105.57 329.713 113.237C331.597 119.371 332.068 122.083 331.48 123.263C335.719 123.735 335.209 127.785 335.012 129.161C335.483 131.048 333.442 137.024 332.068 138.007C323.826 140.956 322.059 137.418 320.882 136.828C319.94 136.356 313.424 138.99 309.695 141.546C306.398 143.433 305.181 145.871 305.574 147.444C294.27 148.387 291.051 139.973 290.855 135.648C290.855 134.665 291.208 132.581 292.621 132.11C294.034 131.638 295.172 129.554 295.565 128.571C293.681 125.268 292.817 121.69 292.621 120.314C290.737 112.765 296.939 105.766 300.275 103.211C299.333 100.38 299.882 98.4925 300.275 97.9027C303.101 98.3745 307.733 98.0993 309.695 97.9027Z" fill="#FCA489"/>
<path d="M326.769 109.751C318.762 99.3707 323.041 90.878 326.181 87.9291C334.188 81.3236 346.176 87.3391 350.32 89.6455C355.619 92.5943 366.806 102.621 364.451 119.134C363.177 128.065 362.684 130.93 365.039 134.468C365.963 135.856 376.815 144.547 375.048 153.984C373.282 163.42 365.628 165.779 368.572 174.626C371.516 183.473 382.702 189.96 381.525 199.986C380.583 208.007 376.422 211.978 374.46 212.961H323.237C322.648 211.192 320.764 204.351 317.938 191.14C314.405 174.626 310.873 159.292 307.929 154.574C305.574 150.799 304.985 147.89 304.985 146.907C305.927 140.773 315.19 134.914 319.704 132.752C322.256 135.504 328.536 139.475 333.246 133.342C337.956 127.208 332.853 124.102 329.713 123.316C331.126 118.126 328.34 112.11 326.769 109.751Z" fill="#212B2D"/>
<path d="M314.576 104.979C314.42 106.861 315.374 110.672 320.446 110.86" stroke="black" stroke-width="2" stroke-linecap="round"/>
<path d="M294.387 143.315C298.156 147.09 302.63 147.05 304.985 146.854C304.985 148.033 306.163 150.929 306.752 152.108C308.636 154.467 312.247 162.921 313.817 166.852C318.331 187.101 327.766 228.715 328.708 230.602C329.65 232.489 330.891 232.711 331.48 232.907C341.881 234.873 364.71 240.392 374.13 241.808C383.55 243.223 386.039 243.577 393.3 244.756C420.384 245.346 423.916 249.421 426.86 250.011C429.215 250.483 430.196 251.387 430.393 251.78C433.336 252.423 432.748 252.423 433.925 253.013C435.379 253.742 435.953 256.08 431.714 256.552C427.474 257.024 417.047 255.766 413.318 255.372C403.898 257.142 397.422 255.426 392.711 255.372C380.347 256.016 345.021 255.908 321.471 254.729C317.232 254.729 313.032 250.404 311.462 248.241C304.396 239.749 291.247 196.341 285.556 175.699C279.668 179.238 266.951 187.259 263.183 191.033C259.415 194.808 259.65 205.581 260.239 210.496L196.652 188.674C201.951 176.879 214.904 157.416 220.792 147.98C225.142 141.007 239.203 128.131 247.201 121.248C248.428 120.192 249.519 118.988 250.437 117.655C270.376 88.7132 286.015 69.5938 309.695 46.592C329.125 27.7193 357.427 14.876 370.338 10.0259C379.759 6.48736 379.619 6.86922 384.469 5.89761C387.413 5.30783 390.592 5.07195 391.534 6.48741C392.476 7.90287 390.945 9.23969 389.768 10.0261C391.338 9.43628 396.009 8.13878 397.422 10.0261C398.835 11.9133 395.459 13.1715 393.889 14.1545C394.87 13.9579 397.068 14.0365 398.01 15.9238C398.952 17.8111 396.833 19.4625 395.655 20.0522L379.17 26.5398L386.235 27.7193C389.532 28.6629 389.964 30.8648 389.768 31.8477C389.768 33.6706 386.431 33.4741 384.469 33.6706C380.347 33.6706 374.342 33.7886 369.161 34.2604C363.98 34.7322 357.725 37.9524 356.797 38.3353C349.887 41.1854 342.188 45.2652 330.37 55.0128C326.349 58.3289 322.707 62.0958 319.451 66.165C300.326 90.0657 288.997 110.69 285.556 118.491C284.967 119.671 283.907 122.619 284.378 124.979C284.845 127.316 289.976 130.479 292.552 132.067L292.621 132.109C291.444 134.075 290.619 139.541 294.387 143.315Z" fill="#FBA388"/>
<path d="M264.824 97.583C271.88 101.981 281.616 105.968 292.277 105.629C289.03 111.267 286.787 115.7 285.555 118.491C284.967 119.671 283.908 122.62 284.379 124.979C284.845 127.316 289.976 130.479 292.552 132.066L292.621 132.109C291.443 134.075 290.619 139.541 294.387 143.315C298.156 147.09 302.63 147.05 304.985 146.854C304.985 148.033 306.163 150.929 306.752 152.108C308.636 154.468 312.247 162.921 313.817 166.853C315.379 173.858 317.53 183.419 319.715 193.009C312.822 196.696 303.903 199.432 292.643 199.897C289.829 190.784 287.33 182.135 285.555 175.699C279.668 179.238 266.95 187.259 263.182 191.033C259.414 194.808 259.65 205.581 260.239 210.496L196.652 188.674C201.951 176.878 214.904 157.416 220.792 147.979C225.142 141.007 239.202 128.132 247.201 121.249C248.428 120.193 249.519 118.988 250.438 117.655C255.443 110.398 260.18 103.791 264.824 97.583Z" fill="#7566E5"/>
<path d="M184.46 208.611C199.497 204.874 204.599 211.827 205.27 215.77C199.771 216.466 193.649 224.587 191.275 228.561C188.333 227.309 179.22 224.486 166.307 223.206C153.395 221.926 150.139 221.951 150.139 219.396C150.139 215.268 159.56 211.139 169.259 211.646C173.166 211.85 181.011 209.82 184.46 208.611Z" fill="url(#paint1_linear_13873_27742)"/>
<path d="M190.621 34.1504C191.261 32.3976 193.739 32.3976 194.379 34.1504L196.217 39.1881C196.424 39.756 196.877 40.1998 197.449 40.3952L202.46 42.1074C204.265 42.7239 204.265 45.2761 202.46 45.8926L197.449 47.6048C196.877 47.8002 196.424 48.244 196.217 48.8119L194.379 53.8496C193.739 55.6024 191.261 55.6024 190.621 53.8496L188.783 48.8119C188.576 48.244 188.123 47.8002 187.551 47.6048L182.54 45.8926C180.735 45.2761 180.735 42.7239 182.54 42.1074L187.551 40.3952C188.123 40.1998 188.576 39.756 188.783 39.1881L190.621 34.1504Z" fill="#E5FFED"/>
<ellipse cx="226.479" cy="80.4934" rx="4.49849" ry="4.49925" fill="#A49CEF"/>
<circle cx="532.5" cy="212.5" r="3.5" fill="#DFFBF5"/>
<path d="M84.6695 204.301C76.3276 196.842 69.3837 195.277 64.8244 195.748C61.746 196.066 60.3509 199.351 61.5474 202.205C67.5655 216.56 86.38 224.555 95.9086 226.89C95.7359 217.301 88.3439 207.835 84.6695 204.301Z" fill="#7CD29F"/>
<path d="M92.5258 238.418C84.8719 235.092 79.4147 235.653 76.1491 237.506C73.7591 238.863 73.8994 242.579 75.8509 245.017C86.0376 257.742 104.579 261.959 113.33 259.941C109.69 250.354 98.7052 240.77 92.5258 238.418Z" fill="#7CD29F"/>
<path d="M78.2888 209.207C81.7586 211.36 91.1971 219.783 101.193 236.245C105.306 243.369 114.724 260.803 119.488 273.554" stroke="black" stroke-width="2.28" stroke-linecap="round"/>
<path d="M87.49 244.312C94.0535 244.686 106.773 251.677 113.224 258.845" stroke="black" stroke-width="2.28" stroke-linecap="round"/>
<defs>
<linearGradient id="paint0_linear_13873_27742" x1="218.815" y1="230.195" x2="220.212" y2="256.54" gradientUnits="userSpaceOnUse">
<stop stop-color="#FFBEA6"/>
<stop offset="1" stop-color="#F8AC8E"/>
</linearGradient>
<linearGradient id="paint1_linear_13873_27742" x1="182.441" y1="202.997" x2="173.861" y2="227.94" gradientUnits="userSpaceOnUse">
<stop stop-color="#FFBEA6"/>
<stop offset="1" stop-color="#F8AC8E"/>
</linearGradient>
</defs>
</svg>
