<svg width="536" height="376" viewBox="0 0 536 376" fill="none" xmlns="http://www.w3.org/2000/svg">
<style>
  .bar1, .bar2, .bar3, .bar4, .bar5 {
    opacity: 0;
  }
  .bar1 { animation: fadeIn 0.5s ease-out 1.5s forwards; }
  .bar2 { animation: fadeIn 0.5s ease-out 1.2s forwards; }
  .bar3 { animation: fadeIn 0.5s ease-out 0.9s forwards; }
  .bar4 { animation: fadeIn 0.5s ease-out 0.6s forwards; }
  .bar5 { animation: fadeIn 0.5s ease-out 0.3s forwards; }
 
  .twinkle1 { animation: twinkle 2s ease-in-out infinite; }
  .twinkle2 { animation: twinkle 2s ease-in-out 0.7s infinite; }
  .twinkle3 { animation: twinkle 2s ease-in-out 1.4s infinite; }
 
  @keyframes twinkle {
    0%, 100% { opacity: 1; }
    50% { opacity: 0.3; }
  }
 
  @keyframes swayLeft {
    0%, 100% { transform: rotate(0deg); }
    50% { transform: rotate(-3deg); }
  }
  @keyframes swayRight {
    0%, 100% { transform: rotate(0deg); }
    50% { transform: rotate(3deg); }
  }
 
  @keyframes fadeIn {
    from { opacity: 0; }
    to   { opacity: 1; }
  }
</style>
<path d="M13 279.717C13 224.489 57.7715 179.717 113 179.717H423C478.228 179.717 523 224.489 523 279.717V335.717H13V279.717Z" fill="#A49CEF"/>
<path d="M351.737 44.7517L349.013 50.1299L327.246 39.1073C316.362 33.5961 302.145 37.0156 297.865 45.4674L199.821 239.085C195.347 247.921 201.587 260.253 212.471 265.763L302.38 311.292C313.263 316.803 327.843 315.015 332.318 306.179L430.362 112.561C434.837 103.725 428.038 90.1464 417.155 84.6354L396.333 74.0918L399.057 68.7137C400.808 65.2563 399.804 61.369 395.545 59.2124L360.054 41.2409C356.269 39.3239 353.487 41.2941 351.737 44.7517Z" fill="#5444B2"/>
<path d="M430.037 112.821C434.512 103.985 427.713 90.4062 416.829 84.8953L396.008 74.3512L398.731 68.9728C400.482 65.5154 399.478 61.6282 395.219 59.4715L359.728 41.4996C355.469 39.343 353.161 41.5529 351.41 45.0103L348.687 50.3887L326.919 39.3659C316.035 33.8545 301.818 37.274 297.538 45.7259L199.494 239.345C195.019 248.18 201.261 260.511 212.145 266.023" fill="#7566E5"/>
<!-- leaves -->
<g style="transform-origin: 150px 296px; animation: swayLeft 3s ease-in-out infinite;">
<path d="M154.974 206.033C122.397 199.327 127.062 171.621 134.319 156.522C134.983 155.141 136.646 154.583 138.045 155.207C176.065 172.143 165.35 196.023 154.974 206.033Z" fill="#4DCEB0"/>
<path d="M195.241 191.094C175.832 197.947 164.102 238.865 161.679 260.363C161.582 261.232 162.583 261.757 163.263 261.207C193.419 236.798 202.094 209.598 201.749 195.782C201.663 192.338 198.489 189.947 195.241 191.094Z" fill="#4DCEB0"/>
<path d="M154.974 269.728C131.392 250.043 125.895 229.175 126.001 219.345C126.014 218.195 127.086 217.393 128.154 217.82C140.892 222.915 151.245 254.04 154.974 269.728Z" fill="#212C30"/>
<path d="M148.497 185.98C155.563 201.118 165.807 244.368 150.264 296.268" stroke="black" stroke-width="2.2" stroke-linecap="round"/>
</g>
<g style="transform-origin: 410px 317px; animation: swayRight 3.5s ease-in-out infinite;">
<path d="M403.067 237.291C427.385 232.347 424.372 212.18 419.027 200.74C418.383 199.362 416.746 198.798 415.358 199.422C387.158 212.108 395.239 229.833 403.067 237.291Z" fill="#4DCEB0"/>
<path d="M405.416 290.371C424.265 274.711 428.899 258.125 428.966 250.016C428.975 248.867 427.897 248.063 426.849 248.533C416.664 253.094 408.411 277.829 405.416 290.371Z" fill="#212C30"/>
<path d="M410.126 217.238C403.061 232.376 399.188 272.677 410.126 316.91" stroke="black" stroke-width="2.2" stroke-linecap="round"/>
</g>
<g style="transform-origin: 119px 336px; animation: swayLeft 4s ease-in-out 0.5s infinite;">
<path d="M84.6696 267.018C76.3277 259.559 69.3838 257.994 64.8244 258.465C61.7461 258.784 60.3509 262.068 61.5475 264.922C67.5656 279.277 86.3801 287.272 95.9087 289.607C95.736 280.019 88.344 270.552 84.6696 267.018Z" fill="#7CD29F"/>
<path d="M92.5258 301.136C84.8719 297.809 79.4147 298.371 76.1491 300.224C73.7591 301.58 73.8994 305.297 75.8509 307.734C86.0376 320.46 104.579 324.677 113.33 322.659C109.69 313.071 98.7052 303.488 92.5258 301.136Z" fill="#7CD29F"/>
<path d="M78.2887 271.925C81.7585 274.078 91.1969 282.5 101.192 298.963C105.306 306.086 114.724 323.521 119.488 336.272" stroke="black" stroke-width="2.28" stroke-linecap="round"/>
<path d="M87.49 307.029C94.0535 307.403 106.773 314.395 113.224 321.562" stroke="black" stroke-width="2.28" stroke-linecap="round"/>
</g>
<!-- 5 bars with sequential animation -->
<path class="bar1" d="M401.441 113.206L315.465 69.4737C312.865 68.1515 309.689 69.1863 308.37 71.7848L299.492 89.2722C298.173 91.8707 299.211 95.0492 301.81 96.3713L387.787 140.104C390.386 141.426 393.563 140.392 394.882 137.793L403.759 120.306C405.078 117.707 404.04 114.528 401.441 113.206Z" fill="#E6F7F1"/>
<path class="bar2" d="M383.131 149.259L297.588 105.184C295.002 103.851 291.859 104.859 290.569 107.435L281.883 124.772C280.592 127.347 281.642 130.516 284.229 131.849L369.771 175.924C372.357 177.257 375.5 176.248 376.791 173.673L385.476 156.336C386.767 153.76 385.717 150.592 383.131 149.259Z" fill="#CFF0E4"/>
<path class="bar3" d="M365.052 184.107L279.556 140.983C276.971 139.679 273.801 140.721 272.475 143.312L263.553 160.742C262.227 163.332 263.247 166.489 265.832 167.792L351.329 210.916C353.914 212.22 357.084 211.177 358.409 208.588L367.332 191.157C368.657 188.568 367.637 185.411 365.052 184.107Z" fill="#A6E5D1"/>
<path class="bar4" d="M346.743 220.159L261.681 176.692C259.109 175.378 255.973 176.394 254.675 178.962L245.945 196.241C244.647 198.808 245.68 201.955 248.251 203.269L333.314 246.736C335.885 248.05 339.022 247.034 340.319 244.467L349.05 227.187C350.348 224.619 349.314 221.473 346.743 220.159Z" fill="#86D9C2"/>
<path class="bar5" d="M329.075 255.528L243.098 211.795C240.499 210.472 237.323 211.507 236.003 214.106L227.127 231.593C225.807 234.191 226.845 237.37 229.444 238.692L315.421 282.425C318.02 283.747 321.197 282.712 322.516 280.114L331.393 262.626C332.712 260.028 331.674 256.849 329.075 255.528Z" fill="#5FC8A6"/>
 <!-- twinkles -->
<path class="twinkle1" d="M190.621 96.8676C191.261 95.1149 193.739 95.1149 194.379 96.8676L196.217 101.905C196.424 102.473 196.877 102.917 197.449 103.113L202.46 104.825C204.265 105.441 204.265 107.993 202.46 108.61L197.449 110.322C196.877 110.518 196.424 110.961 196.217 111.529L194.379 116.567C193.739 118.32 191.261 118.32 190.621 116.567L188.783 111.529C188.576 110.961 188.123 110.518 187.551 110.322L182.54 108.61C180.735 107.993 180.735 105.441 182.54 104.825L187.551 103.113C188.123 102.917 188.576 102.473 188.783 101.905L190.621 96.8676Z" fill="#E5FFED"/>
<ellipse class="twinkle2" cx="226.479" cy="143.21" rx="4.49849" ry="4.49925" fill="#A49CEF"/>
<circle class="twinkle3" cx="213.5" cy="87.2173" r="3.5" fill="#DFFBF5"/>
</svg>